STARTFONT 2.3
FONT -FontForge-Roboto Condensed-Book-R-Condensed---20-200-72-72-P-98-ISO10646-1
SIZE 20 72 72  4
FONTBOUNDINGBOX 35 27 -15 -6
COMMENT "Generated by fontforge, http://fontforge.sourceforge.net"
COMMENT "Copyright 2011 Google Inc. All Rights Reserved."
STARTPROPERTIES 42
FOUNDRY "FontForge"
FAMILY_NAME "Roboto Condensed"
WEIGHT_NAME "Book"
SLANT "R"
SETWIDTH_NAME "Condensed"
ADD_STYLE_NAME ""
PIXEL_SIZE 20
POINT_SIZE 200
RESOLUTION_X 72
RESOLUTION_Y 72
SPACING "P"
AVERAGE_WIDTH 98
CHARSET_REGISTRY "ISO10646"
CHARSET_ENCODING "1"
FONTNAME_REGISTRY ""
CHARSET_COLLECTIONS "ISO8859-2 ISO8859-5 ISO8859-7 ISO8859-9 ISO8859-4 ISO10646-1"
BITS_PER_PIXEL 4
FONT_NAME "RobotoCondensed-Regular"
FACE_NAME "Roboto Condensed"
COPYRIGHT "Copyright 2011 Google Inc. All Rights Reserved."
FONT_VERSION "2.137; 2017"
FONT_ASCENT 15
FONT_DESCENT 5
UNDERLINE_POSITION -2
UNDERLINE_THICKNESS 1
X_HEIGHT 10
CAP_HEIGHT 13
DEFAULT_CHAR 1
RAW_ASCENT 750
RAW_DESCENT 250
NORM_SPACE 5
RELATIVE_WEIGHT 40
RELATIVE_SETWIDTH 50
SUPERSCRIPT_X 0
SUPERSCRIPT_Y 9
SUPERSCRIPT_SIZE 12
SUBSCRIPT_X 0
SUBSCRIPT_Y 2
SUBSCRIPT_SIZE 12
FIGURE_WIDTH 10
AVG_LOWERCASE_WIDTH 96
AVG_UPPERCASE_WIDTH 114
ENDPROPERTIES
CHARS 1296
STARTCHAR uni0000
ENCODING 0
SWIDTH 0 0
DWIDTH 0 0
BBX 1 1 0 0
BITMAP
00
ENDCHAR
STARTCHAR uni0002
ENCODING 2
SWIDTH 0 0
DWIDTH 0 0
BBX 1 1 0 0
BITMAP
00
ENDCHAR
STARTCHAR uni000D
ENCODING 13
SWIDTH 229 0
DWIDTH 5 0
BBX 1 1 0 0
BITMAP
00
ENDCHAR
STARTCHAR space
ENCODING 32
SWIDTH 229 0
DWIDTH 5 0
BBX 1 1 0 0
BITMAP
00
ENDCHAR
STARTCHAR exclam
ENCODING 33
SWIDTH 245 0
DWIDTH 5 0
BBX 3 14 1 0
BITMAP
6F60
6F50
6F50
6F50
6F50
6F50
5F40
5F40
5F40
4E40
0000
0000
4F50
4E40
ENDCHAR
STARTCHAR quotedbl
ENCODING 34
SWIDTH 319 0
DWIDTH 6 0
BBX 5 5 1 10
BITMAP
AB0F50
AA0F50
A90F40
A80F20
A70F10
ENDCHAR
STARTCHAR numbersign
ENCODING 35
SWIDTH 547 0
DWIDTH 11 0
BBX 10 14 1 0
BITMAP
0003F10E60
0007D02F30
000A905E00
1FFFFFFFF7
056F85DB52
003F20D700
005E01F400
008C03F200
BFFFFFFFC0
45EA5BD540
00F50AA000
02F30C8000
04F10E6000
06E01F3000
ENDCHAR
STARTCHAR dollar
ENCODING 36
SWIDTH 493 0
DWIDTH 10 0
BBX 8 19 1 -2
BITMAP
00012000
0008C000
0008C000
01AFFB20
0CFAAFD1
4F8008F6
6F5002F9
5F700085
1EE50000
05FFC500
0029FFA0
00002CF6
540002FA
CD0000FB
9F4004F9
3FE9AFF2
03BFFB30
000B9000
000A8000
ENDCHAR
STARTCHAR percent
ENCODING 37
SWIDTH 632 0
DWIDTH 13 0
BBX 11 14 1 0
BITMAP
1AEB10000000
9C4CA0000000
D605E0076000
E504F02E3000
D605E09A0000
9C4CA3E20000
1AEB1B800000
00005E4CE800
0000D6DA4E60
0006D2F209A0
001E43F108B0
008B02F209A0
00B300D94E60
0000003CE900
ENDCHAR
STARTCHAR ampersand
ENCODING 38
SWIDTH 543 0
DWIDTH 11 0
BBX 10 14 1 0
BITMAP
019EE91000
09FA9F9000
0EC00BD000
0FB00BD000
0CE15F8000
05FDFA0000
00DFB00000
0BFDE20470
8F53FC0AD0
ED007F9DB0
FC000BFF50
CF2003FF20
4FE89EEFA0
04CFEA2AF5
ENDCHAR
STARTCHAR quotesingle
ENCODING 39
SWIDTH 174 0
DWIDTH 3 0
BBX 2 5 1 10
BITMAP
F7
F7
F6
F5
F4
ENDCHAR
STARTCHAR parenleft
ENCODING 40
SWIDTH 313 0
DWIDTH 6 0
BBX 5 21 1 -5
BITMAP
000370
002E70
00AC00
03F400
0AD000
1E9000
4F6000
7F3000
9F2000
AF0000
BF0000
AF1000
9F2000
7F3000
4F6000
1EA000
0AD000
03F400
00AC00
002E70
000370
ENDCHAR
STARTCHAR parenright
ENCODING 41
SWIDTH 318 0
DWIDTH 6 0
BBX 5 21 0 -5
BITMAP
460000
3F4000
08E100
01E700
00AE00
005F40
002F80
000EB0
000CD0
000BE0
000BF0
000CE0
000DD0
000EB0
002F80
005F40
009E00
01E700
07E100
3E5000
470000
ENDCHAR
STARTCHAR asterisk
ENCODING 42
SWIDTH 430 0
DWIDTH 9 0
BBX 9 8 0 6
BITMAP
0006F10000
0006F00000
5825F04900
7EFEFEFD20
015EFA3000
008EAE2000
04F71DC000
04B005B100
ENDCHAR
STARTCHAR plus
ENCODING 43
SWIDTH 496 0
DWIDTH 10 0
BBX 9 12 0 1
BITMAP
0000220000
0000EC0000
0000EC0000
0000EC0000
0000EC0000
2FFFFFFFF0
2BBBFEBBB0
0000EC0000
0000EC0000
0000EC0000
0000EC0000
0000330000
ENDCHAR
STARTCHAR comma
ENCODING 44
SWIDTH 196 0
DWIDTH 4 0
BBX 3 6 0 -3
BITMAP
0220
0CF0
0CF0
0EC0
5F70
5B00
ENDCHAR
STARTCHAR hyphen
ENCODING 45
SWIDTH 248 0
DWIDTH 5 0
BBX 5 2 0 5
BITMAP
8FFF80
477740
ENDCHAR
STARTCHAR period
ENCODING 46
SWIDTH 263 0
DWIDTH 5 0
BBX 3 3 1 0
BITMAP
0200
7F80
6E60
ENDCHAR
STARTCHAR slash
ENCODING 47
SWIDTH 370 0
DWIDTH 7 0
BBX 7 15 0 -1
BITMAP
00000D90
00003F40
00008E00
0000D900
0003F400
0008E000
000D9000
003F4000
008E0000
00D90000
03F40000
08E00000
0D900000
3F400000
8E000000
ENDCHAR
STARTCHAR zero
ENCODING 48
SWIDTH 493 0
DWIDTH 10 0
BBX 8 14 1 0
BITMAP
02BEEA10
1DF99FC0
6F6008F4
AF1003F8
CD0001FA
DD0000FB
DD0000FB
DD0000FB
DD0000FB
CE0001FA
AF1003F8
6F6008F4
1DE89FC0
02BEEA10
ENDCHAR
STARTCHAR one
ENCODING 49
SWIDTH 493 0
DWIDTH 10 0
BBX 6 14 1 0
BITMAP
0005C4
16DFF4
7FBAF4
4307F4
0007F4
0007F4
0007F4
0007F4
0007F4
0007F4
0007F4
0007F4
0007F4
0007F4
ENDCHAR
STARTCHAR two
ENCODING 50
SWIDTH 493 0
DWIDTH 10 0
BBX 9 14 1 0
BITMAP
04BEEA2000
3FE9AFD000
BF2008F500
FB0003F800
640004F700
000008F200
00002EA000
0000CE2000
0009F60000
005F900000
03EC000000
1DE2000000
AFA7777710
DFFFFFFF10
ENDCHAR
STARTCHAR three
ENCODING 51
SWIDTH 493 0
DWIDTH 10 0
BBX 8 14 1 0
BITMAP
04CFD910
4FD8AFB0
BF2009F3
DB0006F5
000007F4
00004EC0
00AFFD20
0057AFB0
000008F5
000003F8
EB0003F8
CE1008F5
5FD8AFC0
05CFE910
ENDCHAR
STARTCHAR four
ENCODING 52
SWIDTH 493 0
DWIDTH 10 0
BBX 10 14 0 0
BITMAP
000006FA00
00001EFA00
00008FFA00
0002F8FA00
000AE1FA00
003F61FA00
00BD01FA00
05F501FA00
0DC001FA00
5FFFFFFFF4
377777FD72
000001FA00
000001FA00
000001FA00
ENDCHAR
STARTCHAR five
ENCODING 53
SWIDTH 493 0
DWIDTH 10 0
BBX 8 14 1 0
BITMAP
09FFFFFA
0AFAAAA6
0BD00000
0DB00000
0EA00000
0FCCFD50
2FFBBFF3
054005FA
000000DE
000000BF
7E2000CE
4F8003FB
0BFA8EF3
019EFC40
ENDCHAR
STARTCHAR six
ENCODING 54
SWIDTH 493 0
DWIDTH 10 0
BBX 8 14 1 0
BITMAP
0017CE20
01CFC910
09F60000
2F900000
6F400000
8F7CFC40
AFFA9EF2
AF7005F8
AF0000EC
AF1000DD
7F4000EC
3FA005F8
09FB9EE2
008EEB30
ENDCHAR
STARTCHAR seven
ENCODING 55
SWIDTH 493 0
DWIDTH 10 0
BBX 9 14 0 0
BITMAP
3FFFFFFFF0
1777777EC0
0000003F60
0000009F10
000001EA00
000006F400
00000CE000
00003F8000
00009F2000
0000EC0000
0005F60000
000BF10000
002FA00000
008F400000
ENDCHAR
STARTCHAR eight
ENCODING 56
SWIDTH 493 0
DWIDTH 10 0
BBX 8 14 1 0
BITMAP
02AEE910
1DF9AFC0
6F6009F4
8F2005F6
8F4006F5
2FB22DE1
05FFFE30
1CE99FA0
8F4006F5
CE0001FA
CE0001FB
AF3005F8
3FE89FE1
03BEEA20
ENDCHAR
STARTCHAR nine
ENCODING 57
SWIDTH 493 0
DWIDTH 10 0
BBX 8 14 1 0
BITMAP
03BFD700
1EE9CF70
8F400DE1
CD0007F5
EB0004F7
EC0002F8
CE1005F8
6F914EF8
0BFFFAF6
005735F4
00000AE1
00006F90
029CFC10
04EC7100
ENDCHAR
STARTCHAR colon
ENCODING 58
SWIDTH 233 0
DWIDTH 5 0
BBX 3 12 1 0
BITMAP
0200
8F70
6E60
0000
0000
0000
0000
0000
0000
0200
8F70
6E50
ENDCHAR
STARTCHAR semicolon
ENCODING 59
SWIDTH 202 0
DWIDTH 4 0
BBX 4 15 0 -3
BITMAP
0010
0BF4
0AE3
0000
0000
0000
0000
0000
0000
0120
09F2
0AF2
0CE0
3F90
4C10
ENDCHAR
STARTCHAR less
ENCODING 60
SWIDTH 445 0
DWIDTH 9 0
BBX 8 9 0 2
BITMAP
00000076
00005DF7
003CFE70
1AFE7100
4FD20000
1AFE7100
003BFE60
00005DF7
00000076
ENDCHAR
STARTCHAR equal
ENCODING 61
SWIDTH 479 0
DWIDTH 10 0
BBX 8 6 1 3
BITMAP
8FFFFFF4
59999993
00000000
00000000
8FFFFFF4
58888882
ENDCHAR
STARTCHAR greater
ENCODING 62
SWIDTH 459 0
DWIDTH 9 0
BBX 8 9 1 2
BITMAP
86000000
AFC40000
17EFB300
0017DFA2
00001CF5
0017EFA2
17EFB300
AFC40000
86000000
ENDCHAR
STARTCHAR question
ENCODING 63
SWIDTH 421 0
DWIDTH 8 0
BBX 8 14 0 0
BITMAP
018DEB30
0AFCAFE1
1FB006F6
163002F8
000005F7
00000CE2
00009F60
0005F900
000BF100
000DC000
00000000
00000000
000CC000
000BB000
ENDCHAR
STARTCHAR at
ENCODING 64
SWIDTH 769 0
DWIDTH 15 0
BBX 14 18 1 -4
BITMAP
00006BEFD81000
001BF9657DD200
00BD200000AD00
05E20000000C60
0D8003CEB205C0
3F201EA5D901F1
8C008D00C800D4
AA00E800E700C5
C802F500F600C6
D704F301F500D5
C705F202F300E3
B904F407F405D0
8B00EC7DE94D70
4F105ED35EE800
0D800000000000
05F50000000000
007FA545960000
0004AEFDA30000
ENDCHAR
STARTCHAR A
ENCODING 65
SWIDTH 576 0
DWIDTH 12 0
BBX 11 14 0 0
BITMAP
00002FA00000
00007FF10000
0000CEF50000
0002F7EA0000
0007F2AE1000
000CD05F5000
002F901FA000
007F400BE100
00CE0007F500
02FFFFFFFA00
07FA8888DE00
0BF100008F50
1FB000003FA0
6F6000000DE0
ENDCHAR
STARTCHAR B
ENCODING 66
SWIDTH 545 0
DWIDTH 11 0
BBX 9 14 1 0
BITMAP
7FFFFD9200
7FA88BFD00
7F50009F50
7F50005F70
7F50007F60
7F5004ED10
7FFFFFE200
7FA88AFC10
7F50006F70
7F50001FB0
7F50002FB0
7F50007F80
7FA88AFE20
7FFFFEA200
ENDCHAR
STARTCHAR C
ENCODING 67
SWIDTH 566 0
DWIDTH 11 0
BBX 10 14 1 0
BITMAP
004BEEC500
06FE99EF60
2FD1001EE1
7F600009F4
AF200005C5
BF10000000
CF00000000
CF00000000
BF10000000
AF200004B4
7F600008F4
2FC1001EE1
07FD99EF50
005CFEB400
ENDCHAR
STARTCHAR D
ENCODING 68
SWIDTH 570 0
DWIDTH 11 0
BBX 10 14 1 0
BITMAP
7FFFEC6000
7FA89DFA00
7F50009F60
7F50000ED0
7F50000BF1
7F500009F2
7F500009F3
7F500009F3
7F500009F2
7F50000BF1
7F50001ED0
7F50009F60
7FA89DFA00
7FFFEC6000
ENDCHAR
STARTCHAR E
ENCODING 69
SWIDTH 496 0
DWIDTH 10 0
BBX 9 14 1 0
BITMAP
7FFFFFFF10
7FA8888810
7F50000000
7F50000000
7F50000000
7F50000000
7FFFFFF500
7FA8888300
7F50000000
7F50000000
7F50000000
7F50000000
7FA8888810
7FFFFFFF30
ENDCHAR
STARTCHAR F
ENCODING 70
SWIDTH 480 0
DWIDTH 10 0
BBX 8 14 1 0
BITMAP
7FFFFFFE
7FA88888
7F500000
7F500000
7F500000
7F500000
7FFFFFF2
7FA88881
7F500000
7F500000
7F500000
7F500000
7F500000
7F500000
ENDCHAR
STARTCHAR G
ENCODING 71
SWIDTH 590 0
DWIDTH 12 0
BBX 10 14 1 0
BITMAP
006CEEC500
09FDA9EF70
3FC1001EE1
8F400008F5
BF10000262
CF00000000
CF00000000
CF000EFFF7
CF10088BF7
AF200005F7
8F600005F7
2FD10007F7
07FE99BFE2
004BEFD920
ENDCHAR
STARTCHAR H
ENCODING 72
SWIDTH 620 0
DWIDTH 12 0
BBX 10 14 1 0
BITMAP
7F500000ED
7F500000ED
7F500000ED
7F500000ED
7F500000ED
7F500000ED
7FFFFFFFFD
7FA88888FD
7F500000ED
7F500000ED
7F500000ED
7F500000ED
7F500000ED
7F500000ED
ENDCHAR
STARTCHAR I
ENCODING 73
SWIDTH 250 0
DWIDTH 5 0
BBX 3 14 1 0
BITMAP
6F60
6F60
6F60
6F60
6F60
6F60
6F60
6F60
6F60
6F60
6F60
6F60
6F60
6F60
ENDCHAR
STARTCHAR J
ENCODING 74
SWIDTH 483 0
DWIDTH 10 0
BBX 9 14 0 0
BITMAP
0000008F40
0000008F40
0000008F40
0000008F40
0000008F40
0000008F40
0000008F40
0000008F40
0000008F40
1210009F30
5F7000AF30
2FB001EE00
0AFC9DF700
019EFD6000
ENDCHAR
STARTCHAR K
ENCODING 75
SWIDTH 544 0
DWIDTH 11 0
BBX 10 14 1 0
BITMAP
7F50002EE2
7F5000BF50
7F5008F900
7F504FC000
7F51DE2000
7F5AF50000
7FCFF20000
7FFDFA0000
7FD1AF5000
7F502EE100
7F5007F900
7F5000CF40
7F50004FD0
7F500009F8
ENDCHAR
STARTCHAR L
ENCODING 76
SWIDTH 475 0
DWIDTH 10 0
BBX 8 14 1 0
BITMAP
7F500000
7F500000
7F500000
7F500000
7F500000
7F500000
7F500000
7F500000
7F500000
7F500000
7F500000
7F500000
7FA88887
7FFFFFFE
ENDCHAR
STARTCHAR M
ENCODING 77
SWIDTH 755 0
DWIDTH 15 0
BBX 13 14 1 0
BITMAP
7FE1000000DF80
7FF5000003FF80
7FFA000008FF80
7FDE00000DDF80
7F9F40003F8F80
7F4F90008F4F80
7F4AE000DC2F80
7F45F403F73F80
7F51E908F13F80
7F50AE0CB03F80
7F505F6F603F80
7F501EEF103F80
7F500AFB003F80
7F5005F6003F80
ENDCHAR
STARTCHAR N
ENCODING 78
SWIDTH 619 0
DWIDTH 12 0
BBX 10 14 1 0
BITMAP
7F900000EC
7FF20000EC
7FFA0000EC
7FDF3000EC
7F6EB000EC
7F57F300EC
7F51EB00EC
7F506F40EC
7F500DC0EC
7F5005F5EC
7F5000CDEC
7F50004FFC
7F50000BFC
7F500004FC
ENDCHAR
STARTCHAR O
ENCODING 79
SWIDTH 600 0
DWIDTH 12 0
BBX 10 14 1 0
BITMAP
005CEEC500
07FEAAEF70
2FD1001DF2
7F600005F7
AF200002FA
BF000000FB
CF000000FC
CF000000FC
CF000000FB
AF200001FA
7F600005F7
2FD1001DF2
07FEAAEF70
005CEEC500
ENDCHAR
STARTCHAR P
ENCODING 80
SWIDTH 554 0
DWIDTH 11 0
BBX 10 14 1 0
BITMAP
7FFFFFC500
7FA889EF60
7F50002EE1
7F500009F4
7F500008F4
7F50000AF3
7F50017FC0
7FFFFFFD30
7FA8885100
7F50000000
7F50000000
7F50000000
7F50000000
7F50000000
ENDCHAR
STARTCHAR Q
ENCODING 81
SWIDTH 600 0
DWIDTH 12 0
BBX 10 17 1 -3
BITMAP
006CEEB400
08FEAAEF60
3FC1002DE1
8F500006F6
BF100003F9
DE000001FA
DE000001FB
DE000001FB
DE000001FA
CF100003F9
9F500006F6
3FC1002DE1
08FEABEF60
006CEEFE30
0000004EF5
00000003E6
0000000010
ENDCHAR
STARTCHAR R
ENCODING 82
SWIDTH 530 0
DWIDTH 11 0
BBX 10 14 1 0
BITMAP
7FFFFEA200
7FA89BFD10
7F50008F70
7F50002FA0
7F50001FB0
7F50005F90
7F5004DF30
7FFFFFF600
7FA88FB000
7F500BF300
7F5004FA00
7F5000CF20
7F50005F90
7F50000DF2
ENDCHAR
STARTCHAR S
ENCODING 83
SWIDTH 518 0
DWIDTH 10 0
BBX 10 14 0 0
BITMAP
002AEFC600
02EFA9DF80
09F6000CF2
0CF10006F7
0AF4000152
05FD500000
006EFD8100
00028EFE50
0000006EE2
15300007F6
1FB00004F8
0BF40009F5
03EFA9BFC0
0029EED810
ENDCHAR
STARTCHAR T
ENCODING 84
SWIDTH 520 0
DWIDTH 10 0
BBX 10 14 0 0
BITMAP
6FFFFFFFFD
3888DF9887
0000AF2000
0000AF2000
0000AF2000
0000AF2000
0000AF2000
0000AF2000
0000AF2000
0000AF2000
0000AF2000
0000AF2000
0000AF2000
0000AF2000
ENDCHAR
STARTCHAR U
ENCODING 85
SWIDTH 561 0
DWIDTH 11 0
BBX 9 14 1 0
BITMAP
BF10000CF0
BF10000CF0
BF10000CF0
BF10000CF0
BF10000CF0
BF10000CF0
BF10000CF0
BF10000CF0
BF10000CF0
BF10000CF0
AF20000DE0
7F80004FA0
1DFB9AFE30
019DFEA300
ENDCHAR
STARTCHAR V
ENCODING 86
SWIDTH 560 0
DWIDTH 11 0
BBX 11 14 0 0
BITMAP
7F8000005FA0
2FC000009F50
0CF10000DF10
07F50002FB00
03FA0007F600
00DE000BF100
008F301FB000
003F805F7000
000EC09F2000
0009F1DC0000
0004F8F70000
0000EFF30000
0000AFD00000
00005F800000
ENDCHAR
STARTCHAR W
ENCODING 87
SWIDTH 761 0
DWIDTH 15 0
BBX 15 14 0 0
BITMAP
3F90002F90003F90
0FB0005FC0005F60
0CE0009FF1008F30
09F200CCF400BF00
06F501F6E700DC00
03F704F3BB01F900
00FA08E07E04F600
00CD0BB04F37F300
009F1E701F69F000
006F7F300C9CC000
003FCE0008DE9000
000FFB0005FF6000
000CF80001FF3000
0009F40000DE0000
ENDCHAR
STARTCHAR X
ENCODING 88
SWIDTH 550 0
DWIDTH 11 0
BBX 11 14 0 0
BITMAP
1EF10001EE10
07F80008F700
00DE101EE100
006F807F7000
000CE1ED0000
0005FCF60000
0000CFD00000
0000CFD00000
0006FBF70000
000DE1DE1000
007F706F8000
01EE100EE100
08F80007F900
1EE10001EF20
ENDCHAR
STARTCHAR Y
ENCODING 89
SWIDTH 524 0
DWIDTH 10 0
BBX 10 14 0 0
BITMAP
7F800001FE
1EE00007F7
08F5000DE1
02FC005F80
00AF30BF20
003F92FA00
000BE9F300
0004FFB000
0000CF4000
0000AF2000
0000AF2000
0000AF2000
0000AF2000
0000AF2000
ENDCHAR
STARTCHAR Z
ENCODING 90
SWIDTH 522 0
DWIDTH 10 0
BBX 10 14 0 0
BITMAP
1FFFFFFFF5
0888888DF4
0000003FB0
000000CF20
000006F800
00001ED100
00008F5000
0002FC0000
000BF30000
005F900000
00DE100000
07F7000000
1EF8888885
2FFFFFFFF9
ENDCHAR
STARTCHAR bracketleft
ENCODING 91
SWIDTH 250 0
DWIDTH 5 0
BBX 4 19 1 -3
BITMAP
AFF9
AF84
AF10
AF10
AF10
AF10
AF10
AF10
AF10
AF10
AF10
AF10
AF10
AF10
AF10
AF10
AF10
AF84
AFF9
ENDCHAR
STARTCHAR backslash
ENCODING 92
SWIDTH 369 0
DWIDTH 7 0
BBX 7 15 0 -1
BITMAP
5F400000
1E900000
0AE00000
05F40000
01E90000
00AE0000
005F4000
001E9000
000AE000
0005F400
0001F900
0000AE00
00005F40
00001F90
00000AE0
ENDCHAR
STARTCHAR bracketright
ENCODING 93
SWIDTH 250 0
DWIDTH 5 0
BBX 4 19 0 -3
BITMAP
BFF8
59F8
03F8
03F8
03F8
03F8
03F8
03F8
03F8
03F8
03F8
03F8
03F8
03F8
03F8
03F8
03F8
59F8
BFF8
ENDCHAR
STARTCHAR asciicircum
ENCODING 94
SWIDTH 371 0
DWIDTH 7 0
BBX 7 7 0 7
BITMAP
001F7000
006FC000
00BDF200
02F6E800
07F1AD00
0CB05F30
2F601E80
ENDCHAR
STARTCHAR underscore
ENCODING 95
SWIDTH 404 0
DWIDTH 8 0
BBX 8 2 0 -2
BITMAP
CFFFFFFD
57777776
ENDCHAR
STARTCHAR grave
ENCODING 96
SWIDTH 309 0
DWIDTH 6 0
BBX 5 3 0 12
BITMAP
2EE200
03FC10
005D40
ENDCHAR
STARTCHAR a
ENCODING 97
SWIDTH 479 0
DWIDTH 10 0
BBX 8 11 1 0
BITMAP
04BEEA10
4FD89FB0
8D200AF1
000008F3
02ADFFF3
3FD74AF3
AF2008F3
DD0008F3
CE101CF3
7FC9DEF4
08DE96F7
ENDCHAR
STARTCHAR b
ENCODING 98
SWIDTH 493 0
DWIDTH 10 0
BBX 8 15 1 0
BITMAP
BF000000
BF000000
BF000000
BF000000
BF4CFD50
BFEA9EF3
BF5004F9
BF0000DD
BF0000CE
BF0000CE
BF0000CE
BF0000ED
BF5004F9
BFE99EF3
BE4CFD50
ENDCHAR
STARTCHAR c
ENCODING 99
SWIDTH 461 0
DWIDTH 9 0
BBX 9 11 0 0
BITMAP
004BEEA200
03FE99FC00
0AF2007F40
0EC0002D60
1FB0000000
1FA0000000
1FA0000000
0EC0001840
0AF2006F50
03FE89EC00
004BEE9100
ENDCHAR
STARTCHAR d
ENCODING 100
SWIDTH 496 0
DWIDTH 10 0
BBX 9 15 0 0
BITMAP
0000003F80
0000003F80
0000003F80
0000003F80
005DFC6F80
04FE9AEF80
0BF3006F80
0EC0003F80
1FA0003F80
1FA0003F80
1FA0003F80
0EC0003F80
0BF3006F80
04FE9AEF80
005DFC4F80
ENDCHAR
STARTCHAR e
ENCODING 101
SWIDTH 468 0
DWIDTH 9 0
BBX 8 11 1 0
BITMAP
03BEEA20
2ED89FD0
9F2007F5
DC0003F8
FFFFFFF9
FD777774
FB000000
ED000000
AF400060
3FF98CF4
04BEEC50
ENDCHAR
STARTCHAR f
ENCODING 102
SWIDTH 316 0
DWIDTH 6 0
BBX 7 15 0 0
BITMAP
0019EE10
009FB910
00DE0000
00EC0000
5FFFF900
26FD6300
00EC0000
00EC0000
00EC0000
00EC0000
00EC0000
00EC0000
00EC0000
00EC0000
00EC0000
ENDCHAR
STARTCHAR g
ENCODING 103
SWIDTH 492 0
DWIDTH 10 0
BBX 9 15 0 -4
BITMAP
005DFC3F90
04FE9AEF90
0BF3006F90
0EC0002F90
0FB0002F90
1FA0002F90
0FB0002F90
0EC0002F90
0BF3006F90
04FE9AEF90
005DFC5F90
0000003F80
0040008F50
04FB7AFD00
005BEEA100
ENDCHAR
STARTCHAR h
ENCODING 104
SWIDTH 482 0
DWIDTH 10 0
BBX 8 15 1 0
BITMAP
BF000000
BF000000
BF000000
BF000000
BF4CEC30
BFEAAFD0
BF6009F3
BF0006F5
BF0005F6
BF0005F6
BF0005F6
BF0005F6
BF0005F6
BF0005F6
BF0005F6
ENDCHAR
STARTCHAR i
ENCODING 105
SWIDTH 229 0
DWIDTH 5 0
BBX 3 15 1 0
BITMAP
7F20
7E20
0000
0000
9F20
9F20
9F20
9F20
9F20
9F20
9F20
9F20
9F20
9F20
9F20
ENDCHAR
STARTCHAR j
ENCODING 106
SWIDTH 223 0
DWIDTH 4 0
BBX 5 19 -1 -4
BITMAP
00AE00
009D00
000000
000000
00AF10
00AF10
00AF10
00AF10
00AF10
00AF10
00AF10
00AF10
00AF10
00AF10
00AF10
00AF10
00BF00
29FC00
3ED300
ENDCHAR
STARTCHAR k
ENCODING 107
SWIDTH 450 0
DWIDTH 9 0
BBX 8 15 1 0
BITMAP
BF000000
BF000000
BF000000
BF000000
BF001EE2
BF00AF40
BF05F800
BF2EC000
BFAF3000
BFFF9000
BFADF300
BF14FB00
BF00AF50
BF002ED1
BF0007F8
ENDCHAR
STARTCHAR l
ENCODING 108
SWIDTH 229 0
DWIDTH 5 0
BBX 3 15 1 0
BITMAP
9F20
9F20
9F20
9F20
9F20
9F20
9F20
9F20
9F20
9F20
9F20
9F20
9F20
9F20
9F20
ENDCHAR
STARTCHAR m
ENCODING 109
SWIDTH 752 0
DWIDTH 15 0
BBX 13 11 1 0
BITMAP
BE5CFC32BED600
BFE9AFDDB9EF30
BF4009FC004F90
BF0006F7000FB0
BF0005F6000FB0
BF0005F6000FB0
BF0005F6000FB0
BF0005F6000FB0
BF0005F6000FB0
BF0005F6000FB0
BF0005F6000FB0
ENDCHAR
STARTCHAR n
ENCODING 110
SWIDTH 483 0
DWIDTH 10 0
BBX 8 11 1 0
BITMAP
BE3CEC30
BFEAAFD0
BF6009F3
BF0006F5
BF0005F6
BF0005F6
BF0005F6
BF0005F6
BF0005F6
BF0005F6
BF0005F6
ENDCHAR
STARTCHAR o
ENCODING 111
SWIDTH 501 0
DWIDTH 10 0
BBX 10 11 0 0
BITMAP
002AEEB200
02EF99FE20
09F5005FA0
0ED0000DE0
1FB0000AF1
1FA00009F2
1FB0000AF1
0ED0000CE0
09F5003FA0
02EF99EE20
002BEEB300
ENDCHAR
STARTCHAR p
ENCODING 112
SWIDTH 493 0
DWIDTH 10 0
BBX 8 15 1 -4
BITMAP
BD4DFD50
BFE9AFF3
BF3005F9
BF0000EC
BF0000DD
BF0000CE
BF0000DD
BF0000EC
BF3005F9
BFE89EF3
BF5DFC40
BF000000
BF000000
BF000000
BF000000
ENDCHAR
STARTCHAR q
ENCODING 113
SWIDTH 500 0
DWIDTH 10 0
BBX 9 15 0 -4
BITMAP
006DFC4F80
04FE99EF80
0BF3005F80
0EC0003F80
1FA0003F80
1FA0003F80
1FA0003F80
0EC0003F80
0BF3005F80
04FE89EF80
005DFC6F80
0000003F80
0000003F80
0000003F80
0000003F80
ENDCHAR
STARTCHAR r
ENCODING 114
SWIDTH 304 0
DWIDTH 6 0
BBX 5 11 1 0
BITMAP
BF5E90
BFFC80
BF7000
BF0000
BF0000
BF0000
BF0000
BF0000
BF0000
BF0000
BF0000
ENDCHAR
STARTCHAR s
ENCODING 115
SWIDTH 455 0
DWIDTH 9 0
BBX 8 11 1 0
BITMAP
04CED700
4FD8CF80
9F200DE0
AF300230
4FE81000
04CFF810
0004CFA0
54000CF1
EE000AF1
7FC8AFA0
05CED910
ENDCHAR
STARTCHAR t
ENCODING 116
SWIDTH 295 0
DWIDTH 6 0
BBX 6 14 0 0
BITMAP
02F800
02F800
02F800
CFFFF2
57FB61
02F800
02F800
02F800
02F800
02F800
02F800
02F900
00EE91
005EE2
ENDCHAR
STARTCHAR u
ENCODING 117
SWIDTH 483 0
DWIDTH 10 0
BBX 8 11 1 0
BITMAP
BF0006F5
BF0006F5
BF0006F5
BF0006F5
BF0006F5
BF0006F5
BF0006F5
AF0006F5
8F400AF5
3FD9CFF5
07EFB7F5
ENDCHAR
STARTCHAR v
ENCODING 118
SWIDTH 427 0
DWIDTH 9 0
BBX 8 11 0 0
BITMAP
6F5000CE
2F9001F9
0CC005F5
08F108F1
04F50CB0
00E91F70
00AD4F30
006F9E00
002FF900
000CF500
0008F100
ENDCHAR
STARTCHAR w
ENCODING 119
SWIDTH 649 0
DWIDTH 13 0
BBX 13 11 0 0
BITMAP
6F4005F4005F50
2F8009F8008F20
0EB00DFC00BD00
0AE02FCF10EA00
07F25F4F52F600
03F59D0E95F300
00F9D90AC8E000
00BEF506FDB000
008FF102FF7000
004FC000DF4000
001F80009F0000
ENDCHAR
STARTCHAR x
ENCODING 120
SWIDTH 438 0
DWIDTH 9 0
BBX 9 11 0 0
BITMAP
2FC001FD00
09F308F500
02FA1EC000
009F8F5000
001EFC0000
000AF60000
002FFC0000
00AF7F6000
03FA0DD000
0AF307F600
3FB001EE10
ENDCHAR
STARTCHAR y
ENCODING 121
SWIDTH 416 0
DWIDTH 8 0
BBX 8 15 0 -4
BITMAP
8F5001FC
3F9004F8
0ED008F3
09F20BE0
05F50FA0
01F94F60
00BD7F10
007FDC00
002FF800
000DF400
0009E000
000CA000
003F5000
19ED1000
2EC30000
ENDCHAR
STARTCHAR z
ENCODING 122
SWIDTH 438 0
DWIDTH 9 0
BBX 8 11 0 0
BITMAP
1FFFFFFC
08888AFA
00000CE2
00006F70
0001ED00
0009F400
003FA000
00CF2000
06F80000
0EF87777
1FFFFFFF
ENDCHAR
STARTCHAR braceleft
ENCODING 123
SWIDTH 306 0
DWIDTH 6 0
BBX 6 20 0 -4
BITMAP
000197
000BE4
004F70
007F30
009F20
009F20
009F10
00BF00
04FB00
4FE200
2AF600
00DD00
00AF10
009F20
009F20
009F20
007F30
003F80
000AF5
000087
ENDCHAR
STARTCHAR bar
ENCODING 124
SWIDTH 243 0
DWIDTH 5 0
BBX 3 17 1 -3
BITMAP
4F30
4F30
4F30
4F30
4F30
4F30
4F30
4F30
4F30
4F30
4F30
4F30
4F30
4F30
4F30
4F30
4F30
ENDCHAR
STARTCHAR braceright
ENCODING 125
SWIDTH 306 0
DWIDTH 6 0
BBX 6 20 0 -4
BITMAP
691000
3EC000
06F500
02F900
00FB00
00FB00
00FB00
00EC00
009F50
001CF6
004FB3
00CE00
00EB00
00FB00
00FB00
00FA00
02F800
07F400
4EB000
691000
ENDCHAR
STARTCHAR asciitilde
ENCODING 126
SWIDTH 589 0
DWIDTH 12 0
BBX 10 4 1 4
BITMAP
0288200043
1EFFE501E7
8F33DFBCF2
BC001AED40
ENDCHAR
STARTCHAR uni00A0
ENCODING 160
SWIDTH 229 0
DWIDTH 5 0
BBX 1 1 0 0
BITMAP
00
ENDCHAR
STARTCHAR exclamdown
ENCODING 161
SWIDTH 231 0
DWIDTH 5 0
BBX 3 15 1 -4
BITMAP
7E20
7F20
0000
0000
5C20
7F20
7F20
7F30
7F30
7F30
7F30
8F30
8F40
8F40
8F40
ENDCHAR
STARTCHAR cent
ENCODING 162
SWIDTH 479 0
DWIDTH 10 0
BBX 8 17 1 -3
BITMAP
00032000
000EC000
000EC000
02BFFB20
1DE88ED0
7F5006F5
CE0001B6
EC000000
FB000000
EC000000
CE000063
7F4005F6
1EE77ED1
03CFFB20
000EC000
000EC000
00044000
ENDCHAR
STARTCHAR sterling
ENCODING 163
SWIDTH 510 0
DWIDTH 10 0
BBX 10 14 0 0
BITMAP
0003BED910
002EE9CFA0
009F500BF2
00CF0005A3
00DE000000
00DE000000
00DE000000
1FFFFF8000
08DF884000
00BF100000
00BF100000
00DE000000
09FD888884
0FFFFFFFF8
ENDCHAR
STARTCHAR currency
ENCODING 164
SWIDTH 712 0
DWIDTH 14 0
BBX 13 13 1 0
BITMAP
01000000000100
7E35BEFC71AC10
7FFFFCBEFFFC10
0BFB20007FF200
2FC0000008F700
7F50000001EC00
9F10000000CE00
9F10000000CE00
7F50000001EC00
2FC0000008F600
0CFB20007FF300
AFEFFBBEFEFE20
4B15BEFD717A00
ENDCHAR
STARTCHAR yen
ENCODING 165
SWIDTH 463 0
DWIDTH 9 0
BBX 9 14 0 0
BITMAP
7F80003FC0
1FD0009F50
0AF401ED00
03FA06F700
00CF1BF100
006F9FA000
000EFF3000
0CFFFFFF10
0337F93300
0004F80000
0CFFFFFF10
0337F93300
0004F80000
0004F80000
ENDCHAR
STARTCHAR brokenbar
ENCODING 166
SWIDTH 239 0
DWIDTH 5 0
BBX 3 17 1 -3
BITMAP
8F40
8F40
8F40
8F40
8F40
8F40
8F40
0000
0000
8F40
8F40
8F40
8F40
8F40
8F40
8F40
8F40
ENDCHAR
STARTCHAR section
ENCODING 167
SWIDTH 537 0
DWIDTH 11 0
BBX 10 19 0 -5
BITMAP
0029DFD800
02EF98CFA0
08F5000BF3
0AF10005F6
09F5000121
03FE820000
01DFFFB500
0AF56BFFA0
0FB0003CF5
0EC00003F9
0BF70002F9
02EFE83AF5
0018EFFF80
000005CFC0
0220000BF3
1FB00007F4
0CF3000BF2
04FE98CFA0
004BEEC700
ENDCHAR
STARTCHAR dieresis
ENCODING 168
SWIDTH 417 0
DWIDTH 8 0
BBX 7 2 1 12
BITMAP
DE109E30
CD009E20
ENDCHAR
STARTCHAR copyright
ENCODING 169
SWIDTH 785 0
DWIDTH 16 0
BBX 15 14 0 0
BITMAP
000028CEEB610000
0006FA5347DD3000
007E40000008E200
03E303BED9109C00
09902EA56E901E40
0E308E0007B00980
1F10AB00000007A0
1F10AB00000007A0
0E408E0007B00980
09902FA56E901E30
03E404CED9109C00
007E40000008E200
0006FA5346CD3000
000028CEEB610000
ENDCHAR
STARTCHAR ordfeminine
ENCODING 170
SWIDTH 395 0
DWIDTH 8 0
BBX 6 7 1 7
BITMAP
08EE80
5F99F4
1301F7
1AEFF7
8E42F7
8F78F7
2CEAE9
ENDCHAR
STARTCHAR guillemotleft
ENCODING 171
SWIDTH 417 0
DWIDTH 8 0
BBX 7 8 1 1
BITMAP
01D63F30
08D0CA00
3F56F200
CD1E9000
CC1E9000
3F56F200
08D0CA00
01D63F30
ENDCHAR
STARTCHAR logicalnot
ENCODING 172
SWIDTH 487 0
DWIDTH 10 0
BBX 8 4 1 4
BITMAP
CFFFFFF2
79999DF2
000009F2
000009F2
ENDCHAR
STARTCHAR uni00AD
ENCODING 173
SWIDTH 248 0
DWIDTH 5 0
BBX 5 2 0 5
BITMAP
8FFF80
477740
ENDCHAR
STARTCHAR registered
ENCODING 174
SWIDTH 786 0
DWIDTH 16 0
BBX 15 14 0 0
BITMAP
000028CEEB610000
0007FA5347DD3000
007E40000008E200
03F30FFFEA209C00
0A900F845CA01E30
0E300F601BB00980
1F100FFFFE2007A0
1F100F845E7007A0
0E300F600AB00980
09900F6009C01E30
03E30F6008D09C00
007E40000008E200
0006FA5347DD3000
000028CEEB610000
ENDCHAR
STARTCHAR macron
ENCODING 175
SWIDTH 414 0
DWIDTH 8 0
BBX 7 2 1 12
BITMAP
9FFFFF10
46666600
ENDCHAR
STARTCHAR degree
ENCODING 176
SWIDTH 373 0
DWIDTH 7 0
BBX 6 6 1 8
BITMAP
09EC30
6E59D0
A800F3
8C15F1
1CFF60
003100
ENDCHAR
STARTCHAR plusminus
ENCODING 177
SWIDTH 469 0
DWIDTH 9 0
BBX 8 12 1 0
BITMAP
000DA000
000DA000
000DA000
000DA000
FFFFFFF8
777EC774
000DA000
000DA000
000DA000
00043000
57777771
AFFFFFF3
ENDCHAR
STARTCHAR uni00B2
ENCODING 178
SWIDTH 329 0
DWIDTH 7 0
BBX 6 8 0 6
BITMAP
05DEA0
1EA6F6
2920E8
0004F4
002EA0
01DC10
0BE543
2FFFFD
ENDCHAR
STARTCHAR uni00B3
ENCODING 179
SWIDTH 329 0
DWIDTH 7 0
BBX 6 8 0 6
BITMAP
06DEA1
2F95F8
0002E7
00AFD1
0014E7
2710CA
2F95E7
06DE90
ENDCHAR
STARTCHAR acute
ENCODING 180
SWIDTH 313 0
DWIDTH 6 0
BBX 5 3 1 12
BITMAP
04FC10
2ED100
6D2000
ENDCHAR
STARTCHAR mu
ENCODING 181
SWIDTH 498 0
DWIDTH 10 0
BBX 8 15 1 -4
BITMAP
8F2003F8
8F2003F8
8F2003F8
8F2003F8
8F2003F8
8F2003F8
8F3003F8
8F4003F8
8F7006F8
8FE89EF8
8FAED5F8
8F200000
8F200000
8F200000
8F200000
ENDCHAR
STARTCHAR paragraph
ENCODING 182
SWIDTH 434 0
DWIDTH 9 0
BBX 8 15 0 0
BITMAP
00013330
008FFFF2
08FFFFF2
1FFFFFF2
4FFFFFF2
4FFFFFF2
3FFFFFF2
0DFFFFF2
05FFFFF2
004BDFF2
000009F2
000009F2
000009F2
000009F2
000009F2
ENDCHAR
STARTCHAR periodcentered
ENCODING 183
SWIDTH 243 0
DWIDTH 5 0
BBX 3 3 1 5
BITMAP
6E30
8F50
0200
ENDCHAR
STARTCHAR cedilla
ENCODING 184
SWIDTH 229 0
DWIDTH 5 0
BBX 3 4 1 -4
BITMAP
A900
3C60
1BB0
BC30
ENDCHAR
STARTCHAR uni00B9
ENCODING 185
SWIDTH 329 0
DWIDTH 7 0
BBX 4 8 1 6
BITMAP
27C5
CDF5
11F5
01F5
01F5
01F5
01F5
01F5
ENDCHAR
STARTCHAR ordmasculine
ENCODING 186
SWIDTH 402 0
DWIDTH 8 0
BBX 6 7 1 7
BITMAP
08EE80
6F88F7
BC00BC
DA009D
BC00BC
6F88F7
08EE80
ENDCHAR
STARTCHAR guillemotright
ENCODING 187
SWIDTH 417 0
DWIDTH 8 0
BBX 7 8 1 1
BITMAP
B90C8000
3F34F200
0BC0CB00
03F64F60
03F64F60
0BC0CB00
3F34F300
B90C8000
ENDCHAR
STARTCHAR onequarter
ENCODING 188
SWIDTH 637 0
DWIDTH 13 0
BBX 12 14 0 0
BITMAP
038D00000000
3FDF00006600
117F0001E500
007F0007C000
007F001E4000
007F008C0000
007F01E409F2
007F08B03FF2
00001E40BCF2
00008B05D5F2
0002E30D54F2
0009A05FFFFF
000A301447F6
0000000004F2
ENDCHAR
STARTCHAR onehalf
ENCODING 189
SWIDTH 677 0
DWIDTH 14 0
BBX 13 14 0 0
BITMAP
039D0000000000
3FDF0000B20000
117F0005E10000
007F000D700000
007F005D000000
007F00D6000000
007F06D19ED500
007F0D66F6AF10
00006D06804F30
0000D50000AE00
0007C00006F500
001E50004F7000
002A0003EB4420
00000008FFFF70
ENDCHAR
STARTCHAR threequarters
ENCODING 190
SWIDTH 673 0
DWIDTH 13 0
BBX 12 14 1 0
BITMAP
3CED40000000
AC5BE0007600
0009D001E500
04FF5007C000
002AD01E4000
4305F18C0000
BD5BD1E41DC0
2CEC38B08FC0
00001E32ECC0
00009B0A99C0
0002F34E19C0
0009A0AFFFFA
000A30344BD3
0000000009C0
ENDCHAR
STARTCHAR questiondown
ENCODING 191
SWIDTH 421 0
DWIDTH 8 0
BBX 8 15 0 -4
BITMAP
0008D100
0009E100
00000000
00000000
0008C100
000CF000
003FA000
01DE2000
08F60000
1EC00000
4F800000
4F7003F8
2FB008F5
0AFBAFC0
019DEB20
ENDCHAR
STARTCHAR Agrave
ENCODING 192
SWIDTH 576 0
DWIDTH 12 0
BBX 11 18 0 0
BITMAP
000CF5000000
0001DE200000
00003D600000
000000000000
00002FA00000
00007FF10000
0000CEF50000
0002F7EA0000
0007F2AE1000
000CD05F5000
002F901FA000
007F400BE100
00CE0007F500
02FFFFFFFA00
07FA8888DE00
0BF100008F50
1FB000003FA0
6F6000000DE0
ENDCHAR
STARTCHAR Aacute
ENCODING 193
SWIDTH 576 0
DWIDTH 12 0
BBX 11 18 0 0
BITMAP
000000AF7000
000007F90000
00000BA00000
000000000000
00002FA00000
00007FF10000
0000CEF50000
0002F7EA0000
0007F2AE1000
000CD05F5000
002F901FA000
007F400BE100
00CE0007F500
02FFFFFFFA00
07FA8888DE00
0BF100008F50
1FB000003FA0
6F6000000DE0
ENDCHAR
STARTCHAR Acircumflex
ENCODING 194
SWIDTH 576 0
DWIDTH 12 0
BBX 11 18 0 0
BITMAP
00003EB00000
0002DAE90000
0006C15C2000
000000000000
00002FA00000
00007FF10000
0000CEF50000
0002F7EA0000
0007F2AE1000
000CD05F5000
002F901FA000
007F400BE100
00CE0007F500
02FFFFFFFA00
07FA8888DE00
0BF100008F50
1FB000003FA0
6F6000000DE0
ENDCHAR
STARTCHAR Atilde
ENCODING 195
SWIDTH 576 0
DWIDTH 12 0
BBX 11 18 0 0
BITMAP
000152045000
000BFE7C9000
001F35DC2000
000000000000
00002FA00000
00007FF10000
0000CEF50000
0002F7EA0000
0007F2AE1000
000CD05F5000
002F901FA000
007F400BE100
00CE0007F500
02FFFFFFFA00
07FA8888DE00
0BF100008F50
1FB000003FA0
6F6000000DE0
ENDCHAR
STARTCHAR Adieresis
ENCODING 196
SWIDTH 576 0
DWIDTH 12 0
BBX 11 17 0 0
BITMAP
003F901EC000
003E901DC000
000000000000
00002FA00000
00007FF10000
0000CEF50000
0002F7EA0000
0007F2AE1000
000CD05F5000
002F901FA000
007F400BE100
00CE0007F500
02FFFFFFFA00
07FA8888DE00
0BF100008F50
1FB000003FA0
6F6000000DE0
ENDCHAR
STARTCHAR Aring
ENCODING 197
SWIDTH 576 0
DWIDTH 12 0
BBX 11 19 0 0
BITMAP
00008DC30000
0003C04C0000
0003C04C0000
00008DC30000
000000000000
00002FA00000
00007FF10000
0000CEF50000
0002F7EA0000
0007F2AE1000
000CD05F5000
002F901FA000
007F400BE100
00CE0007F500
02FFFFFFFA00
07FA8888DE00
0BF100008F50
1FB000003FA0
6F6000000DE0
ENDCHAR
STARTCHAR AE
ENCODING 198
SWIDTH 812 0
DWIDTH 16 0
BBX 16 14 0 0
BITMAP
0000001EFFFFFFF4
0000009FFC777772
000002FBFA000000
000009F3FA000000
00002FB0FB000000
0000AF30FB000000
0002FB00EFFFFF90
000AF400EE777740
003FC000DD000000
00AFFFFFFE000000
03FEBBBBEE000000
0BF50000CF000000
4FC00000BF777775
BF500000AFFFFFFC
ENDCHAR
STARTCHAR Ccedilla
ENCODING 199
SWIDTH 566 0
DWIDTH 11 0
BBX 10 18 1 -4
BITMAP
004BEEC500
06FE99EF60
2FD1001EE1
7F600009F4
AF200005C5
BF10000000
CF00000000
CF00000000
BF10000000
AF200004B4
7F600008F4
2FC1001EE1
07FD99EF50
005CFEB400
0000D60000
00005D3000
00002D7000
0000EB1000
ENDCHAR
STARTCHAR Egrave
ENCODING 200
SWIDTH 496 0
DWIDTH 10 0
BBX 9 18 1 0
BITMAP
05FC000000
007F800000
000AB10000
0000000000
7FFFFFFF10
7FA8888810
7F50000000
7F50000000
7F50000000
7F50000000
7FFFFFF500
7FA8888300
7F50000000
7F50000000
7F50000000
7F50000000
7FA8888810
7FFFFFFF30
ENDCHAR
STARTCHAR Eacute
ENCODING 201
SWIDTH 496 0
DWIDTH 10 0
BBX 9 18 1 0
BITMAP
00003FD100
0001DE2000
0005D30000
0000000000
7FFFFFFF10
7FA8888810
7F50000000
7F50000000
7F50000000
7F50000000
7FFFFFF500
7FA8888300
7F50000000
7F50000000
7F50000000
7F50000000
7FA8888810
7FFFFFFF30
ENDCHAR
STARTCHAR Ecircumflex
ENCODING 202
SWIDTH 496 0
DWIDTH 10 0
BBX 9 18 1 0
BITMAP
000AF40000
008E9E2000
01C60C7000
0000000000
7FFFFFFF10
7FA8888810
7F50000000
7F50000000
7F50000000
7F50000000
7FFFFFF500
7FA8888300
7F50000000
7F50000000
7F50000000
7F50000000
7FA8888810
7FFFFFFF30
ENDCHAR
STARTCHAR Edieresis
ENCODING 203
SWIDTH 496 0
DWIDTH 10 0
BBX 9 17 1 0
BITMAP
0BE207F400
0AE207E400
0000000000
7FFFFFFF10
7FA8888810
7F50000000
7F50000000
7F50000000
7F50000000
7FFFFFF500
7FA8888300
7F50000000
7F50000000
7F50000000
7F50000000
7FA8888810
7FFFFFFF30
ENDCHAR
STARTCHAR Igrave
ENCODING 204
SWIDTH 250 0
DWIDTH 5 0
BBX 5 18 -1 0
BITMAP
3EE200
04FB00
007D30
000000
006F60
006F60
006F60
006F60
006F60
006F60
006F60
006F60
006F60
006F60
006F60
006F60
006F60
006F60
ENDCHAR
STARTCHAR Iacute
ENCODING 205
SWIDTH 250 0
DWIDTH 5 0
BBX 5 18 1 0
BITMAP
01EE30
0BF400
3D6000
000000
6F6000
6F6000
6F6000
6F6000
6F6000
6F6000
6F6000
6F6000
6F6000
6F6000
6F6000
6F6000
6F6000
6F6000
ENDCHAR
STARTCHAR Icircumflex
ENCODING 206
SWIDTH 250 0
DWIDTH 5 0
BBX 5 18 0 0
BITMAP
07F600
5F9F40
AA0AA0
000000
06F600
06F600
06F600
06F600
06F600
06F600
06F600
06F600
06F600
06F600
06F600
06F600
06F600
06F600
ENDCHAR
STARTCHAR Idieresis
ENCODING 207
SWIDTH 250 0
DWIDTH 5 0
BBX 7 17 -1 0
BITMAP
7F504F80
6E404E70
00000000
006F6000
006F6000
006F6000
006F6000
006F6000
006F6000
006F6000
006F6000
006F6000
006F6000
006F6000
006F6000
006F6000
006F6000
ENDCHAR
STARTCHAR Eth
ENCODING 208
SWIDTH 585 0
DWIDTH 12 0
BBX 11 14 0 0
BITMAP
03FFFFD81000
03FC89BFD200
03F90005FB00
03F90000AF20
03F900006F50
03F900005F60
CFFFF7005F70
68FC73005F70
03F900005F60
03F900006F50
03F90000BF20
03F90005FB00
03FC88BFD200
03FFFFD81000
ENDCHAR
STARTCHAR Ntilde
ENCODING 209
SWIDTH 619 0
DWIDTH 12 0
BBX 10 18 1 0
BITMAP
0004301800
006FFA9E00
00B82BE500
0000000000
7F900000EC
7FF20000EC
7FFA0000EC
7FDF3000EC
7F6EB000EC
7F57F300EC
7F51EB00EC
7F506F40EC
7F500DC0EC
7F5005F5EC
7F5000CDEC
7F50004FFC
7F50000BFC
7F500004FC
ENDCHAR
STARTCHAR Ograve
ENCODING 210
SWIDTH 600 0
DWIDTH 12 0
BBX 10 18 1 0
BITMAP
009F800000
000BF50000
0001C90000
0000000000
005CEEC500
07FEAAEF70
2FD1001DF2
7F600005F7
AF200002FA
BF000000FB
CF000000FC
CF000000FC
CF000000FB
AF200001FA
7F600005F7
2FD1001DF2
07FEAAEF70
005CEEC500
ENDCHAR
STARTCHAR Oacute
ENCODING 211
SWIDTH 600 0
DWIDTH 12 0
BBX 10 18 1 0
BITMAP
000007FA00
00003FC100
00008C1000
0000000000
005CEEC500
07FEAAEF70
2FD1001DF2
7F600005F7
AF200002FA
BF000000FB
CF000000FC
CF000000FC
CF000000FB
AF200001FA
7F600005F7
2FD1001DF2
07FEAAEF70
005CEEC500
ENDCHAR
STARTCHAR Ocircumflex
ENCODING 212
SWIDTH 600 0
DWIDTH 12 0
BBX 10 18 1 0
BITMAP
0001DD1000
000BCCC000
004D32D400
0000000000
005CEEC500
07FEAAEF70
2FD1001DF2
7F600005F7
AF200002FA
BF000000FB
CF000000FC
CF000000FC
CF000000FB
AF200001FA
7F600005F7
2FD1001DF2
07FEAAEF70
005CEEC500
ENDCHAR
STARTCHAR Otilde
ENCODING 213
SWIDTH 600 0
DWIDTH 12 0
BBX 10 18 1 0
BITMAP
0004302700
007FF9AC00
00C63CE400
0000000000
005CEEC500
07FEAAEF70
2FD1001DF2
7F600005F7
AF200002FA
BF000000FB
CF000000FC
CF000000FC
CF000000FB
AF200001FA
7F600005F7
2FD1001DF2
07FEAAEF70
005CEEC500
ENDCHAR
STARTCHAR Odieresis
ENCODING 214
SWIDTH 600 0
DWIDTH 12 0
BBX 10 17 1 0
BITMAP
01ED00BE20
00DC00AE10
0000000000
005CEEC500
07FEAAEF70
2FD1001DF2
7F600005F7
AF200002FA
BF000000FB
CF000000FC
CF000000FC
CF000000FB
AF200001FA
7F600005F7
2FD1001DF2
07FEAAEF70
005CEEC500
ENDCHAR
STARTCHAR multiply
ENCODING 215
SWIDTH 470 0
DWIDTH 9 0
BBX 8 9 1 2
BITMAP
760002A0
CF401DE2
2EE2BF50
04FEF800
009FD000
04FFF700
2EE2BF50
CF401DE2
760003A0
ENDCHAR
STARTCHAR Oslash
ENCODING 216
SWIDTH 600 0
DWIDTH 12 0
BBX 10 16 1 -1
BITMAP
0000000025
003AEEB4B8
04EFABEFE1
0DE3002FE1
5F80006FF6
AF3001D8FA
CF0007C0FC
DE001E40ED
DE008B00ED
CF02F300FC
AF2AA002FA
6FAF2006F6
1EF9002EE1
07FEAAEF50
0C9AEEB400
3A00000000
ENDCHAR
STARTCHAR Ugrave
ENCODING 217
SWIDTH 561 0
DWIDTH 11 0
BBX 9 18 1 0
BITMAP
02DE300000
003ED10000
0005D40000
0000000000
BF10000CF0
BF10000CF0
BF10000CF0
BF10000CF0
BF10000CF0
BF10000CF0
BF10000CF0
BF10000CF0
BF10000CF0
BF10000CF0
AF20000DE0
7F80004FA0
1DFB9AFE30
019DFEA300
ENDCHAR
STARTCHAR Uacute
ENCODING 218
SWIDTH 561 0
DWIDTH 11 0
BBX 9 18 1 0
BITMAP
00001CF400
00009F6000
0002C80000
0000000000
BF10000CF0
BF10000CF0
BF10000CF0
BF10000CF0
BF10000CF0
BF10000CF0
BF10000CF0
BF10000CF0
BF10000CF0
BF10000CF0
AF20000DE0
7F80004FA0
1DFB9AFE30
019DFEA300
ENDCHAR
STARTCHAR Ucircumflex
ENCODING 219
SWIDTH 561 0
DWIDTH 11 0
BBX 9 18 1 0
BITMAP
0005F80000
003E9F6000
008B08B100
0000000000
BF10000CF0
BF10000CF0
BF10000CF0
BF10000CF0
BF10000CF0
BF10000CF0
BF10000CF0
BF10000CF0
BF10000CF0
BF10000CF0
AF20000DE0
7F80004FA0
1DFB9AFE30
019DFEA300
ENDCHAR
STARTCHAR Udieresis
ENCODING 220
SWIDTH 561 0
DWIDTH 11 0
BBX 9 17 1 0
BITMAP
05F603F900
05E603E900
0000000000
BF10000CF0
BF10000CF0
BF10000CF0
BF10000CF0
BF10000CF0
BF10000CF0
BF10000CF0
BF10000CF0
BF10000CF0
BF10000CF0
AF20000DE0
7F80004FA0
1DFB9AFE30
019DFEA300
ENDCHAR
STARTCHAR Yacute
ENCODING 221
SWIDTH 524 0
DWIDTH 10 0
BBX 10 18 0 0
BITMAP
000003FD10
00001DE200
00005D3000
0000000000
7F800001FE
1EE00007F7
08F5000DE1
02FC005F80
00AF30BF20
003F92FA00
000BE9F300
0004FFB000
0000CF4000
0000AF2000
0000AF2000
0000AF2000
0000AF2000
0000AF2000
ENDCHAR
STARTCHAR Thorn
ENCODING 222
SWIDTH 515 0
DWIDTH 10 0
BBX 9 14 1 0
BITMAP
8F40000000
8F40000000
8F40000000
8FFFFD7000
8F978CF800
8F4000CF20
8F40006F50
8F40005F60
8F40008F40
8F4015ED00
8FFFFFE300
8F97751000
8F40000000
8F40000000
ENDCHAR
STARTCHAR germandbls
ENCODING 223
SWIDTH 521 0
DWIDTH 10 0
BBX 9 15 1 0
BITMAP
03CFD70000
1EE8CF6000
7F501EB000
9F100DC000
AF001F9000
BF008F3000
BF00DD0000
BF00ED0000
BF008F8000
BF000BF800
BF0001BF40
BF00003F80
BF01004F70
BF0CA8DF30
BF09DEC500
ENDCHAR
STARTCHAR agrave
ENCODING 224
SWIDTH 479 0
DWIDTH 10 0
BBX 8 15 1 0
BITMAP
0AF70000
00CF4000
001C9000
00000000
04BEEA10
4FD89FB0
8D200AF1
000008F3
02ADFFF3
3FD74AF3
AF2008F3
DD0008F3
CE101CF3
7FC9DEF4
08DE96F7
ENDCHAR
STARTCHAR aacute
ENCODING 225
SWIDTH 479 0
DWIDTH 10 0
BBX 8 15 1 0
BITMAP
00008F90
0004FB00
0009C100
00000000
04BEEA10
4FD89FB0
8D200AF1
000008F3
02ADFFF3
3FD74AF3
AF2008F3
DD0008F3
CE101CF3
7FC9DEF4
08DE96F7
ENDCHAR
STARTCHAR acircumflex
ENCODING 226
SWIDTH 479 0
DWIDTH 10 0
BBX 8 16 1 0
BITMAP
001DD100
01CCCB00
04D23D40
00000000
00000000
04BEEA10
4FD89FB0
8D200AF1
000008F3
02ADFFF3
3FD74AF3
AF2008F3
DD0008F3
CE101CF3
7FC9DEF4
08DE96F7
ENDCHAR
STARTCHAR atilde
ENCODING 227
SWIDTH 479 0
DWIDTH 10 0
BBX 8 16 1 0
BITMAP
00520270
08FF8AB0
0D53CD30
00000000
00000000
04BEEA10
4FD89FB0
8D200AF1
000008F3
02ADFFF3
3FD74AF3
AF2008F3
DD0008F3
CE101CF3
7FC9DEF4
08DE96F7
ENDCHAR
STARTCHAR adieresis
ENCODING 228
SWIDTH 479 0
DWIDTH 10 0
BBX 8 15 1 0
BITMAP
1EC00CE1
1DB00BD1
00000000
00000000
04BEEA10
4FD89FB0
8D200AF1
000008F3
02ADFFF3
3FD74AF3
AF2008F3
DD0008F3
CE101CF3
7FC9DEF4
08DE96F7
ENDCHAR
STARTCHAR aring
ENCODING 229
SWIDTH 479 0
DWIDTH 10 0
BBX 8 16 1 0
BITMAP
005DD500
01E12E00
01E12E00
006DD500
00000000
04BEEA10
4FD89FB0
8D200AF1
000008F3
02ADFFF3
3FD74AF3
AF2008F3
DD0008F3
CE101CF3
7FC9DEF4
08DE96F7
ENDCHAR
STARTCHAR ae
ENCODING 230
SWIDTH 728 0
DWIDTH 15 0
BBX 14 11 0 0
BITMAP
007DFD708EFB30
08FC8CFCFA8EE1
0BC000EF8003F8
000000CF1000EA
007CEEFFFFFFFC
09FB66DF666665
0FC000CF100000
2F9000CF400000
1FB002EFB00022
0BF99EEAFB8AF8
02BEEA207DFD91
ENDCHAR
STARTCHAR ccedilla
ENCODING 231
SWIDTH 461 0
DWIDTH 9 0
BBX 9 15 0 -4
BITMAP
004BEEA200
03FE99FC00
0AF2007F40
0EC0002D60
1FB0000000
1FA0000000
1FA0000000
0EC0001840
0AF2006F50
03FE89EC00
004BEE9100
0002F20000
00016D1000
00004F4000
0003E90000
ENDCHAR
STARTCHAR egrave
ENCODING 232
SWIDTH 468 0
DWIDTH 9 0
BBX 8 15 1 0
BITMAP
0BF50000
01DE2000
002D7000
00000000
03BEEA20
2ED89FD0
9F2007F5
DC0003F8
FFFFFFF9
FD777774
FB000000
ED000000
AF400060
3FF98CF4
04BEEC50
ENDCHAR
STARTCHAR eacute
ENCODING 233
SWIDTH 468 0
DWIDTH 9 0
BBX 8 15 1 0
BITMAP
0000AF70
0006F900
000BA000
00000000
03BEEA20
2ED89FD0
9F2007F5
DC0003F8
FFFFFFF9
FD777774
FB000000
ED000000
AF400060
3FF98CF4
04BEEC50
ENDCHAR
STARTCHAR ecircumflex
ENCODING 234
SWIDTH 468 0
DWIDTH 9 0
BBX 8 16 1 0
BITMAP
003EB000
01DAE900
06D15C20
00000000
00000000
03BEEA20
2ED89FD0
9F2007F5
DC0003F8
FFFFFFF9
FD777774
FB000000
ED000000
AF400060
3FF98CF4
04BEEC50
ENDCHAR
STARTCHAR edieresis
ENCODING 235
SWIDTH 468 0
DWIDTH 9 0
BBX 8 15 1 0
BITMAP
3F901EC0
2E901DC0
00000000
00000000
03BEEA20
2ED89FD0
9F2007F5
DC0003F8
FFFFFFF9
FD777774
FB000000
ED000000
AF400060
3FF98CF4
04BEEC50
ENDCHAR
STARTCHAR igrave
ENCODING 236
SWIDTH 234 0
DWIDTH 5 0
BBX 5 15 -1 0
BITMAP
4FC100
06F900
009C20
000000
009F20
009F20
009F20
009F20
009F20
009F20
009F20
009F20
009F20
009F20
009F20
ENDCHAR
STARTCHAR iacute
ENCODING 237
SWIDTH 234 0
DWIDTH 5 0
BBX 5 15 1 0
BITMAP
03ED20
1DE300
5D4000
000000
9F2000
9F2000
9F2000
9F2000
9F2000
9F2000
9F2000
9F2000
9F2000
9F2000
9F2000
ENDCHAR
STARTCHAR icircumflex
ENCODING 238
SWIDTH 234 0
DWIDTH 5 0
BBX 6 16 -1 0
BITMAP
009F40
07F9E3
1B70B8
000000
000000
009F20
009F20
009F20
009F20
009F20
009F20
009F20
009F20
009F20
009F20
009F20
ENDCHAR
STARTCHAR idieresis
ENCODING 239
SWIDTH 234 0
DWIDTH 5 0
BBX 7 15 -1 0
BITMAP
9F306F50
9E306E50
00000000
00000000
009F2000
009F2000
009F2000
009F2000
009F2000
009F2000
009F2000
009F2000
009F2000
009F2000
009F2000
ENDCHAR
STARTCHAR eth
ENCODING 240
SWIDTH 513 0
DWIDTH 10 0
BBX 8 15 1 0
BITMAP
07A40020
08EF98E1
001BFF30
004EDF80
00870CF1
000005F7
02AEEAFB
1DFA8CFD
7F7000DF
BF1000BF
CE0000CE
BF0000EC
7F7005F7
1DFA9ED1
019EEA10
ENDCHAR
STARTCHAR ntilde
ENCODING 241
SWIDTH 483 0
DWIDTH 10 0
BBX 8 16 1 0
BITMAP
00520360
0AFE8BA0
0E44DD20
00000000
00000000
BE3CEC30
BFEAAFD0
BF6009F3
BF0006F5
BF0005F6
BF0005F6
BF0005F6
BF0005F6
BF0005F6
BF0005F6
BF0005F6
ENDCHAR
STARTCHAR ograve
ENCODING 242
SWIDTH 501 0
DWIDTH 10 0
BBX 10 15 0 0
BITMAP
00AF700000
001CF30000
0002D80000
0000000000
002AEEB200
02EF99FE20
09F5005FA0
0ED0000DE0
1FB0000AF1
1FA00009F2
1FB0000AF1
0ED0000CE0
09F5003FA0
02EF99EE20
002BEEB300
ENDCHAR
STARTCHAR oacute
ENCODING 243
SWIDTH 501 0
DWIDTH 10 0
BBX 10 15 0 0
BITMAP
000009F800
00005FA000
0000AB1000
0000000000
002AEEB200
02EF99FE20
09F5005FA0
0ED0000DE0
1FB0000AF1
1FA00009F2
1FB0000AF1
0ED0000CE0
09F5003FA0
02EF99EE20
002BEEB300
ENDCHAR
STARTCHAR ocircumflex
ENCODING 244
SWIDTH 501 0
DWIDTH 10 0
BBX 10 16 0 0
BITMAP
0002EC1000
001CBDA000
005D24D300
0000000000
0000000000
002AEEB200
02EF99FE20
09F5005FA0
0ED0000DE0
1FB0000AF1
1FA00009F2
1FB0000AF1
0ED0000CE0
09F5003FA0
02EF99EE20
002BEEB300
ENDCHAR
STARTCHAR otilde
ENCODING 245
SWIDTH 501 0
DWIDTH 10 0
BBX 10 16 0 0
BITMAP
0005203600
009FF8BB00
00E54DD300
0000000000
0000000000
002AEEB200
02EF99FE20
09F5005FA0
0ED0000DE0
1FB0000AF1
1FA00009F2
1FB0000AF1
0ED0000CE0
09F5003FA0
02EF99EE20
002BEEB300
ENDCHAR
STARTCHAR odieresis
ENCODING 246
SWIDTH 501 0
DWIDTH 10 0
BBX 10 15 0 0
BITMAP
01EB00CD10
01EA00CD10
0000000000
0000000000
002AEEB200
02EF99FE20
09F5005FA0
0ED0000DE0
1FB0000AF1
1FA00009F2
1FB0000AF1
0ED0000CE0
09F5003FA0
02EF99EE20
002BEEB300
ENDCHAR
STARTCHAR divide
ENCODING 247
SWIDTH 500 0
DWIDTH 10 0
BBX 9 11 0 2
BITMAP
0000110000
0000EC0000
0000DB0000
0000000000
0000000000
4FFFFFFFF0
3CCCCCCCC0
0000000000
0000110000
0000ED0000
0000CA0000
ENDCHAR
STARTCHAR oslash
ENCODING 248
SWIDTH 498 0
DWIDTH 10 0
BBX 9 14 1 -2
BITMAP
000001E200
01AEECB000
1DF99FD100
7F604FF800
CE00A7ED00
FC01E1BF00
FA07A0AF10
FB0D30BF10
CE5C00ED00
7FE605F800
1DF98ED100
08DEEA2000
1E20000000
0100000000
ENDCHAR
STARTCHAR ugrave
ENCODING 249
SWIDTH 483 0
DWIDTH 10 0
BBX 8 15 1 0
BITMAP
0BF50000
01DE2000
002D7000
00000000
BF0006F5
BF0006F5
BF0006F5
BF0006F5
BF0006F5
BF0006F5
BF0006F5
AF0006F5
8F400AF5
3FD9CFF5
07EFB7F5
ENDCHAR
STARTCHAR uacute
ENCODING 250
SWIDTH 483 0
DWIDTH 10 0
BBX 8 15 1 0
BITMAP
0000AF70
0006F900
000BA000
00000000
BF0006F5
BF0006F5
BF0006F5
BF0006F5
BF0006F5
BF0006F5
BF0006F5
AF0006F5
8F400AF5
3FD9CFF5
07EFB7F5
ENDCHAR
STARTCHAR ucircumflex
ENCODING 251
SWIDTH 483 0
DWIDTH 10 0
BBX 8 16 1 0
BITMAP
003EB000
01DAE900
06D15C20
00000000
00000000
BF0006F5
BF0006F5
BF0006F5
BF0006F5
BF0006F5
BF0006F5
BF0006F5
AF0006F5
8F400AF5
3FD9CFF5
07EFB7F5
ENDCHAR
STARTCHAR udieresis
ENCODING 252
SWIDTH 483 0
DWIDTH 10 0
BBX 8 15 1 0
BITMAP
3F901EC0
2E901DC0
00000000
00000000
BF0006F5
BF0006F5
BF0006F5
BF0006F5
BF0006F5
BF0006F5
BF0006F5
AF0006F5
8F400AF5
3FD9CFF5
07EFB7F5
ENDCHAR
STARTCHAR yacute
ENCODING 253
SWIDTH 416 0
DWIDTH 8 0
BBX 8 19 0 -4
BITMAP
00003ED2
0001DE30
0004D400
00000000
8F5001FC
3F9004F8
0ED008F3
09F20BE0
05F50FA0
01F94F60
00BD7F10
007FDC00
002FF800
000DF400
0009E000
000CA000
003F5000
19ED1000
2EC30000
ENDCHAR
STARTCHAR thorn
ENCODING 254
SWIDTH 508 0
DWIDTH 10 0
BBX 8 19 1 -4
BITMAP
9F200000
9F200000
9F200000
9F200000
9F6CFC40
9FFAAFE2
9F6006F8
9F2001EC
9F2000CE
9F2000BF
9F2000CE
9F2000EC
9F5006F7
9FE99FE2
9F6CFC40
9F200000
9F200000
9F200000
9F200000
ENDCHAR
STARTCHAR ydieresis
ENCODING 255
SWIDTH 416 0
DWIDTH 8 0
BBX 8 19 0 -4
BITMAP
09F306F5
09E306E5
00000000
00000000
8F5001FC
3F9004F8
0ED008F3
09F20BE0
05F50FA0
01F94F60
00BD7F10
007FDC00
002FF800
000DF400
0009E000
000CA000
003F5000
19ED1000
2EC30000
ENDCHAR
STARTCHAR Amacron
ENCODING 256
SWIDTH 576 0
DWIDTH 12 0
BBX 11 18 0 0
BITMAP
000666664000
000FFFFFA000
000000000000
000000000000
00002FA00000
00007FF10000
0000CEF50000
0002F7EA0000
0007F2AE1000
000CD05F5000
002F901FA000
007F400BE100
00CE0007F500
02FFFFFFFA00
07FA8888DE00
0BF100008F50
1FB000003FA0
6F6000000DE0
ENDCHAR
STARTCHAR amacron
ENCODING 257
SWIDTH 479 0
DWIDTH 10 0
BBX 8 15 1 0
BITMAP
05666650
0CFFFFD0
00000000
00000000
04BEEA10
4FD89FB0
8D200AF1
000008F3
02ADFFF3
3FD74AF3
AF2008F3
DD0008F3
CE101CF3
7FC9DEF4
08DE96F7
ENDCHAR
STARTCHAR Abreve
ENCODING 258
SWIDTH 576 0
DWIDTH 12 0
BBX 11 19 0 0
BITMAP
000210022000
000EB34E8000
0003CEE91000
000000000000
000000000000
00002FA00000
00007FF10000
0000CEF50000
0002F7EA0000
0007F2AE1000
000CD05F5000
002F901FA000
007F400BE100
00CE0007F500
02FFFFFFFA00
07FA8888DE00
0BF100008F50
1FB000003FA0
6F6000000DE0
ENDCHAR
STARTCHAR abreve
ENCODING 259
SWIDTH 479 0
DWIDTH 10 0
BBX 8 16 1 0
BITMAP
02100120
0BC34DB0
02BEEA20
00000000
00000000
04BEEA10
4FD89FB0
8D200AF1
000008F3
02ADFFF3
3FD74AF3
AF2008F3
DD0008F3
CE101CF3
7FC9DEF4
08DE96F7
ENDCHAR
STARTCHAR Aogonek
ENCODING 260
SWIDTH 576 0
DWIDTH 12 0
BBX 11 18 0 -4
BITMAP
00002FA00000
00007FF10000
0000CEF50000
0002F7EA0000
0007F2AE1000
000CD05F5000
002F901FA000
007F400BE100
00CE0007F500
02FFFFFFFA00
07FA8888DE00
0BF100008F50
1FB000003FA0
6F6000000DE0
000000005E40
00000000E800
00000001FA60
000000009EA0
ENDCHAR
STARTCHAR aogonek
ENCODING 261
SWIDTH 479 0
DWIDTH 10 0
BBX 8 15 1 -4
BITMAP
04BEEA10
4FD89FB0
8D200AF1
000008F3
02ADFFF3
3FD74AF3
AF2008F3
DD0008F3
CE101CF3
7FC9DEF4
08DE96F7
00001CA0
00007E00
00009E72
00003DE3
ENDCHAR
STARTCHAR Cacute
ENCODING 262
SWIDTH 566 0
DWIDTH 11 0
BBX 10 18 1 0
BITMAP
00000BF600
00007F8000
0001BA0000
0000000000
004BEEC500
06FE99EF60
2FD1001EE1
7F600009F4
AF200005C5
BF10000000
CF00000000
CF00000000
BF10000000
AF200004B4
7F600008F4
2FC1001EE1
07FD99EF50
005CFEB400
ENDCHAR
STARTCHAR cacute
ENCODING 263
SWIDTH 461 0
DWIDTH 9 0
BBX 9 15 0 0
BITMAP
00001DE300
0000BF5000
0003D60000
0000000000
004BEEA200
03FE99FC00
0AF2007F40
0EC0002D60
1FB0000000
1FA0000000
1FA0000000
0EC0001840
0AF2006F50
03FE89EC00
004BEE9100
ENDCHAR
STARTCHAR Ccircumflex
ENCODING 264
SWIDTH 566 0
DWIDTH 11 0
BBX 10 18 1 0
BITMAP
0003EA0000
002EAE8000
007C16C200
0000000000
004BEEC500
06FE99EF60
2FD1001EE1
7F600009F4
AF200005C5
BF10000000
CF00000000
CF00000000
BF10000000
AF200004B4
7F600008F4
2FC1001EE1
07FD99EF50
005CFEB400
ENDCHAR
STARTCHAR ccircumflex
ENCODING 265
SWIDTH 461 0
DWIDTH 9 0
BBX 9 16 0 0
BITMAP
0006F70000
004F9F5000
00AA09A000
0000000000
0000000000
004BEEA200
03FE99FC00
0AF2007F40
0EC0002D60
1FB0000000
1FA0000000
1FA0000000
0EC0001840
0AF2006F50
03FE89EC00
004BEE9100
ENDCHAR
STARTCHAR Cdotaccent
ENCODING 266
SWIDTH 566 0
DWIDTH 11 0
BBX 10 17 1 0
BITMAP
0002FA0000
0002E90000
0000000000
004BEEC500
06FE99EF60
2FD1001EE1
7F600009F4
AF200005C5
BF10000000
CF00000000
CF00000000
BF10000000
AF200004B4
7F600008F4
2FC1001EE1
07FD99EF50
005CFEB400
ENDCHAR
STARTCHAR cdotaccent
ENCODING 267
SWIDTH 461 0
DWIDTH 9 0
BBX 9 16 0 0
BITMAP
0000100000
0005F60000
0005E60000
0000000000
0000000000
004BEEA200
03FE99FC00
0AF2007F40
0EC0002D60
1FB0000000
1FA0000000
1FA0000000
0EC0001840
0AF2006F50
03FE89EC00
004BEE9100
ENDCHAR
STARTCHAR Ccaron
ENCODING 268
SWIDTH 566 0
DWIDTH 11 0
BBX 10 18 1 0
BITMAP
008D16E200
000CAE6000
0002EA0000
0000000000
004BEEC500
06FE99EF60
2FD1001EE1
7F600009F4
AF200005C5
BF10000000
CF00000000
CF00000000
BF10000000
AF200004B4
7F600008F4
2FC1001EE1
07FD99EF50
005CFEB400
ENDCHAR
STARTCHAR ccaron
ENCODING 269
SWIDTH 461 0
DWIDTH 9 0
BBX 9 16 0 0
BITMAP
00CA0AD100
002E9E3000
0005F60000
0000000000
0000000000
004BEEA200
03FE99FC00
0AF2007F40
0EC0002D60
1FB0000000
1FA0000000
1FA0000000
0EC0001840
0AF2006F50
03FE89EC00
004BEE9100
ENDCHAR
STARTCHAR Dcaron
ENCODING 270
SWIDTH 570 0
DWIDTH 11 0
BBX 10 18 1 0
BITMAP
02E61D8000
006EAC0000
000AE20000
0000000000
7FFFEC6000
7FA89DFA00
7F50009F60
7F50000ED0
7F50000BF1
7F500009F2
7F500009F3
7F500009F3
7F500009F2
7F50000BF1
7F50001ED0
7F50009F60
7FA89DFA00
7FFFEC6000
ENDCHAR
STARTCHAR dcaron
ENCODING 271
SWIDTH 569 0
DWIDTH 11 0
BBX 12 15 0 0
BITMAP
0000003F86F4
0000003F87F3
0000003F8AD0
0000003F8A60
005DFC6F8000
04FE9AEF8000
0BF3006F8000
0EC0003F8000
1FA0003F8000
1FA0003F8000
1FA0003F8000
0EC0003F8000
0BF3006F8000
04FE9AEF8000
005DFC4F8000
ENDCHAR
STARTCHAR Dcroat
ENCODING 272
SWIDTH 585 0
DWIDTH 12 0
BBX 11 14 0 0
BITMAP
03FFFFD81000
03FC89BFD200
03F90005FB00
03F90000AF20
03F900006F50
03F900005F60
CFFFF7005F70
68FC73005F70
03F900005F60
03F900006F50
03F90000BF20
03F90005FB00
03FC88BFD200
03FFFFD81000
ENDCHAR
STARTCHAR dcroat
ENCODING 273
SWIDTH 529 0
DWIDTH 11 0
BBX 11 15 0 0
BITMAP
0000003F8000
00003FFFFF20
0000178FC710
0000003F8000
003CFC6F8000
02EE9AFF8000
08F5007F8000
0DD0003F8000
0FB0003F8000
1FA0003F8000
0FB0003F8000
0DD0003F8000
08F5007F8000
02EE9AFF8000
003CEC6F8000
ENDCHAR
STARTCHAR Emacron
ENCODING 274
SWIDTH 496 0
DWIDTH 10 0
BBX 9 18 1 0
BITMAP
0366666100
08FFFFF200
0000000000
0000000000
7FFFFFFF10
7FA8888810
7F50000000
7F50000000
7F50000000
7F50000000
7FFFFFF500
7FA8888300
7F50000000
7F50000000
7F50000000
7F50000000
7FA8888810
7FFFFFFF30
ENDCHAR
STARTCHAR emacron
ENCODING 275
SWIDTH 468 0
DWIDTH 9 0
BBX 8 15 1 0
BITMAP
06666640
0FFFFFB0
00000000
00000000
03BEEA20
2ED89FD0
9F2007F5
DC0003F8
FFFFFFF9
FD777774
FB000000
ED000000
AF400060
3FF98CF4
04BEEC50
ENDCHAR
STARTCHAR Ebreve
ENCODING 276
SWIDTH 496 0
DWIDTH 10 0
BBX 9 19 1 0
BITMAP
0120012000
07F53AF100
008EEC4000
0000000000
0000000000
7FFFFFFF10
7FA8888810
7F50000000
7F50000000
7F50000000
7F50000000
7FFFFFF500
7FA8888300
7F50000000
7F50000000
7F50000000
7F50000000
7FA8888810
7FFFFFFF30
ENDCHAR
STARTCHAR ebreve
ENCODING 277
SWIDTH 468 0
DWIDTH 9 0
BBX 8 16 1 0
BITMAP
02100220
0EB34E90
03BEE910
00000000
00000000
03BEEA20
2ED89FD0
9F2007F5
DC0003F8
FFFFFFF9
FD777774
FB000000
ED000000
AF400060
3FF98CF4
04BEEC50
ENDCHAR
STARTCHAR Edotaccent
ENCODING 278
SWIDTH 496 0
DWIDTH 10 0
BBX 9 17 1 0
BITMAP
0009F30000
0009E30000
0000000000
7FFFFFFF10
7FA8888810
7F50000000
7F50000000
7F50000000
7F50000000
7FFFFFF500
7FA8888300
7F50000000
7F50000000
7F50000000
7F50000000
7FA8888810
7FFFFFFF30
ENDCHAR
STARTCHAR edotaccent
ENCODING 279
SWIDTH 468 0
DWIDTH 9 0
BBX 8 15 1 0
BITMAP
002EB000
001EA000
00000000
00000000
03BEEA20
2ED89FD0
9F2007F5
DC0003F8
FFFFFFF9
FD777774
FB000000
ED000000
AF400060
3FF98CF4
04BEEC50
ENDCHAR
STARTCHAR Eogonek
ENCODING 280
SWIDTH 496 0
DWIDTH 10 0
BBX 9 18 1 -4
BITMAP
7FFFFFFF10
7FA8888810
7F50000000
7F50000000
7F50000000
7F50000000
7FFFFFF500
7FA8888300
7F50000000
7F50000000
7F50000000
7F50000000
7FA8888810
7FFFFFFF30
000008D200
00002F5000
00004F9500
00000BE800
ENDCHAR
STARTCHAR eogonek
ENCODING 281
SWIDTH 468 0
DWIDTH 9 0
BBX 8 15 1 -4
BITMAP
03BEEA20
2ED89FD0
9F2007F5
DC0003F8
FFFFFFF9
FD777774
FB000000
ED000000
AF400060
3FF98CF4
03BEFD50
0008E100
000E8000
000EB600
0007EB00
ENDCHAR
STARTCHAR Ecaron
ENCODING 282
SWIDTH 496 0
DWIDTH 10 0
BBX 9 18 1 0
BITMAP
02E70D9000
005E9D1000
0009F30000
0000000000
7FFFFFFF10
7FA8888810
7F50000000
7F50000000
7F50000000
7F50000000
7FFFFFF500
7FA8888300
7F50000000
7F50000000
7F50000000
7F50000000
7FA8888810
7FFFFFFF30
ENDCHAR
STARTCHAR ecaron
ENCODING 283
SWIDTH 468 0
DWIDTH 9 0
BBX 8 16 1 0
BITMAP
08E15F30
00CAE700
002EA000
00000000
00000000
03BEEA20
2ED89FD0
9F2007F5
DC0003F8
FFFFFFF9
FD777774
FB000000
ED000000
AF400060
3FF98CF4
04BEEC50
ENDCHAR
STARTCHAR Gcircumflex
ENCODING 284
SWIDTH 590 0
DWIDTH 12 0
BBX 10 18 1 0
BITMAP
0004F90000
003E9F7000
008B07B100
0000000000
006CEEC500
09FDA9EF70
3FC1001EE1
8F400008F5
BF10000262
CF00000000
CF00000000
CF000EFFF7
CF10088BF7
AF200005F7
8F600005F7
2FD10007F7
07FE99BFE2
004BEFD920
ENDCHAR
STARTCHAR gcircumflex
ENCODING 285
SWIDTH 492 0
DWIDTH 10 0
BBX 9 20 0 -4
BITMAP
0004FA0000
002EAE8000
007C06C100
0000000000
0000000000
005DFC3F90
04FE9AEF90
0BF3006F90
0EC0002F90
0FB0002F90
1FA0002F90
0FB0002F90
0EC0002F90
0BF3006F90
04FE9AEF90
005DFC5F90
0000003F80
0040008F50
04FB7AFD00
005BEEA100
ENDCHAR
STARTCHAR Gbreve
ENCODING 286
SWIDTH 590 0
DWIDTH 12 0
BBX 10 19 1 0
BITMAP
0120002100
02F935F600
005CFD8000
0000000000
0000000000
006CEEC500
09FDA9EF70
3FC1001EE1
8F400008F5
BF10000262
CF00000000
CF00000000
CF000EFFF7
CF10088BF7
AF200005F7
8F600005F7
2FD10007F7
07FE99BFE2
004BEFD920
ENDCHAR
STARTCHAR gbreve
ENCODING 287
SWIDTH 492 0
DWIDTH 10 0
BBX 9 20 0 -4
BITMAP
0021002200
01EA35E700
004CEE9000
0000000000
0000000000
005DFC3F90
04FE9AEF90
0BF3006F90
0EC0002F90
0FB0002F90
1FA0002F90
0FB0002F90
0EC0002F90
0BF3006F90
04FE9AEF90
005DFC5F90
0000003F80
0040008F50
04FB7AFD00
005BEEA100
ENDCHAR
STARTCHAR Gdotaccent
ENCODING 288
SWIDTH 590 0
DWIDTH 12 0
BBX 10 17 1 0
BITMAP
0004F80000
0003E80000
0000000000
006CEEC500
09FDA9EF70
3FC1001EE1
8F400008F5
BF10000262
CF00000000
CF00000000
CF000EFFF7
CF10088BF7
AF200005F7
8F600005F7
2FD10007F7
07FE99BFE2
004BEFD920
ENDCHAR
STARTCHAR gdotaccent
ENCODING 289
SWIDTH 492 0
DWIDTH 10 0
BBX 9 19 0 -4
BITMAP
0003FA0000
0002E90000
0000000000
0000000000
005DFC3F90
04FE9AEF90
0BF3006F90
0EC0002F90
0FB0002F90
1FA0002F90
0FB0002F90
0EC0002F90
0BF3006F90
04FE9AEF90
005DFC5F90
0000003F80
0040008F50
04FB7AFD00
005BEEA100
ENDCHAR
STARTCHAR uni0122
ENCODING 290
SWIDTH 590 0
DWIDTH 12 0
BBX 10 20 1 -6
BITMAP
006CEEC500
09FDA9EF70
3FC1001EE1
8F400008F5
BF10000262
CF00000000
CF00000000
CF000EFFF7
CF10088BF7
AF200005F7
8F600005F7
2FD10007F7
07FE99BFE2
004BEFD920
0000000000
0000000000
0000AF0000
0000BE0000
0000EA0000
0001C20000
ENDCHAR
STARTCHAR uni0123
ENCODING 291
SWIDTH 492 0
DWIDTH 10 0
BBX 9 21 0 -4
BITMAP
00005A0000
0000DC0000
0002F90000
0003F80000
0000000000
0000000000
005DFC3F90
04FE9AEF90
0BF3006F90
0EC0002F90
0FB0002F90
1FA0002F90
0FB0002F90
0EC0002F90
0BF3006F90
04FE9AEF90
005DFC5F90
0000003F80
0040008F50
04FB7AFD00
005BEEA100
ENDCHAR
STARTCHAR Hcircumflex
ENCODING 292
SWIDTH 620 0
DWIDTH 12 0
BBX 10 18 1 0
BITMAP
0001DD1000
000BCCC000
004D32D400
0000000000
7F500000ED
7F500000ED
7F500000ED
7F500000ED
7F500000ED
7F500000ED
7FFFFFFFFD
7FA88888FD
7F500000ED
7F500000ED
7F500000ED
7F500000ED
7F500000ED
7F500000ED
ENDCHAR
STARTCHAR hcircumflex
ENCODING 293
SWIDTH 482 0
DWIDTH 10 0
BBX 8 19 1 0
BITMAP
009F4000
07F9E300
1B70B800
00000000
BF000000
BF000000
BF000000
BF000000
BF4CEC30
BFEAAFD0
BF6009F3
BF0006F5
BF0005F6
BF0005F6
BF0005F6
BF0005F6
BF0005F6
BF0005F6
BF0005F6
ENDCHAR
STARTCHAR Hbar
ENCODING 294
SWIDTH 611 0
DWIDTH 12 0
BBX 12 14 0 0
BITMAP
07F500000ED0
07F500000ED0
07F500000ED0
8FFFFFFFFFFE
3AF966666FE5
07F500000ED0
07FFFFFFFFD0
07FA88888FD0
07F500000ED0
07F500000ED0
07F500000ED0
07F500000ED0
07F500000ED0
07F500000ED0
ENDCHAR
STARTCHAR hbar
ENCODING 295
SWIDTH 497 0
DWIDTH 10 0
BBX 10 15 -1 0
BITMAP
006F500000
2FFFFF2000
17AFA71000
006F500000
006F6AED60
006FEC9EF3
006FA004F8
006F5001F9
006F5001FA
006F5001FA
006F5001FA
006F5001FA
006F5001FA
006F5001FA
006F5001FA
ENDCHAR
STARTCHAR Itilde
ENCODING 296
SWIDTH 250 0
DWIDTH 5 0
BBX 7 18 -1 0
BITMAP
02500630
1EFC7E40
5D18EA00
00000000
006F6000
006F6000
006F6000
006F6000
006F6000
006F6000
006F6000
006F6000
006F6000
006F6000
006F6000
006F6000
006F6000
006F6000
ENDCHAR
STARTCHAR itilde
ENCODING 297
SWIDTH 234 0
DWIDTH 5 0
BBX 7 16 -1 0
BITMAP
03400720
3FFB7F20
8B19E800
00000000
00000000
009F2000
009F2000
009F2000
009F2000
009F2000
009F2000
009F2000
009F2000
009F2000
009F2000
009F2000
ENDCHAR
STARTCHAR Imacron
ENCODING 298
SWIDTH 250 0
DWIDTH 5 0
BBX 7 18 -1 0
BITMAP
26666620
4FFFFF60
00000000
00000000
006F6000
006F6000
006F6000
006F6000
006F6000
006F6000
006F6000
006F6000
006F6000
006F6000
006F6000
006F6000
006F6000
006F6000
ENDCHAR
STARTCHAR imacron
ENCODING 299
SWIDTH 234 0
DWIDTH 5 0
BBX 7 15 -1 0
BITMAP
36666610
7FFFFF30
00000000
00000000
009F2000
009F2000
009F2000
009F2000
009F2000
009F2000
009F2000
009F2000
009F2000
009F2000
009F2000
ENDCHAR
STARTCHAR Ibreve
ENCODING 300
SWIDTH 250 0
DWIDTH 5 0
BBX 7 19 -1 0
BITMAP
12000210
4F737F40
06DFD600
00000000
00000000
006F6000
006F6000
006F6000
006F6000
006F6000
006F6000
006F6000
006F6000
006F6000
006F6000
006F6000
006F6000
006F6000
006F6000
ENDCHAR
STARTCHAR ibreve
ENCODING 301
SWIDTH 234 0
DWIDTH 5 0
BBX 7 16 -1 0
BITMAP
12000210
6F539F20
08DFC500
00000000
00000000
009F2000
009F2000
009F2000
009F2000
009F2000
009F2000
009F2000
009F2000
009F2000
009F2000
009F2000
ENDCHAR
STARTCHAR Iogonek
ENCODING 302
SWIDTH 250 0
DWIDTH 5 0
BBX 4 18 0 -4
BITMAP
06F6
06F6
06F6
06F6
06F6
06F6
06F6
06F6
06F6
06F6
06F6
06F6
06F6
06F6
1CA0
7E00
9E72
3DE3
ENDCHAR
STARTCHAR iogonek
ENCODING 303
SWIDTH 229 0
DWIDTH 5 0
BBX 4 19 0 -4
BITMAP
07F2
07E2
0000
0000
09F2
09F2
09F2
09F2
09F2
09F2
09F2
09F2
09F2
09F2
0AF2
2E70
AB00
CD71
5ED1
ENDCHAR
STARTCHAR Idotaccent
ENCODING 304
SWIDTH 250 0
DWIDTH 5 0
BBX 3 18 1 0
BITMAP
0100
6F60
6E50
0000
6F60
6F60
6F60
6F60
6F60
6F60
6F60
6F60
6F60
6F60
6F60
6F60
6F60
6F60
ENDCHAR
STARTCHAR dotlessi
ENCODING 305
SWIDTH 234 0
DWIDTH 5 0
BBX 3 11 1 0
BITMAP
9F20
9F20
9F20
9F20
9F20
9F20
9F20
9F20
9F20
9F20
9F20
ENDCHAR
STARTCHAR IJ
ENCODING 306
SWIDTH 733 0
DWIDTH 15 0
BBX 13 14 1 0
BITMAP
6F600000008F40
6F600000008F40
6F600000008F40
6F600000008F40
6F600000008F40
6F600000008F40
6F600000008F40
6F600000008F40
6F600000008F40
6F601210009F30
6F605F7000AF30
6F602FB001EE00
6F600AFC9DF700
6F60019EFD6000
ENDCHAR
STARTCHAR ij
ENCODING 307
SWIDTH 452 0
DWIDTH 9 0
BBX 7 19 1 -4
BITMAP
7F201F80
7E201E70
00000000
00000000
9F201FA0
9F201FA0
9F201FA0
9F201FA0
9F201FA0
9F201FA0
9F201FA0
9F201FA0
9F201FA0
9F201FA0
9F201FA0
00001FA0
00002F90
0006BF60
0009EA00
ENDCHAR
STARTCHAR Jcircumflex
ENCODING 308
SWIDTH 483 0
DWIDTH 10 0
BBX 10 18 0 0
BITMAP
000001CE20
00000ADBC1
00003D42D5
0000000000
0000008F40
0000008F40
0000008F40
0000008F40
0000008F40
0000008F40
0000008F40
0000008F40
0000008F40
1210009F30
5F7000AF30
2FB001EE00
0AFC9DF700
019EFD6000
ENDCHAR
STARTCHAR jcircumflex
ENCODING 309
SWIDTH 237 0
DWIDTH 5 0
BBX 6 20 -1 -4
BITMAP
007F60
05F9F4
0A90A9
000000
000000
006F50
006F50
006F50
006F50
006F50
006F50
006F50
006F50
006F50
006F50
006F50
007F40
008F30
28ED00
3EC300
ENDCHAR
STARTCHAR uni0136
ENCODING 310
SWIDTH 544 0
DWIDTH 11 0
BBX 10 19 1 -5
BITMAP
7F50002EE2
7F5000BF50
7F5008F900
7F504FC000
7F51DE2000
7F5AF50000
7FCFF20000
7FFDFA0000
7FD1AF5000
7F502EE100
7F5007F900
7F5000CF40
7F50004FD0
7F500009F8
0000000000
0003F70000
0004F60000
0007F20000
0007800000
ENDCHAR
STARTCHAR uni0137
ENCODING 311
SWIDTH 450 0
DWIDTH 9 0
BBX 8 20 1 -5
BITMAP
BF000000
BF000000
BF000000
BF000000
BF001EE2
BF00AF40
BF05F800
BF2EC000
BFAF3000
BFFF9000
BFADF300
BF14FB00
BF00AF50
BF002ED1
BF0007F8
00000000
004F5000
006F4000
009E1000
00870000
ENDCHAR
STARTCHAR kgreenlandic
ENCODING 312
SWIDTH 491 0
DWIDTH 10 0
BBX 8 11 1 0
BITMAP
8F3008F8
8F304FB0
8F32ED10
8F3CE300
8FFF7000
8FAFC000
8F39F600
8F31EE10
8F306FA0
8F300CF4
8F3004FD
ENDCHAR
STARTCHAR Lacute
ENCODING 313
SWIDTH 475 0
DWIDTH 10 0
BBX 8 18 1 0
BITMAP
02EE2000
0CE30000
4D500000
00000000
7F500000
7F500000
7F500000
7F500000
7F500000
7F500000
7F500000
7F500000
7F500000
7F500000
7F500000
7F500000
7FA88887
7FFFFFFE
ENDCHAR
STARTCHAR lacute
ENCODING 314
SWIDTH 229 0
DWIDTH 5 0
BBX 5 19 1 0
BITMAP
03FD10
1DE200
5D3000
000000
9F2000
9F2000
9F2000
9F2000
9F2000
9F2000
9F2000
9F2000
9F2000
9F2000
9F2000
9F2000
9F2000
9F2000
9F2000
ENDCHAR
STARTCHAR uni013B
ENCODING 315
SWIDTH 475 0
DWIDTH 10 0
BBX 8 19 1 -5
BITMAP
7F500000
7F500000
7F500000
7F500000
7F500000
7F500000
7F500000
7F500000
7F500000
7F500000
7F500000
7F500000
7FA88887
7FFFFFFE
00000000
0009F100
000AF000
000DB000
001B3000
ENDCHAR
STARTCHAR uni013C
ENCODING 316
SWIDTH 229 0
DWIDTH 5 0
BBX 3 20 1 -5
BITMAP
9F20
9F20
9F20
9F20
9F20
9F20
9F20
9F20
9F20
9F20
9F20
9F20
9F20
9F20
9F20
0000
8F20
9F10
DB00
B400
ENDCHAR
STARTCHAR Lcaron
ENCODING 317
SWIDTH 475 0
DWIDTH 10 0
BBX 8 14 1 0
BITMAP
7F508F10
7F50AF00
7F50DB00
7F51B300
7F500000
7F500000
7F500000
7F500000
7F500000
7F500000
7F500000
7F500000
7FA88887
7FFFFFFE
ENDCHAR
STARTCHAR lcaron
ENCODING 318
SWIDTH 302 0
DWIDTH 6 0
BBX 6 15 1 0
BITMAP
9F28F1
9F2AF0
9F2DB0
9F3B30
9F2000
9F2000
9F2000
9F2000
9F2000
9F2000
9F2000
9F2000
9F2000
9F2000
9F2000
ENDCHAR
STARTCHAR Ldot
ENCODING 319
SWIDTH 475 0
DWIDTH 10 0
BBX 8 14 1 0
BITMAP
7F500000
7F500000
7F500000
7F500000
7F500000
7F500000
7F50DD00
7F50CD00
7F500000
7F500000
7F500000
7F500000
7FA88887
7FFFFFFE
ENDCHAR
STARTCHAR ldot
ENCODING 320
SWIDTH 336 0
DWIDTH 7 0
BBX 6 15 1 0
BITMAP
9F2000
9F2000
9F2000
9F2000
9F2000
9F2000
9F2000
9F2CE1
9F2CD1
9F2000
9F2000
9F2000
9F2000
9F2000
9F2000
ENDCHAR
STARTCHAR Lslash
ENCODING 321
SWIDTH 475 0
DWIDTH 10 0
BBX 9 14 0 0
BITMAP
07F5000000
07F5000000
07F5000000
07F5000000
07F5000000
07F9A50000
2BFE820000
7DF5000000
07F5000000
07F5000000
07F5000000
07F5000000
07FA888870
07FFFFFFE0
ENDCHAR
STARTCHAR lslash
ENCODING 322
SWIDTH 250 0
DWIDTH 5 0
BBX 5 15 0 0
BITMAP
06F400
06F400
06F400
06F400
06F400
06F400
06FB70
2BFB30
7CF400
06F400
06F400
06F400
06F400
06F400
06F400
ENDCHAR
STARTCHAR Nacute
ENCODING 323
SWIDTH 619 0
DWIDTH 12 0
BBX 10 18 1 0
BITMAP
000005FC00
00002ED100
00007D2000
0000000000
7F900000EC
7FF20000EC
7FFA0000EC
7FDF3000EC
7F6EB000EC
7F57F300EC
7F51EB00EC
7F506F40EC
7F500DC0EC
7F5005F5EC
7F5000CDEC
7F50004FFC
7F50000BFC
7F500004FC
ENDCHAR
STARTCHAR nacute
ENCODING 324
SWIDTH 483 0
DWIDTH 10 0
BBX 8 15 1 0
BITMAP
00009F80
0005FA00
000AB000
00000000
BE3CEC30
BFEAAFD0
BF6009F3
BF0006F5
BF0005F6
BF0005F6
BF0005F6
BF0005F6
BF0005F6
BF0005F6
BF0005F6
ENDCHAR
STARTCHAR uni0145
ENCODING 325
SWIDTH 619 0
DWIDTH 12 0
BBX 10 19 1 -5
BITMAP
7F900000EC
7FF20000EC
7FFA0000EC
7FDF3000EC
7F6EB000EC
7F57F300EC
7F51EB00EC
7F506F40EC
7F500DC0EC
7F5005F5EC
7F5000CDEC
7F50004FFC
7F50000BFC
7F500004FC
0000000000
0000BD0000
0000CC0000
0001F80000
0002C10000
ENDCHAR
STARTCHAR uni0146
ENCODING 326
SWIDTH 483 0
DWIDTH 10 0
BBX 8 16 1 -5
BITMAP
BE3CEC30
BFEAAFD0
BF6009F3
BF0006F5
BF0005F6
BF0005F6
BF0005F6
BF0005F6
BF0005F6
BF0005F6
BF0005F6
00000000
001F9000
002F8000
005F4000
005A0000
ENDCHAR
STARTCHAR Ncaron
ENCODING 327
SWIDTH 619 0
DWIDTH 12 0
BBX 10 18 1 0
BITMAP
003F51E800
0007DAB000
0000BE2000
0000000000
7F900000EC
7FF20000EC
7FFA0000EC
7FDF3000EC
7F6EB000EC
7F57F300EC
7F51EB00EC
7F506F40EC
7F500DC0EC
7F5005F5EC
7F5000CDEC
7F50004FFC
7F50000BFC
7F500004FC
ENDCHAR
STARTCHAR ncaron
ENCODING 328
SWIDTH 483 0
DWIDTH 10 0
BBX 8 16 1 0
BITMAP
07E24F40
00BBD800
001EB000
00000000
00000000
BE3CEC30
BFEAAFD0
BF6009F3
BF0006F5
BF0005F6
BF0005F6
BF0005F6
BF0005F6
BF0005F6
BF0005F6
BF0005F6
ENDCHAR
STARTCHAR napostrophe
ENCODING 329
SWIDTH 483 0
DWIDTH 10 0
BBX 10 15 -1 0
BITMAP
0CC0000000
0DB0000000
2F70000000
3C10000000
00BE3CEC30
00BFEAAFD0
00BF6009F3
00BF0006F5
00BF0005F6
00BF0005F6
00BF0005F6
00BF0005F6
00BF0005F6
00BF0005F6
00BF0005F6
ENDCHAR
STARTCHAR Eng
ENCODING 330
SWIDTH 599 0
DWIDTH 12 0
BBX 10 18 1 -4
BITMAP
8F800003F9
8FE10003F9
8FF90003F9
8FEF2003F9
8F7F9003F9
8F4AF203F9
8F42FA03F9
8F409F33F9
8F401EB3F9
8F4008F7F9
8F4001EEF9
8F40007FF9
8F40000DF9
8F400006F9
00000003F9
00000005F7
0000009DF3
000001ED60
ENDCHAR
STARTCHAR eng
ENCODING 331
SWIDTH 498 0
DWIDTH 10 0
BBX 8 15 1 -4
BITMAP
AE2BFD40
AFC9AFE1
AF4007F5
AF1003F7
AF1003F8
AF1003F8
AF1003F8
AF1003F8
AF1003F8
AF1003F8
AF1003F8
000003F8
000004F7
00009DF2
0000ED60
ENDCHAR
STARTCHAR Omacron
ENCODING 332
SWIDTH 600 0
DWIDTH 12 0
BBX 10 18 1 0
BITMAP
0046666500
00CFFFFE00
0000000000
0000000000
005CEEC500
07FEAAEF70
2FD1001DF2
7F600005F7
AF200002FA
BF000000FB
CF000000FC
CF000000FC
CF000000FB
AF200001FA
7F600005F7
2FD1001DF2
07FEAAEF70
005CEEC500
ENDCHAR
STARTCHAR omacron
ENCODING 333
SWIDTH 501 0
DWIDTH 10 0
BBX 10 15 0 0
BITMAP
0056666500
00DFFFFC00
0000000000
0000000000
002AEEB200
02EF99FE20
09F5005FA0
0ED0000DE0
1FB0000AF1
1FA00009F2
1FB0000AF1
0ED0000CE0
09F5003FA0
02EF99EE20
002BEEB300
ENDCHAR
STARTCHAR Obreve
ENCODING 334
SWIDTH 600 0
DWIDTH 12 0
BBX 10 19 1 0
BITMAP
0021001200
00BD43CC00
002AEEB200
0000000000
0000000000
005CEEC500
07FEAAEF70
2FD1001DF2
7F600005F7
AF200002FA
BF000000FB
CF000000FC
CF000000FC
CF000000FB
AF200001FA
7F600005F7
2FD1001DF2
07FEAAEF70
005CEEC500
ENDCHAR
STARTCHAR obreve
ENCODING 335
SWIDTH 501 0
DWIDTH 10 0
BBX 10 16 0 0
BITMAP
0021001200
00CC34DA00
002BEEA100
0000000000
0000000000
002AEEB200
02EF99FE20
09F5005FA0
0ED0000DE0
1FB0000AF1
1FA00009F2
1FB0000AF1
0ED0000CE0
09F5003FA0
02EF99EE20
002BEEB300
ENDCHAR
STARTCHAR Ohungarumlaut
ENCODING 336
SWIDTH 600 0
DWIDTH 12 0
BBX 10 18 1 0
BITMAP
0001EB4F90
0009F4ED10
000A85D300
0000000000
005CEEC500
07FEAAEF70
2FD1001DF2
7F600005F7
AF200002FA
BF000000FB
CF000000FC
CF000000FC
CF000000FB
AF200001FA
7F600005F7
2FD1001DF2
07FEAAEF70
005CEEC500
ENDCHAR
STARTCHAR ohungarumlaut
ENCODING 337
SWIDTH 501 0
DWIDTH 10 0
BBX 10 15 0 0
BITMAP
0003F96F70
000BE4EB00
001B67D200
0000000000
002AEEB200
02EF99FE20
09F5005FA0
0ED0000DE0
1FB0000AF1
1FA00009F2
1FB0000AF1
0ED0000CE0
09F5003FA0
02EF99EE20
002BEEB300
ENDCHAR
STARTCHAR OE
ENCODING 338
SWIDTH 826 0
DWIDTH 17 0
BBX 14 14 1 0
BITMAP
006CFFFFFFFFFD
09FB78DF988887
4F9000AF200000
AF2000AF200000
DD0000AF200000
EC0000AF200000
FC0000AFFFFFF2
FC0000AF988881
EC0000AF200000
DD0000AF200000
AF2000AF200000
4F9000AF200000
09FB78DF988888
006CFFFFFFFFFF
ENDCHAR
STARTCHAR oe
ENCODING 339
SWIDTH 777 0
DWIDTH 16 0
BBX 14 11 1 0
BITMAP
01AEE9107DEB30
1DF99FC8FB8EE1
7F5007FFA004F7
CE0001FF3000FA
EC0000DFFFFFFC
FB0000CF877776
EC0000DF200000
CE0001FF500000
7F5006FFC00030
1DE89FC9FB7AF6
02AEEA107DFD80
ENDCHAR
STARTCHAR Racute
ENCODING 340
SWIDTH 530 0
DWIDTH 11 0
BBX 10 18 1 0
BITMAP
00004FC100
0002ED1000
0006D20000
0000000000
7FFFFEA200
7FA89BFD10
7F50008F70
7F50002FA0
7F50001FB0
7F50005F90
7F5004DF30
7FFFFFF600
7FA88FB000
7F500BF300
7F5004FA00
7F5000CF20
7F50005F90
7F50000DF2
ENDCHAR
STARTCHAR racute
ENCODING 341
SWIDTH 304 0
DWIDTH 6 0
BBX 6 15 1 0
BITMAP
001DE3
00BF50
03D600
000000
BF5E90
BFFC80
BF7000
BF0000
BF0000
BF0000
BF0000
BF0000
BF0000
BF0000
BF0000
ENDCHAR
STARTCHAR uni0156
ENCODING 342
SWIDTH 530 0
DWIDTH 11 0
BBX 10 19 1 -5
BITMAP
7FFFFEA200
7FA89BFD10
7F50008F70
7F50002FA0
7F50001FB0
7F50005F90
7F5004DF30
7FFFFFF600
7FA88FB000
7F500BF300
7F5004FA00
7F5000CF20
7F50005F90
7F50000DF2
0000000000
0009F00000
000BE00000
000EA00000
001B300000
ENDCHAR
STARTCHAR uni0157
ENCODING 343
SWIDTH 304 0
DWIDTH 6 0
BBX 6 16 0 -5
BITMAP
0BF5E9
0BFFC8
0BF700
0BF000
0BF000
0BF000
0BF000
0BF000
0BF000
0BF000
0BF000
000000
08F100
09F000
0DB000
1B3000
ENDCHAR
STARTCHAR Rcaron
ENCODING 344
SWIDTH 530 0
DWIDTH 11 0
BBX 10 18 1 0
BITMAP
03F51E8000
006EAC0000
000AE20000
0000000000
7FFFFEA200
7FA89BFD10
7F50008F70
7F50002FA0
7F50001FB0
7F50005F90
7F5004DF30
7FFFFFF600
7FA88FB000
7F500BF300
7F5004FA00
7F5000CF20
7F50005F90
7F50000DF2
ENDCHAR
STARTCHAR rcaron
ENCODING 345
SWIDTH 304 0
DWIDTH 6 0
BBX 6 16 1 0
BITMAP
CA0AD1
2E9E30
05F600
000000
000000
BF5E90
BFFC80
BF7000
BF0000
BF0000
BF0000
BF0000
BF0000
BF0000
BF0000
BF0000
ENDCHAR
STARTCHAR Sacute
ENCODING 346
SWIDTH 518 0
DWIDTH 10 0
BBX 10 18 0 0
BITMAP
000003FD10
00001DE200
00005D3000
0000000000
002AEFC600
02EFA9DF80
09F6000CF2
0CF10006F7
0AF4000152
05FD500000
006EFD8100
00028EFE50
0000006EE2
15300007F6
1FB00004F8
0BF40009F5
03EFA9BFC0
0029EED810
ENDCHAR
STARTCHAR sacute
ENCODING 347
SWIDTH 455 0
DWIDTH 9 0
BBX 8 15 1 0
BITMAP
00009F80
0005FA00
000AB000
00000000
04CED700
4FD8CF80
9F200DE0
AF300230
4FE81000
04CFF810
0004CFA0
54000CF1
EE000AF1
7FC8AFA0
05CED910
ENDCHAR
STARTCHAR Scircumflex
ENCODING 348
SWIDTH 518 0
DWIDTH 10 0
BBX 10 18 0 0
BITMAP
0000AF4000
0008E9E200
001C60C700
0000000000
002AEFC600
02EFA9DF80
09F6000CF2
0CF10006F7
0AF4000152
05FD500000
006EFD8100
00028EFE50
0000006EE2
15300007F6
1FB00004F8
0BF40009F5
03EFA9BFC0
0029EED810
ENDCHAR
STARTCHAR scircumflex
ENCODING 349
SWIDTH 455 0
DWIDTH 9 0
BBX 8 16 1 0
BITMAP
002EC000
01DBDA00
05D24D30
00000000
00000000
04CED700
4FD8CF80
9F200DE0
AF300230
4FE81000
04CFF810
0004CFA0
54000CF1
EE000AF1
7FC8AFA0
05CED910
ENDCHAR
STARTCHAR Scedilla
ENCODING 350
SWIDTH 518 0
DWIDTH 10 0
BBX 10 18 0 -4
BITMAP
002AEFC600
02EFA9DF80
09F6000CF2
0CF10006F7
0AF4000152
05FD500000
006EFD8100
00028EFE50
0000006EE2
15300007F6
1FB00004F8
0BF40009F5
03EFA9BFC0
0029EED810
00005E0000
000029B000
000007F100
00006D7000
ENDCHAR
STARTCHAR scedilla
ENCODING 351
SWIDTH 455 0
DWIDTH 9 0
BBX 8 15 1 -4
BITMAP
04CED700
4FD8CF80
9F200DE0
AF300230
4FE81000
04CFF810
0004CFA0
54000CF1
EE000AF1
7FC8AFA0
05CED910
000C8000
0004C500
0002C900
000DB200
ENDCHAR
STARTCHAR Scaron
ENCODING 352
SWIDTH 518 0
DWIDTH 10 0
BBX 10 18 0 0
BITMAP
002E70D900
0005E9D100
00009F3000
0000000000
002AEFC600
02EFA9DF80
09F6000CF2
0CF10006F7
0AF4000152
05FD500000
006EFD8100
00028EFE50
0000006EE2
15300007F6
1FB00004F8
0BF40009F5
03EFA9BFC0
0029EED810
ENDCHAR
STARTCHAR scaron
ENCODING 353
SWIDTH 455 0
DWIDTH 9 0
BBX 8 16 1 0
BITMAP
07E24F40
00BBD800
001EB000
00000000
00000000
04CED700
4FD8CF80
9F200DE0
AF300230
4FE81000
04CFF810
0004CFA0
54000CF1
EE000AF1
7FC8AFA0
05CED910
ENDCHAR
STARTCHAR uni0162
ENCODING 354
SWIDTH 520 0
DWIDTH 10 0
BBX 10 18 0 -4
BITMAP
6FFFFFFFFD
3888DF9887
0000AF2000
0000AF2000
0000AF2000
0000AF2000
0000AF2000
0000AF2000
0000AF2000
0000AF2000
0000AF2000
0000AF2000
0000AF2000
0000AF2000
00007D0000
00002A9000
000018E000
00008D5000
ENDCHAR
STARTCHAR uni0163
ENCODING 355
SWIDTH 295 0
DWIDTH 6 0
BBX 6 18 0 -4
BITMAP
02F800
02F800
02F800
CFFFF2
57FB61
02F800
02F800
02F800
02F800
02F800
02F800
02F900
00EE91
005EE2
000B90
0004C6
0001BA
000CC3
ENDCHAR
STARTCHAR Tcaron
ENCODING 356
SWIDTH 520 0
DWIDTH 10 0
BBX 10 18 0 0
BITMAP
002E61D800
0006EAC000
0000AE2000
0000000000
6FFFFFFFFD
3888DF9887
0000AF2000
0000AF2000
0000AF2000
0000AF2000
0000AF2000
0000AF2000
0000AF2000
0000AF2000
0000AF2000
0000AF2000
0000AF2000
0000AF2000
ENDCHAR
STARTCHAR tcaron
ENCODING 357
SWIDTH 314 0
DWIDTH 6 0
BBX 7 16 0 0
BITMAP
00001F90
00002F80
02F85F40
02F85A00
02F80000
CFFFF200
57FB6100
02F80000
02F80000
02F80000
02F80000
02F80000
02F80000
02F90000
00EE9100
005EE200
ENDCHAR
STARTCHAR Tbar
ENCODING 358
SWIDTH 520 0
DWIDTH 10 0
BBX 10 14 0 0
BITMAP
6FFFFFFFFD
3888DF9887
0000AF2000
0000AF2000
0000AF2000
005FFFFF00
0027DF8700
0000AF2000
0000AF2000
0000AF2000
0000AF2000
0000AF2000
0000AF2000
0000AF2000
ENDCHAR
STARTCHAR tbar
ENCODING 359
SWIDTH 295 0
DWIDTH 6 0
BBX 6 14 0 0
BITMAP
02F800
02F800
02F800
CFFFF2
57FB61
02F800
FFFFF5
78FC72
02F800
02F800
02F800
02F900
00EE91
005EE2
ENDCHAR
STARTCHAR Utilde
ENCODING 360
SWIDTH 561 0
DWIDTH 11 0
BBX 9 18 1 0
BITMAP
0015105400
01DFD7E600
04E17EB100
0000000000
BF10000CF0
BF10000CF0
BF10000CF0
BF10000CF0
BF10000CF0
BF10000CF0
BF10000CF0
BF10000CF0
BF10000CF0
BF10000CF0
AF20000DE0
7F80004FA0
1DFB9AFE30
019DFEA300
ENDCHAR
STARTCHAR utilde
ENCODING 361
SWIDTH 483 0
DWIDTH 10 0
BBX 8 16 1 0
BITMAP
01520450
0BFE7C90
1F35DD20
00000000
00000000
BF0006F5
BF0006F5
BF0006F5
BF0006F5
BF0006F5
BF0006F5
BF0006F5
AF0006F5
8F400AF5
3FD9CFF5
07EFB7F5
ENDCHAR
STARTCHAR Umacron
ENCODING 362
SWIDTH 561 0
DWIDTH 11 0
BBX 9 18 1 0
BITMAP
0166666300
03FFFFF800
0000000000
0000000000
BF10000CF0
BF10000CF0
BF10000CF0
BF10000CF0
BF10000CF0
BF10000CF0
BF10000CF0
BF10000CF0
BF10000CF0
BF10000CF0
AF20000DE0
7F80004FA0
1DFB9AFE30
019DFEA300
ENDCHAR
STARTCHAR umacron
ENCODING 363
SWIDTH 483 0
DWIDTH 10 0
BBX 8 15 1 0
BITMAP
06666640
0FFFFFB0
00000000
00000000
BF0006F5
BF0006F5
BF0006F5
BF0006F5
BF0006F5
BF0006F5
BF0006F5
AF0006F5
8F400AF5
3FD9CFF5
07EFB7F5
ENDCHAR
STARTCHAR Ubreve
ENCODING 364
SWIDTH 561 0
DWIDTH 11 0
BBX 9 19 1 0
BITMAP
0120002100
02F936F600
005CFD7000
0000000000
0000000000
BF10000CF0
BF10000CF0
BF10000CF0
BF10000CF0
BF10000CF0
BF10000CF0
BF10000CF0
BF10000CF0
BF10000CF0
BF10000CF0
AF20000DE0
7F80004FA0
1DFB9AFE30
019DFEA300
ENDCHAR
STARTCHAR ubreve
ENCODING 365
SWIDTH 483 0
DWIDTH 10 0
BBX 8 16 1 0
BITMAP
02100220
0EB34E90
03BEE910
00000000
00000000
BF0006F5
BF0006F5
BF0006F5
BF0006F5
BF0006F5
BF0006F5
BF0006F5
AF0006F5
8F400AF5
3FD9CFF5
07EFB7F5
ENDCHAR
STARTCHAR Uring
ENCODING 366
SWIDTH 561 0
DWIDTH 11 0
BBX 9 19 1 0
BITMAP
000ADB2000
006A079000
006A079000
000ADC2000
0000000000
BF10000CF0
BF10000CF0
BF10000CF0
BF10000CF0
BF10000CF0
BF10000CF0
BF10000CF0
BF10000CF0
BF10000CF0
BF10000CF0
AF20000DE0
7F80004FA0
1DFB9AFE30
019DFEA300
ENDCHAR
STARTCHAR uring
ENCODING 367
SWIDTH 483 0
DWIDTH 10 0
BBX 8 16 1 0
BITMAP
007DC300
02D13C00
02D03C00
008DD400
00000000
BF0006F5
BF0006F5
BF0006F5
BF0006F5
BF0006F5
BF0006F5
BF0006F5
AF0006F5
8F400AF5
3FD9CFF5
07EFB7F5
ENDCHAR
STARTCHAR Uhungarumlaut
ENCODING 368
SWIDTH 561 0
DWIDTH 11 0
BBX 9 18 1 0
BITMAP
0007F5BF30
001EB7F700
004D3AB000
0000000000
BF10000CF0
BF10000CF0
BF10000CF0
BF10000CF0
BF10000CF0
BF10000CF0
BF10000CF0
BF10000CF0
BF10000CF0
BF10000CF0
AF20000DE0
7F80004FA0
1DFB9AFE30
019DFEA300
ENDCHAR
STARTCHAR uhungarumlaut
ENCODING 369
SWIDTH 483 0
DWIDTH 10 0
BBX 8 15 1 0
BITMAP
004F88F6
00CD4FA0
02C58C10
00000000
BF0006F5
BF0006F5
BF0006F5
BF0006F5
BF0006F5
BF0006F5
BF0006F5
AF0006F5
8F400AF5
3FD9CFF5
07EFB7F5
ENDCHAR
STARTCHAR Uogonek
ENCODING 370
SWIDTH 561 0
DWIDTH 11 0
BBX 9 18 1 -4
BITMAP
BF10000CF0
BF10000CF0
BF10000CF0
BF10000CF0
BF10000CF0
BF10000CF0
BF10000CF0
BF10000CF0
BF10000CF0
BF10000CF0
AF20000DE0
7F80004FA0
1DFB9AFE30
019DFFC200
00009E1000
0000D90000
0000DC7000
00006EC000
ENDCHAR
STARTCHAR uogonek
ENCODING 371
SWIDTH 483 0
DWIDTH 10 0
BBX 8 15 1 -4
BITMAP
BF0006F5
BF0006F5
BF0006F5
BF0006F5
BF0006F5
BF0006F5
BF0006F5
AF0006F5
8F400AF5
3FD9CFF5
07EFB7F5
00001CA0
00007F10
00008F73
00003DE4
ENDCHAR
STARTCHAR Wcircumflex
ENCODING 372
SWIDTH 761 0
DWIDTH 15 0
BBX 15 18 0 0
BITMAP
0000003EA0000000
000002EAE8000000
000007C16C200000
0000000000000000
3F90002F90003F90
0FB0005FC0005F60
0CE0009FF1008F30
09F200CCF400BF00
06F501F6E700DC00
03F704F3BB01F900
00FA08E07E04F600
00CD0BB04F37F300
009F1E701F69F000
006F7F300C9CC000
003FCE0008DE9000
000FFB0005FF6000
000CF80001FF3000
0009F40000DE0000
ENDCHAR
STARTCHAR wcircumflex
ENCODING 373
SWIDTH 649 0
DWIDTH 13 0
BBX 13 16 0 0
BITMAP
000007F6000000
00005F9F400000
0000A90A900000
00000000000000
00000000000000
6F4005F4005F50
2F8009F8008F20
0EB00DFC00BD00
0AE02FCF10EA00
07F25F4F52F600
03F59D0E95F300
00F9D90AC8E000
00BEF506FDB000
008FF102FF7000
004FC000DF4000
001F80009F0000
ENDCHAR
STARTCHAR Ycircumflex
ENCODING 374
SWIDTH 524 0
DWIDTH 10 0
BBX 10 18 0 0
BITMAP
0000AF4000
0008E9E200
001C60C700
0000000000
7F800001FE
1EE00007F7
08F5000DE1
02FC005F80
00AF30BF20
003F92FA00
000BE9F300
0004FFB000
0000CF4000
0000AF2000
0000AF2000
0000AF2000
0000AF2000
0000AF2000
ENDCHAR
STARTCHAR ycircumflex
ENCODING 375
SWIDTH 416 0
DWIDTH 8 0
BBX 8 20 0 -4
BITMAP
0009F400
007F9E30
01B70B80
00000000
00000000
8F5001FC
3F9004F8
0ED008F3
09F20BE0
05F50FA0
01F94F60
00BD7F10
007FDC00
002FF800
000DF400
0009E000
000CA000
003F5000
19ED1000
2EC30000
ENDCHAR
STARTCHAR Ydieresis
ENCODING 376
SWIDTH 524 0
DWIDTH 10 0
BBX 10 17 0 0
BITMAP
00BE207F40
00AE207E40
0000000000
7F800001FE
1EE00007F7
08F5000DE1
02FC005F80
00AF30BF20
003F92FA00
000BE9F300
0004FFB000
0000CF4000
0000AF2000
0000AF2000
0000AF2000
0000AF2000
0000AF2000
ENDCHAR
STARTCHAR Zacute
ENCODING 377
SWIDTH 522 0
DWIDTH 10 0
BBX 10 18 0 0
BITMAP
000004FD10
00001DE200
00005D3000
0000000000
1FFFFFFFF5
0888888DF4
0000003FB0
000000CF20
000006F800
00001ED100
00008F5000
0002FC0000
000BF30000
005F900000
00DE100000
07F7000000
1EF8888885
2FFFFFFFF9
ENDCHAR
STARTCHAR zacute
ENCODING 378
SWIDTH 438 0
DWIDTH 9 0
BBX 8 15 0 0
BITMAP
00002EE2
0000CE30
0004D500
00000000
1FFFFFFC
08888AFA
00000CE2
00006F70
0001ED00
0009F400
003FA000
00CF2000
06F80000
0EF87777
1FFFFFFF
ENDCHAR
STARTCHAR Zdotaccent
ENCODING 379
SWIDTH 522 0
DWIDTH 10 0
BBX 10 17 0 0
BITMAP
00009F3000
00009E3000
0000000000
1FFFFFFFF5
0888888DF4
0000003FB0
000000CF20
000006F800
00001ED100
00008F5000
0002FC0000
000BF30000
005F900000
00DE100000
07F7000000
1EF8888885
2FFFFFFFF9
ENDCHAR
STARTCHAR zdotaccent
ENCODING 380
SWIDTH 438 0
DWIDTH 9 0
BBX 8 16 0 0
BITMAP
00001000
0007F500
0007E400
00000000
00000000
1FFFFFFC
08888AFA
00000CE2
00006F70
0001ED00
0009F400
003FA000
00CF2000
06F80000
0EF87777
1FFFFFFF
ENDCHAR
STARTCHAR Zcaron
ENCODING 381
SWIDTH 522 0
DWIDTH 10 0
BBX 10 18 0 0
BITMAP
002E61D900
0005EAD100
00009E3000
0000000000
1FFFFFFFF5
0888888DF4
0000003FB0
000000CF20
000006F800
00001ED100
00008F5000
0002FC0000
000BF30000
005F900000
00DE100000
07F7000000
1EF8888885
2FFFFFFFF9
ENDCHAR
STARTCHAR zcaron
ENCODING 382
SWIDTH 438 0
DWIDTH 9 0
BBX 8 16 0 0
BITMAP
01D90BB0
003F9E20
0007F400
00000000
00000000
1FFFFFFC
08888AFA
00000CE2
00006F70
0001ED00
0009F400
003FA000
00CF2000
06F80000
0EF87777
1FFFFFFF
ENDCHAR
STARTCHAR longs
ENCODING 383
SWIDTH 234 0
DWIDTH 5 0
BBX 5 15 1 0
BITMAP
04CF60
1EE830
6F6000
8F4000
8F3000
8F3000
8F3000
8F3000
8F3000
8F3000
8F3000
8F3000
8F3000
8F3000
8F3000
ENDCHAR
STARTCHAR uni018F
ENCODING 399
SWIDTH 597 0
DWIDTH 12 0
BBX 11 14 0 0
BITMAP
005BEFD81000
00CEA9CFD200
00200006FC00
00000000AF40
000000005F80
000000002FB0
000000000FC0
2FFFFFFFFFC0
2FC777777FB0
1FB000003F80
0CE000008F30
07F80003FB00
00BFC9AFD200
0007DFD91000
ENDCHAR
STARTCHAR florin
ENCODING 402
SWIDTH 309 0
DWIDTH 6 0
BBX 6 19 0 -4
BITMAP
002AED
00BFA8
00FC00
01FA00
7FFFF3
36FC61
01FA00
01FA00
01FA00
01FA00
01FA00
01FA00
01FA00
01FA00
01FA00
01FA00
03F800
7CF400
DE7000
ENDCHAR
STARTCHAR Ohorn
ENCODING 416
SWIDTH 592 0
DWIDTH 12 0
BBX 12 16 0 0
BITMAP
000000000068
0000000000BD
0005CEEB44F8
006FEABFFFC1
02FC1004FE00
09F50000AF40
0DE000005F70
0FC000003F90
1FB000002FA0
1FB000002F90
0FC000003F80
0DE000005F60
09F50000AF20
02FC1004FB00
007FEABFE200
0005CEEA2000
ENDCHAR
STARTCHAR ohorn
ENCODING 417
SWIDTH 502 0
DWIDTH 10 0
BBX 11 13 0 0
BITMAP
000000001410
000000003F20
001AEEB38E00
01DF99FFE500
07F6006F9000
0CE0000EE000
0FC0000BF000
1FA0000AF100
0FB0000BF000
0CE0000EC000
07F5005F7000
01DF98ED1000
002AEEA10000
ENDCHAR
STARTCHAR Uhorn
ENCODING 431
SWIDTH 608 0
DWIDTH 12 0
BBX 13 15 1 0
BITMAP
00000000004D20
BF10000CF07F10
BF10000CF3DC00
BF10000CFFD200
BF10000CF30000
BF10000CF00000
BF10000CF00000
BF10000CF00000
BF10000CF00000
BF10000CF00000
BF10000CF00000
9F30000ED00000
5FA0007F900000
0BFC9BFD100000
008DFE91000000
ENDCHAR
STARTCHAR uhorn
ENCODING 432
SWIDTH 549 0
DWIDTH 11 0
BBX 10 13 1 0
BITMAP
0000000012
000000005E
BF0006F69B
BF0006FFD3
BF0006F600
BF0006F500
BF0006F500
BF0006F500
BF0006F500
AF0006F500
8F400AF500
3FD9CFF500
07EFB7F500
ENDCHAR
STARTCHAR uni01F0
ENCODING 496
SWIDTH 237 0
DWIDTH 5 0
BBX 6 20 -1 -4
BITMAP
0D90AC
03E9E2
006F50
000000
000000
006F50
006F50
006F50
006F50
006F50
006F50
006F50
006F50
006F50
006F50
006F50
007F40
008F30
28ED00
3EC300
ENDCHAR
STARTCHAR Aringacute
ENCODING 506
SWIDTH 576 0
DWIDTH 12 0
BBX 11 19 0 0
BITMAP
000000BC1000
000004C10000
00003EB00000
000095A30000
00004EC00000
00002FA00000
00007FF10000
0000CEF50000
0002F7EA0000
0007F2AE1000
000CD05F5000
002F901FA000
007F400BE100
00CE0007F500
02FFFFFFFA00
07FA8888DE00
0BF100008F50
1FB000003FA0
6F6000000DE0
ENDCHAR
STARTCHAR aringacute
ENCODING 507
SWIDTH 479 0
DWIDTH 10 0
BBX 8 16 1 0
BITMAP
00009E20
0002C300
002DD200
00688600
002DD200
04BEEA10
4FD89FB0
8D200AF1
000008F3
02ADFFF3
3FD74AF3
AF2008F3
DD0008F3
CE101CF3
7FC9DEF4
08DE96F7
ENDCHAR
STARTCHAR AEacute
ENCODING 508
SWIDTH 812 0
DWIDTH 16 0
BBX 16 18 0 0
BITMAP
00000000AF700000
00000006F9000000
0000000AB0000000
0000000000000000
0000001EFFFFFFF4
0000009FFC777772
000002FBFA000000
000009F3FA000000
00002FB0FB000000
0000AF30FB000000
0002FB00EFFFFF90
000AF400EE777740
003FC000DD000000
00AFFFFFFE000000
03FEBBBBEE000000
0BF50000CF000000
4FC00000BF777775
BF500000AFFFFFFC
ENDCHAR
STARTCHAR aeacute
ENCODING 509
SWIDTH 728 0
DWIDTH 15 0
BBX 14 15 0 0
BITMAP
00000004FC1000
0000001EE20000
0000006D300000
00000000000000
007DFD708EFB30
08FC8CFCFA8EE1
0BC000EF8003F8
000000CF1000EA
007CEEFFFFFFFC
09FB66DF666665
0FC000CF100000
2F9000CF400000
1FB002EFB00022
0BF99EEAFB8AF8
02BEEA207DFD91
ENDCHAR
STARTCHAR Oslashacute
ENCODING 510
SWIDTH 600 0
DWIDTH 12 0
BBX 10 19 1 -1
BITMAP
000006FA00
00003FC100
00008C1000
0000000025
003AEEB4B8
04EFABEFE1
0DE3002FE1
5F80006FF6
AF3001D8FA
CF0007C0FC
DE001E40ED
DE008B00ED
CF02F300FC
AF2AA002FA
6FAF2006F6
1EF9002EE1
07FEAAEF50
0C9AEEB400
3A00000000
ENDCHAR
STARTCHAR oslashacute
ENCODING 511
SWIDTH 498 0
DWIDTH 10 0
BBX 9 17 1 -2
BITMAP
0000CF4000
0009F60000
002C800000
000001E200
01AEECB000
1DF99FD100
7F604FF800
CE00A7ED00
FC01E1BF00
FA07A0AF10
FB0D30BF10
CE5C00ED00
7FE605F800
1DF98ED100
08DEEA2000
1E20000000
0100000000
ENDCHAR
STARTCHAR uni0218
ENCODING 536
SWIDTH 518 0
DWIDTH 10 0
BBX 10 19 0 -5
BITMAP
002AEFC600
02EFA9DF80
09F6000CF2
0CF10006F7
0AF4000152
05FD500000
006EFD8100
00028EFE50
0000006EE2
15300007F6
1FB00004F8
0BF40009F5
03EFA9BFC0
0029EED810
0000000000
00008F2000
00009F1000
0000CC0000
0000B40000
ENDCHAR
STARTCHAR uni0219
ENCODING 537
SWIDTH 455 0
DWIDTH 9 0
BBX 8 17 1 -6
BITMAP
04CED700
4FD8CF80
9F200DE0
AF300230
4FE81000
04CFF810
0004CFA0
54000CF1
EE000AF1
7FC8AFA0
05CED910
00000000
00000000
000EA000
000F9000
004F5000
004B0000
ENDCHAR
STARTCHAR uni021A
ENCODING 538
SWIDTH 520 0
DWIDTH 10 0
BBX 10 19 0 -5
BITMAP
6FFFFFFFFD
3888DF9887
0000AF2000
0000AF2000
0000AF2000
0000AF2000
0000AF2000
0000AF2000
0000AF2000
0000AF2000
0000AF2000
0000AF2000
0000AF2000
0000AF2000
0000000000
00009F0000
0000AE0000
0000DA0000
0001B30000
ENDCHAR
STARTCHAR uni021B
ENCODING 539
SWIDTH 295 0
DWIDTH 6 0
BBX 6 19 0 -5
BITMAP
02F800
02F800
02F800
CFFFF2
57FB61
02F800
02F800
02F800
02F800
02F800
02F800
02F900
00EE91
005EE2
000000
000DB0
000EA0
003F60
003B10
ENDCHAR
STARTCHAR uni0237
ENCODING 567
SWIDTH 237 0
DWIDTH 5 0
BBX 5 15 -1 -4
BITMAP
006F50
006F50
006F50
006F50
006F50
006F50
006F50
006F50
006F50
006F50
006F50
007F40
008F30
28ED00
3EC300
ENDCHAR
STARTCHAR uni0259
ENCODING 601
SWIDTH 465 0
DWIDTH 9 0
BBX 8 11 1 0
BITMAP
19EFC500
8E98DF60
22001DE0
000007F4
000005F6
FFFFFFF7
FD777AF6
DD0008F4
AF201DD0
3FD8CF50
04CFD500
ENDCHAR
STARTCHAR uni02BC
ENCODING 700
SWIDTH 194 0
DWIDTH 4 0
BBX 4 5 0 10
BITMAP
0AF1
0AF0
0CD0
2F80
3B10
ENDCHAR
STARTCHAR circumflex
ENCODING 710
SWIDTH 428 0
DWIDTH 9 0
BBX 6 3 1 12
BITMAP
00BE20
09EAD1
2C51D6
ENDCHAR
STARTCHAR caron
ENCODING 711
SWIDTH 403 0
DWIDTH 8 0
BBX 6 3 1 12
BITMAP
6F23F5
0ACC90
01DC00
ENDCHAR
STARTCHAR uni02C9
ENCODING 713
SWIDTH 414 0
DWIDTH 8 0
BBX 7 1 1 13
BITMAP
9FFFFF10
ENDCHAR
STARTCHAR breve
ENCODING 728
SWIDTH 426 0
DWIDTH 9 0
BBX 6 3 1 12
BITMAP
9D219E
2CFFE5
001200
ENDCHAR
STARTCHAR dotaccent
ENCODING 729
SWIDTH 242 0
DWIDTH 5 0
BBX 3 3 1 12
BITMAP
0100
7F50
6E50
ENDCHAR
STARTCHAR ring
ENCODING 730
SWIDTH 334 0
DWIDTH 7 0
BBX 5 4 1 12
BITMAP
2CD900
A50B40
B50B40
3CD900
ENDCHAR
STARTCHAR ogonek
ENCODING 731
SWIDTH 253 0
DWIDTH 5 0
BBX 4 5 0 -4
BITMAP
0051
0AC1
4F30
6F84
1CE6
ENDCHAR
STARTCHAR tilde
ENCODING 732
SWIDTH 427 0
DWIDTH 9 0
BBX 7 3 1 12
BITMAP
03400810
5FFA8E00
A92BE600
ENDCHAR
STARTCHAR hungarumlaut
ENCODING 733
SWIDTH 331 0
DWIDTH 7 0
BBX 6 3 1 12
BITMAP
2FB5F9
9F4ED1
B86D30
ENDCHAR
STARTCHAR uni02F3
ENCODING 755
SWIDTH 263 0
DWIDTH 5 0
BBX 3 3 1 -4
BITMAP
6E90
C3D0
6E90
ENDCHAR
STARTCHAR gravecomb
ENCODING 768
SWIDTH 0 0
DWIDTH 0 0
BBX 4 3 -7 12
BITMAP
AF60
1DE1
03D5
ENDCHAR
STARTCHAR acutecomb
ENCODING 769
SWIDTH 0 0
DWIDTH 0 0
BBX 5 3 -6 12
BITMAP
02ED10
0AF300
2C6000
ENDCHAR
STARTCHAR tildecomb
ENCODING 771
SWIDTH 0 0
DWIDTH 0 0
BBX 7 3 -8 12
BITMAP
01510450
0BFE7C90
1F35DC20
ENDCHAR
STARTCHAR hookabovecomb
ENCODING 777
SWIDTH 0 0
DWIDTH 0 0
BBX 4 4 -6 12
BITMAP
5D70
05F2
2BE1
4F20
ENDCHAR
STARTCHAR uni030F
ENCODING 783
SWIDTH 0 0
DWIDTH 0 0
BBX 7 3 -8 12
BITMAP
7F8AF300
0AF7EB00
00BA6C20
ENDCHAR
STARTCHAR dotbelowcomb
ENCODING 803
SWIDTH 0 0
DWIDTH 0 0
BBX 3 2 -7 -3
BITMAP
BD10
CE10
ENDCHAR
STARTCHAR tonos
ENCODING 900
SWIDTH 256 0
DWIDTH 5 0
BBX 3 3 1 12
BITMAP
0CC0
0F70
1C10
ENDCHAR
STARTCHAR dieresistonos
ENCODING 901
SWIDTH 452 0
DWIDTH 9 0
BBX 7 4 1 12
BITMAP
000EB000
001F6000
CB2C2E90
CB001D90
ENDCHAR
STARTCHAR Alphatonos
ENCODING 902
SWIDTH 576 0
DWIDTH 12 0
BBX 11 15 0 0
BITMAP
00F900000000
03F42FA00000
03B07FF10000
0000CEF50000
0002F7EA0000
0007F2AE1000
000CD05F5000
002F901FA000
007F400BE100
00CE0007F500
02FFFFFFFA00
07FA8888DE00
0BF100008F50
1FB000003FA0
6F6000000DE0
ENDCHAR
STARTCHAR anoteleia
ENCODING 903
SWIDTH 243 0
DWIDTH 5 0
BBX 3 3 1 5
BITMAP
6E30
8F50
0200
ENDCHAR
STARTCHAR Epsilontonos
ENCODING 904
SWIDTH 496 0
DWIDTH 10 0
BBX 12 15 -2 0
BITMAP
6F4000000000
9D07FFFFFFF1
8707FA888881
0007F5000000
0007F5000000
0007F5000000
0007F5000000
0007FFFFFF50
0007FA888830
0007F5000000
0007F5000000
0007F5000000
0007F5000000
0007FA888881
0007FFFFFFF3
ENDCHAR
STARTCHAR Etatonos
ENCODING 905
SWIDTH 620 0
DWIDTH 12 0
BBX 13 15 -2 0
BITMAP
4F500000000000
7E07F500000ED0
7807F500000ED0
0007F500000ED0
0007F500000ED0
0007F500000ED0
0007F500000ED0
0007FFFFFFFFD0
0007FA88888FD0
0007F500000ED0
0007F500000ED0
0007F500000ED0
0007F500000ED0
0007F500000ED0
0007F500000ED0
ENDCHAR
STARTCHAR Iotatonos
ENCODING 906
SWIDTH 250 0
DWIDTH 5 0
BBX 6 15 -2 0
BITMAP
4F6000
7E16F6
6906F6
0006F6
0006F6
0006F6
0006F6
0006F6
0006F6
0006F6
0006F6
0006F6
0006F6
0006F6
0006F6
ENDCHAR
STARTCHAR Omicrontonos
ENCODING 908
SWIDTH 610 0
DWIDTH 12 0
BBX 12 15 -1 0
BITMAP
0DC000000000
1F603BEFC700
2C14FFBADFA0
000DF3000BF5
004F900002FA
007F500000ED
008F400000CE
009F300000CF
009F300000CF
008F400000CE
007F500000DD
004F900002FA
000DE3000AF5
0004FFAADFA0
00003BEFD700
ENDCHAR
STARTCHAR Upsilontonos
ENCODING 910
SWIDTH 573 0
DWIDTH 11 0
BBX 13 15 -2 0
BITMAP
9F100000000000
CA07F800001FE0
B401EE00007F70
00009F5000DE10
00002FB005F800
00000AF30BF200
000003F92F9000
000000BE9F2000
0000004FFB0000
0000000CF40000
0000000AF20000
0000000AF20000
0000000AF20000
0000000AF20000
0000000AF20000
ENDCHAR
STARTCHAR Omegatonos
ENCODING 911
SWIDTH 591 0
DWIDTH 12 0
BBX 12 15 -1 0
BITMAP
0DC000000000
1F603BEEA200
2C14FE9AFE20
000DE2003FB0
005F80000BF2
009F400006F6
00AF200005F7
00BF200004F8
00AF200004F8
009F300006F6
006F500007F3
001E90000CD0
0008E2004F50
0058FE46EE84
00AFFF79FFF7
ENDCHAR
STARTCHAR iotadieresistonos
ENCODING 912
SWIDTH 299 0
DWIDTH 6 0
BBX 7 17 -1 0
BITMAP
0009F100
000BB000
7F2979E0
7E2009D0
00000000
00000000
002F8000
002F8000
002F8000
002F8000
002F8000
002F8000
002F8000
002F8000
002F9000
000EE910
0005EE20
ENDCHAR
STARTCHAR Alpha
ENCODING 913
SWIDTH 576 0
DWIDTH 12 0
BBX 11 14 0 0
BITMAP
00002FA00000
00007FF10000
0000CEF50000
0002F7EA0000
0007F2AE1000
000CD05F5000
002F901FA000
007F400BE100
00CE0007F500
02FFFFFFFA00
07FA8888DE00
0BF100008F50
1FB000003FA0
6F6000000DE0
ENDCHAR
STARTCHAR Beta
ENCODING 914
SWIDTH 545 0
DWIDTH 11 0
BBX 9 14 1 0
BITMAP
7FFFFD9200
7FA88BFD00
7F50009F50
7F50005F70
7F50007F60
7F5004ED10
7FFFFFE200
7FA88AFC10
7F50006F70
7F50001FB0
7F50002FB0
7F50007F80
7FA88AFE20
7FFFFEA200
ENDCHAR
STARTCHAR Gamma
ENCODING 915
SWIDTH 487 0
DWIDTH 10 0
BBX 8 14 1 0
BITMAP
6FFFFFFF
6FB88888
6F600000
6F600000
6F600000
6F600000
6F600000
6F600000
6F600000
6F600000
6F600000
6F600000
6F600000
6F600000
ENDCHAR
STARTCHAR Delta.dup1
ENCODING 916
SWIDTH 614 0
DWIDTH 12 0
BBX 12 14 0 0
BITMAP
00000BF30000
00001FF80000
00007FED0000
0000CD8F3000
0003F83F8000
0008F30DD000
000DD008F300
004F7003F800
009F2000DD00
00EC00009F30
05F700004F80
0AF200000ED0
1FE888888DF3
6FFFFFFFFFF8
ENDCHAR
STARTCHAR Epsilon
ENCODING 917
SWIDTH 496 0
DWIDTH 10 0
BBX 9 14 1 0
BITMAP
7FFFFFFF10
7FA8888810
7F50000000
7F50000000
7F50000000
7F50000000
7FFFFFF500
7FA8888300
7F50000000
7F50000000
7F50000000
7F50000000
7FA8888810
7FFFFFFF30
ENDCHAR
STARTCHAR Zeta
ENCODING 918
SWIDTH 522 0
DWIDTH 10 0
BBX 10 14 0 0
BITMAP
1FFFFFFFF5
0888888DF4
0000003FB0
000000CF20
000006F800
00001ED100
00008F5000
0002FC0000
000BF30000
005F900000
00DE100000
07F7000000
1EF8888885
2FFFFFFFF9
ENDCHAR
STARTCHAR Eta
ENCODING 919
SWIDTH 620 0
DWIDTH 12 0
BBX 10 14 1 0
BITMAP
7F500000ED
7F500000ED
7F500000ED
7F500000ED
7F500000ED
7F500000ED
7FFFFFFFFD
7FA88888FD
7F500000ED
7F500000ED
7F500000ED
7F500000ED
7F500000ED
7F500000ED
ENDCHAR
STARTCHAR Theta
ENCODING 920
SWIDTH 593 0
DWIDTH 12 0
BBX 10 14 1 0
BITMAP
004BEEA200
06FEABFE30
1ED1004FC0
8F500009F3
CF000004F7
ED000002F9
FC1FFFF2FB
FC177771FB
ED000002F9
CF100004F8
8F600009F4
2ED1003FC0
06FEAAFE30
004BEEA200
ENDCHAR
STARTCHAR Iota
ENCODING 921
SWIDTH 250 0
DWIDTH 5 0
BBX 3 14 1 0
BITMAP
6F60
6F60
6F60
6F60
6F60
6F60
6F60
6F60
6F60
6F60
6F60
6F60
6F60
6F60
ENDCHAR
STARTCHAR Kappa
ENCODING 922
SWIDTH 544 0
DWIDTH 11 0
BBX 10 14 1 0
BITMAP
7F50002EE2
7F5000BF50
7F5008F900
7F504FC000
7F51DE2000
7F5AF50000
7FCFF20000
7FFDFA0000
7FD1AF5000
7F502EE100
7F5007F900
7F5000CF40
7F50004FD0
7F500009F8
ENDCHAR
STARTCHAR Lambda
ENCODING 923
SWIDTH 572 0
DWIDTH 11 0
BBX 11 14 0 0
BITMAP
00004F900000
00009FE00000
0000DFF40000
0003FBF80000
0008F4ED0000
000CE09F3000
002FA05F7000
007F601FC000
00BF100BF200
01FC0007F600
06F70002FB00
0AF30000DF10
0EE000008F50
4F9000004FA0
ENDCHAR
STARTCHAR Mu
ENCODING 924
SWIDTH 755 0
DWIDTH 15 0
BBX 13 14 1 0
BITMAP
7FE1000000DF80
7FF5000003FF80
7FFA000008FF80
7FDE00000DDF80
7F9F40003F8F80
7F4F90008F4F80
7F4AE000DC2F80
7F45F403F73F80
7F51E908F13F80
7F50AE0CB03F80
7F505F6F603F80
7F501EEF103F80
7F500AFB003F80
7F5005F6003F80
ENDCHAR
STARTCHAR Nu
ENCODING 925
SWIDTH 619 0
DWIDTH 12 0
BBX 10 14 1 0
BITMAP
7F900000EC
7FF20000EC
7FFA0000EC
7FDF3000EC
7F6EB000EC
7F57F300EC
7F51EB00EC
7F506F40EC
7F500DC0EC
7F5005F5EC
7F5000CDEC
7F50004FFC
7F50000BFC
7F500004FC
ENDCHAR
STARTCHAR Xi
ENCODING 926
SWIDTH 502 0
DWIDTH 10 0
BBX 8 14 1 0
BITMAP
CFFFFFFC
78888887
00000000
00000000
00000000
00000000
2FFFFFF3
18888881
00000000
00000000
00000000
00000000
68888887
CFFFFFFE
ENDCHAR
STARTCHAR Omicron
ENCODING 927
SWIDTH 600 0
DWIDTH 12 0
BBX 10 14 1 0
BITMAP
005CEEC500
07FEAAEF70
2FD1001DF2
7F600005F7
AF200002FA
BF000000FB
CF000000FC
CF000000FC
CF000000FB
AF200001FA
7F600005F7
2FD1001DF2
07FEAAEF70
005CEEC500
ENDCHAR
STARTCHAR Pi
ENCODING 928
SWIDTH 620 0
DWIDTH 12 0
BBX 10 14 1 0
BITMAP
6FFFFFFFFC
6FB88888FC
6F600000FC
6F600000FC
6F600000FC
6F600000FC
6F600000FC
6F600000FC
6F600000FC
6F600000FC
6F600000FC
6F600000FC
6F600000FC
6F600000FC
ENDCHAR
STARTCHAR Rho
ENCODING 929
SWIDTH 554 0
DWIDTH 11 0
BBX 10 14 1 0
BITMAP
7FFFFFC500
7FA889EF60
7F50002EE1
7F500009F4
7F500008F4
7F50000AF3
7F50017FC0
7FFFFFFD30
7FA8885100
7F50000000
7F50000000
7F50000000
7F50000000
7F50000000
ENDCHAR
STARTCHAR Sigma
ENCODING 931
SWIDTH 502 0
DWIDTH 10 0
BBX 10 14 0 0
BITMAP
3FFFFFFFD0
2FF9888870
07F8000000
00CF400000
002ED10000
0006F90000
0000BF4000
0000BF4000
0006F90000
002ED10000
00BF300000
07F8000000
2FF8888882
3FFFFFFFF3
ENDCHAR
STARTCHAR Tau
ENCODING 932
SWIDTH 520 0
DWIDTH 10 0
BBX 10 14 0 0
BITMAP
6FFFFFFFFD
3888DF9887
0000AF2000
0000AF2000
0000AF2000
0000AF2000
0000AF2000
0000AF2000
0000AF2000
0000AF2000
0000AF2000
0000AF2000
0000AF2000
0000AF2000
ENDCHAR
STARTCHAR Upsilon
ENCODING 933
SWIDTH 524 0
DWIDTH 10 0
BBX 10 14 0 0
BITMAP
7F800001FE
1EE00007F7
08F5000DE1
02FC005F80
00AF30BF20
003F92FA00
000BE9F300
0004FFB000
0000CF4000
0000AF2000
0000AF2000
0000AF2000
0000AF2000
0000AF2000
ENDCHAR
STARTCHAR Phi
ENCODING 934
SWIDTH 621 0
DWIDTH 12 0
BBX 12 14 0 0
BITMAP
00000AF20000
00000AF20000
0018DFFEB400
01CFBDFBEF60
08F60AF21DE1
0ED00AF206F7
2FA00AF203FA
3F900AF202FA
1FB00AF203F8
0CE10AF208F4
05FC3AF47FC0
007FFFFFFC10
00027CF84000
00000AF20000
ENDCHAR
STARTCHAR Chi
ENCODING 935
SWIDTH 550 0
DWIDTH 11 0
BBX 11 14 0 0
BITMAP
1EF10001EE10
07F80008F700
00DE101EE100
006F807F7000
000CE1ED0000
0005FCF60000
0000CFD00000
0000CFD00000
0006FBF70000
000DE1DE1000
007F706F8000
01EE100EE100
08F80007F900
1EE10001EF20
ENDCHAR
STARTCHAR Psi
ENCODING 936
SWIDTH 600 0
DWIDTH 12 0
BBX 11 14 0 0
BITMAP
3F901FB00CF0
3F901FB00CF0
3F901FB00CF0
3F901FB00CF0
3F901FB00CF0
2FA01FB00CF0
1FC01FB00ED0
0CF31FB05F90
05FD4FB5EF20
007FFFFFE400
00028FD61000
00001FB00000
00001FB00000
00001FB00000
ENDCHAR
STARTCHAR Omega.dup2
ENCODING 937
SWIDTH 581 0
DWIDTH 12 0
BBX 10 14 1 0
BITMAP
005CED8100
07FD9BFC10
2FC1006F80
8F50000DE0
CF100009F3
DE000008F4
EE000007F5
DE000007F5
CF000009F3
9F20000AE0
3F60000EA0
0BD1007F30
7AFD28FC82
DFFF4CFFF4
ENDCHAR
STARTCHAR Iotadieresis
ENCODING 938
SWIDTH 250 0
DWIDTH 5 0
BBX 7 17 -1 0
BITMAP
7F504F80
6E404E70
00000000
006F6000
006F6000
006F6000
006F6000
006F6000
006F6000
006F6000
006F6000
006F6000
006F6000
006F6000
006F6000
006F6000
006F6000
ENDCHAR
STARTCHAR Upsilondieresis
ENCODING 939
SWIDTH 524 0
DWIDTH 10 0
BBX 10 17 0 0
BITMAP
00BE207F40
00AE207E40
0000000000
7F800001FE
1EE00007F7
08F5000DE1
02FC005F80
00AF30BF20
003F92FA00
000BE9F300
0004FFB000
0000CF4000
0000AF2000
0000AF2000
0000AF2000
0000AF2000
0000AF2000
ENDCHAR
STARTCHAR alphatonos
ENCODING 940
SWIDTH 494 0
DWIDTH 10 0
BBX 9 16 1 0
BITMAP
0000EA0000
0002F50000
0003C00000
0000000000
0000000000
03CFC3F800
1EE9AEF800
8F5008F800
CE0003F800
EC0003F800
FB0003F800
FB0003F800
DD0003F800
9F4008F900
2FE99EFE40
04CFC38E60
ENDCHAR
STARTCHAR epsilontonos
ENCODING 941
SWIDTH 470 0
DWIDTH 9 0
BBX 8 16 1 0
BITMAP
0008F100
000BA000
000A5000
00000000
00000000
07DED920
8FC89FD1
CE0006B3
AF400000
1BFFF500
6FB77200
DD000000
FB000252
DE1008F5
6FD8AFD1
05CED910
ENDCHAR
STARTCHAR etatonos
ENCODING 942
SWIDTH 498 0
DWIDTH 10 0
BBX 8 20 1 -4
BITMAP
0005F500
0008E000
00078000
00000000
00000000
AE3CEC40
AFD99FE1
AF5007F6
AF1003F7
AF1003F8
AF1003F8
AF1003F8
AF1003F8
AF1003F8
AF1003F8
AF1003F8
000003F8
000003F8
000003F8
000003F8
ENDCHAR
STARTCHAR iotatonos
ENCODING 943
SWIDTH 299 0
DWIDTH 6 0
BBX 5 16 1 0
BITMAP
07F200
0BB000
095000
000000
000000
2F8000
2F8000
2F8000
2F8000
2F8000
2F8000
2F8000
2F8000
2F9000
0EE910
05EE20
ENDCHAR
STARTCHAR upsilondieresistonos
ENCODING 944
SWIDTH 480 0
DWIDTH 10 0
BBX 8 17 1 0
BITMAP
000AE000
000DA000
9E1A5BD0
8E100AC0
00000000
00000000
AF100ED0
AF100AF2
AF1006F6
AF1004F7
AF1002F9
AF1002F9
AF1003F8
9F2007F5
6F601DE1
1EE8CF70
04CFD700
ENDCHAR
STARTCHAR alpha
ENCODING 945
SWIDTH 494 0
DWIDTH 10 0
BBX 9 11 1 0
BITMAP
03CFC3F800
1EE9AEF800
8F5008F800
CE0003F800
EC0003F800
FB0003F800
FB0003F800
DD0003F800
9F4008F900
2FE99EFE40
04CFC38E60
ENDCHAR
STARTCHAR beta
ENCODING 946
SWIDTH 517 0
DWIDTH 10 0
BBX 9 18 1 -4
BITMAP
008DFB3000
0AFA8EE100
4F9004F800
7F4000FB00
8F3001FA00
8F3019F400
8F38FF8000
8F347CF500
8F3000DE00
8F30008F30
8F30008F30
8F4000DF10
8FF98CF800
8F8CFD7000
8F30000000
8F30000000
8F30000000
8F30000000
ENDCHAR
STARTCHAR gamma
ENCODING 947
SWIDTH 444 0
DWIDTH 9 0
BBX 9 15 0 -4
BITMAP
4F70007F40
0EB000BE00
0AF101FA00
05F505F500
01F909F100
00BD0DB000
007F5F7000
002FDF2000
000DFD0000
0008F80000
0005F50000
0005F50000
0005F50000
0005F50000
0005F50000
ENDCHAR
STARTCHAR delta
ENCODING 948
SWIDTH 498 0
DWIDTH 10 0
BBX 8 15 1 0
BITMAP
019EEB30
0AFA9C50
0EC00000
0CE30000
04EFA200
03CFFF50
2EC24EF3
8F2005F9
DD0000EC
FC0000CE
EC0000DE
CE0000EC
8F5006F7
1DF99FD1
02AEEA20
ENDCHAR
STARTCHAR epsilon
ENCODING 949
SWIDTH 470 0
DWIDTH 9 0
BBX 8 11 1 0
BITMAP
07DED920
8FC89FD1
CE0006B3
AF400000
1BFFF500
6FB77200
DD000000
FB000252
DE1008F5
6FD8AFD1
05CED910
ENDCHAR
STARTCHAR zeta
ENCODING 950
SWIDTH 462 0
DWIDTH 9 0
BBX 8 18 1 -4
BITMAP
CFFFFFF3
67777EE1
00006F50
0002EA00
000CE100
007F5000
01FB0000
08F30000
0DC00000
2F800000
3F800000
2FA00000
0CF93000
01AFFD30
00017FB0
00000DB0
00003F60
00003A00
ENDCHAR
STARTCHAR eta
ENCODING 951
SWIDTH 498 0
DWIDTH 10 0
BBX 8 15 1 -4
BITMAP
AE3CEC40
AFD99FE1
AF5007F6
AF1003F7
AF1003F8
AF1003F8
AF1003F8
AF1003F8
AF1003F8
AF1003F8
AF1003F8
000003F8
000003F8
000003F8
000003F8
ENDCHAR
STARTCHAR theta
ENCODING 952
SWIDTH 496 0
DWIDTH 10 0
BBX 8 14 1 0
BITMAP
01AEE910
0CF99FB0
5F7008F3
9F2003F8
CE0001FA
DD0000FB
DFFFFFFC
DE7777FB
DE0000FB
BF0001FA
9F3004F7
4F8009F3
0BF99FA0
01AEE910
ENDCHAR
STARTCHAR iota
ENCODING 953
SWIDTH 299 0
DWIDTH 6 0
BBX 5 11 1 0
BITMAP
2F8000
2F8000
2F8000
2F8000
2F8000
2F8000
2F8000
2F8000
2F9000
0EE910
05EE20
ENDCHAR
STARTCHAR kappa
ENCODING 954
SWIDTH 491 0
DWIDTH 10 0
BBX 8 11 1 0
BITMAP
8F3008F8
8F304FB0
8F32ED10
8F3CE300
8FFF7000
8FAFC000
8F39F600
8F31EE10
8F306FA0
8F300CF4
8F3004FD
ENDCHAR
STARTCHAR lambda
ENCODING 955
SWIDTH 485 0
DWIDTH 10 0
BBX 10 15 0 0
BITMAP
07EA000000
04CF500000
003FA00000
000DF10000
0008F50000
0008FA0000
000DFE1000
003FEF5000
008F5FA000
00CE0DE100
02FA08F500
07F503FA00
0BF100DE10
1FC0007FB0
6F80001CE1
ENDCHAR
STARTCHAR uni03BC
ENCODING 956
SWIDTH 498 0
DWIDTH 10 0
BBX 8 15 1 -4
BITMAP
8F2003F8
8F2003F8
8F2003F8
8F2003F8
8F2003F8
8F2003F8
8F3003F8
8F4003F8
8F7006F8
8FE89EF8
8FAED5F8
8F200000
8F200000
8F200000
8F200000
ENDCHAR
STARTCHAR nu
ENCODING 957
SWIDTH 427 0
DWIDTH 9 0
BBX 8 11 0 0
BITMAP
6F5000CE
2F9001F9
0CC005F5
08F108F1
04F50CB0
00E91F70
00AD4F30
006F9E00
002FF900
000CF500
0008F100
ENDCHAR
STARTCHAR xi
ENCODING 958
SWIDTH 431 0
DWIDTH 9 0
BBX 7 18 1 -4
BITMAP
029DFE60
2EFA8950
7F600000
7F400000
2EC30000
02CFFE00
09FB8700
7F600000
DD000000
FB000000
EC000000
BF300000
4FD50000
04DFEA20
00049FB0
00000CD0
00002E80
00003B00
ENDCHAR
STARTCHAR omicron
ENCODING 959
SWIDTH 501 0
DWIDTH 10 0
BBX 10 11 0 0
BITMAP
002AEEB200
02EF99FE20
09F5005FA0
0ED0000DE0
1FB0000AF1
1FA00009F2
1FB0000AF1
0ED0000CE0
09F5003FA0
02EF99EE20
002BEEB300
ENDCHAR
STARTCHAR pi
ENCODING 960
SWIDTH 520 0
DWIDTH 10 0
BBX 10 11 0 0
BITMAP
8FFFFFFFF8
49FC88AFA4
02F8006F50
02F8006F50
02F8006F50
02F8006F50
02F8006F50
02F8006F50
02F8005F60
02F8002FD8
02F80008EC
ENDCHAR
STARTCHAR rho
ENCODING 961
SWIDTH 498 0
DWIDTH 10 0
BBX 8 15 1 -4
BITMAP
008EEA20
0AFA9FD0
3FA007F6
7F5001FA
9F2000DD
AF1000CE
AF1000DD
AF1000EB
AF4006F7
AFE89FE1
AF6DFC40
AF100000
AF100000
AF100000
AF100000
ENDCHAR
STARTCHAR sigma1
ENCODING 962
SWIDTH 472 0
DWIDTH 9 0
BBX 8 15 1 -4
BITMAP
02AEE910
1DF9AFA0
7F6008F2
CE0004D4
EC000000
FB000000
EC000000
CF200000
6FB10000
0AFE7100
006CFF50
00003EC0
00000DB0
00003F60
00003A00
ENDCHAR
STARTCHAR sigma
ENCODING 963
SWIDTH 498 0
DWIDTH 10 0
BBX 9 11 1 0
BITMAP
02AEFFFFA0
1DF99FC850
7F6006F300
CE0001F900
EC0000DD00
FB0000CE00
EC0000DE00
CE0001FB00
7F6006F600
1DF99FC000
01AEE91000
ENDCHAR
STARTCHAR tau
ENCODING 964
SWIDTH 460 0
DWIDTH 9 0
BBX 9 11 0 0
BITMAP
2FFFFFFF50
177AFA7720
0005F60000
0005F60000
0005F60000
0005F60000
0005F60000
0005F60000
0005F60000
0002FD9000
00008EC100
ENDCHAR
STARTCHAR upsilon
ENCODING 965
SWIDTH 480 0
DWIDTH 10 0
BBX 8 11 1 0
BITMAP
AF100ED0
AF100AF2
AF1006F6
AF1004F7
AF1002F9
AF1002F9
AF1003F8
9F2007F5
6F601DE1
1EE8CF70
04CFD700
ENDCHAR
STARTCHAR phi
ENCODING 966
SWIDTH 617 0
DWIDTH 12 0
BBX 12 16 0 -5
BITMAP
008402CEB300
04FA09F9DF40
0BF20BE01ED0
0FC00CE008F3
2F900CE005F6
2F900CE004F7
1FB00CE005F6
0DE10CE00AF3
07FA0CE05FC0
00BFDDFBFE30
0007DFFD9200
00000CE00000
00000CE00000
00000CE00000
00000CE00000
00000CE00000
ENDCHAR
STARTCHAR chi
ENCODING 967
SWIDTH 438 0
DWIDTH 9 0
BBX 10 15 0 -4
BITMAP
7EA0008F30
4BF700EC00
00CD05F600
006F4BE100
001FBF9000
000BFF4000
0005FD0000
0005FA0000
000BFF1000
002FEF6000
007F5EB000
00DD09F200
04F803F800
0AF200CFA1
1FB0002CC0
ENDCHAR
STARTCHAR psi
ENCODING 968
SWIDTH 612 0
DWIDTH 12 0
BBX 12 16 0 -5
BITMAP
2F900DD02F90
2F900DD00DE0
2F900DD00AF3
2F900DD007F4
2F900DD006F5
1FA00DD005F6
0FC00DD007F5
0CF10DD00CF2
06FA0DD07FB0
00BFCEEBFD20
0007DFFD9100
00000DD00000
00000DD00000
00000DD00000
00000DD00000
00000DD00000
ENDCHAR
STARTCHAR omega
ENCODING 969
SWIDTH 711 0
DWIDTH 14 0
BBX 12 11 1 0
BITMAP
0ED000000AF2
5F80000005F7
8F40000001FB
BF100AD000DE
CE000CE000BF
DD000CE000BF
CE000CF000CF
AF100EF100ED
6F503FF704F9
1EE8DB8FBEF3
03CEB21AED50
ENDCHAR
STARTCHAR iotadieresis
ENCODING 970
SWIDTH 299 0
DWIDTH 6 0
BBX 7 15 -1 0
BITMAP
3F901EC0
3E801DB0
00000000
00000000
002F8000
002F8000
002F8000
002F8000
002F8000
002F8000
002F8000
002F8000
002F9000
000EE910
0005EE20
ENDCHAR
STARTCHAR upsilondieresis
ENCODING 971
SWIDTH 480 0
DWIDTH 10 0
BBX 8 15 1 0
BITMAP
5F702EA0
4E702EA0
00000000
00000000
AF100ED0
AF100AF2
AF1006F6
AF1004F7
AF1002F9
AF1002F9
AF1003F8
9F2007F5
6F601DE1
1EE8CF70
04CFD700
ENDCHAR
STARTCHAR omicrontonos
ENCODING 972
SWIDTH 501 0
DWIDTH 10 0
BBX 10 16 0 0
BITMAP
00005F4000
00008E0000
0000780000
0000000000
0000000000
002AEEB200
02EF99FE20
09F5005FA0
0ED0000DE0
1FB0000AF1
1FA00009F2
1FB0000AF1
0ED0000CE0
09F5003FA0
02EF99EE20
002BEEB300
ENDCHAR
STARTCHAR upsilontonos
ENCODING 973
SWIDTH 480 0
DWIDTH 10 0
BBX 8 16 1 0
BITMAP
0009F100
000CA000
000B4000
00000000
00000000
AF100ED0
AF100AF2
AF1006F6
AF1004F7
AF1002F9
AF1002F9
AF1003F8
9F2007F5
6F601DE1
1EE8CF70
04CFD700
ENDCHAR
STARTCHAR omegatonos
ENCODING 974
SWIDTH 711 0
DWIDTH 14 0
BBX 12 16 1 0
BITMAP
000002F70000
000005F20000
000005A00000
000000000000
000000000000
0ED000000AF2
5F80000005F7
8F40000001FB
BF100AD000DE
CE000CE000BF
DD000CE000BF
CE000CF000CF
AF100EF100ED
6F503FF704F9
1EE8DB8FBEF3
03CEB21AED50
ENDCHAR
STARTCHAR theta1
ENCODING 977
SWIDTH 507 0
DWIDTH 10 0
BBX 9 14 1 0
BITMAP
001AEC4000
00BF9DE100
01FA05F500
02F903F700
01FB03F800
00BF33F800
554FD7F810
DD04EFFF90
DD0017FB30
DD0003F800
BE0004F600
8F5009F400
1EE9AFC000
03BEEA1000
ENDCHAR
STARTCHAR Upsilon1
ENCODING 978
SWIDTH 465 0
DWIDTH 9 0
BBX 10 14 0 0
BITMAP
ED30000BE4
9FC0006FC2
0AF300CE10
04F903F900
00DE09F300
007F6EC000
001FEF6000
000AFE1000
0004F90000
0004F80000
0004F80000
0004F80000
0004F80000
0004F80000
ENDCHAR
STARTCHAR omega1
ENCODING 982
SWIDTH 678 0
DWIDTH 14 0
BBX 13 11 0 0
BITMAP
2FFFFFFFFFFFF0
1AFC888888EF70
07F6000000BF10
09F20000008F40
0BF100FB006F50
0BF000FB005F60
0AF101FB006F50
09F202FC007F30
05F506EF10BF10
01ED8E7CC8F900
004DE902CEB100
ENDCHAR
STARTCHAR uni0400
ENCODING 1024
SWIDTH 496 0
DWIDTH 10 0
BBX 9 18 1 0
BITMAP
05FC000000
007F800000
000AB10000
0000000000
7FFFFFFF10
7FA8888810
7F50000000
7F50000000
7F50000000
7F50000000
7FFFFFF500
7FA8888300
7F50000000
7F50000000
7F50000000
7F50000000
7FA8888810
7FFFFFFF30
ENDCHAR
STARTCHAR uni0401
ENCODING 1025
SWIDTH 496 0
DWIDTH 10 0
BBX 9 17 1 0
BITMAP
0BE207F400
0AE207E400
0000000000
7FFFFFFF10
7FA8888810
7F50000000
7F50000000
7F50000000
7F50000000
7FFFFFF500
7FA8888300
7F50000000
7F50000000
7F50000000
7F50000000
7FA8888810
7FFFFFFF30
ENDCHAR
STARTCHAR uni0402
ENCODING 1026
SWIDTH 650 0
DWIDTH 13 0
BBX 13 14 0 0
BITMAP
8FFFFFFFFC0000
4889FD88870000
0002FA00000000
0002FA00000000
0002FA00000000
0002FDCEEB4000
0002FFCABFF400
0002FA0004FD00
0002FA0000BF20
0002FA00009F30
0002FA0000AF20
0002FA0001ED00
0002FA008DF600
0002FA00EC5000
ENDCHAR
STARTCHAR uni0403
ENCODING 1027
SWIDTH 487 0
DWIDTH 10 0
BBX 8 18 1 0
BITMAP
00003ED2
0001DE30
0005D400
00000000
6FFFFFFF
6FB88888
6F600000
6F600000
6F600000
6F600000
6F600000
6F600000
6F600000
6F600000
6F600000
6F600000
6F600000
6F600000
ENDCHAR
STARTCHAR uni0404
ENCODING 1028
SWIDTH 589 0
DWIDTH 12 0
BBX 10 14 1 0
BITMAP
003AEEC400
04FE99EF50
1EE2002EE0
6F700008F4
AF20000494
BF00000000
CFFFFF8000
CF88884000
CF10000000
AF30000384
6F700008F4
1EE1001EE0
05FE99EF50
004BEEB400
ENDCHAR
STARTCHAR uni0405
ENCODING 1029
SWIDTH 518 0
DWIDTH 10 0
BBX 10 14 0 0
BITMAP
002AEFC600
02EFA9DF80
09F6000CF2
0CF10006F7
0AF4000152
05FD500000
006EFD8100
00028EFE50
0000006EE2
15300007F6
1FB00004F8
0BF40009F5
03EFA9BFC0
0029EED810
ENDCHAR
STARTCHAR uni0406
ENCODING 1030
SWIDTH 250 0
DWIDTH 5 0
BBX 3 14 1 0
BITMAP
6F60
6F60
6F60
6F60
6F60
6F60
6F60
6F60
6F60
6F60
6F60
6F60
6F60
6F60
ENDCHAR
STARTCHAR uni0407
ENCODING 1031
SWIDTH 250 0
DWIDTH 5 0
BBX 7 17 -1 0
BITMAP
7F504F80
6E404E70
00000000
006F6000
006F6000
006F6000
006F6000
006F6000
006F6000
006F6000
006F6000
006F6000
006F6000
006F6000
006F6000
006F6000
006F6000
ENDCHAR
STARTCHAR uni0408
ENCODING 1032
SWIDTH 483 0
DWIDTH 10 0
BBX 9 14 0 0
BITMAP
0000008F40
0000008F40
0000008F40
0000008F40
0000008F40
0000008F40
0000008F40
0000008F40
0000008F40
1210009F30
5F7000AF30
2FB001EE00
0AFC9DF700
019EFD6000
ENDCHAR
STARTCHAR uni0409
ENCODING 1033
SWIDTH 923 0
DWIDTH 18 0
BBX 18 14 0 0
BITMAP
000DFFFFFFB0000000
000DE8889FB0000000
000ED0001FB0000000
000EC0001FB0000000
000FC0001FB0000000
000FB0001FFFFFD800
001FB0001FD888CFB0
001FA0001FB0000BF4
002F90001FB00004F8
004F80001FB00002FA
006F50001FB00004F8
00BF20001FB0000BF4
3BFA00001FD888CFB0
6EA100001FFFFFD810
ENDCHAR
STARTCHAR uni040A
ENCODING 1034
SWIDTH 927 0
DWIDTH 19 0
BBX 17 14 1 0
BITMAP
6F600000FC00000000
6F600000FC00000000
6F600000FC00000000
6F600000FC00000000
6F600000FC00000000
6F600000FC00000000
6FFFFFFFFFFFFE9200
6FB88888FD888BFD10
6F600000FC00008F70
6F600000FC00002FA0
6F600000FC00002FA0
6F600000FC00009F70
6F600000FE99ACFD10
6F600000FFFFFE9100
ENDCHAR
STARTCHAR uni040B
ENCODING 1035
SWIDTH 705 0
DWIDTH 14 0
BBX 13 14 0 0
BITMAP
4FFFFFFFFF0000
2888FD88880000
0000FC00000000
0000FC00000000
0000FC00000000
0000FECEFD8100
0000FFC99CFB00
0000FC0000BF30
0000FC00006F60
0000FC00005F70
0000FC00005F70
0000FC00005F70
0000FC00005F70
0000FC00005F70
ENDCHAR
STARTCHAR uni040C
ENCODING 1036
SWIDTH 544 0
DWIDTH 11 0
BBX 10 18 1 0
BITMAP
00005FC000
0002ED1000
0007D20000
0000000000
7F50002EE2
7F5000BF50
7F5008F900
7F504FC000
7F51DE2000
7F5AF50000
7FCFF20000
7FFDFA0000
7FD1AF5000
7F502EE100
7F5007F900
7F5000CF40
7F50004FD0
7F500009F8
ENDCHAR
STARTCHAR uni040D
ENCODING 1037
SWIDTH 619 0
DWIDTH 12 0
BBX 10 18 1 0
BITMAP
006FB00000
0009F70000
0000BB1000
0000000000
6F600004FB
6F60000CFB
6F60004FFB
6F6000CAFB
6F6004F3FB
6F600C91FB
6F604F21FB
6F60CA01FB
6F64F201FB
6F6CA001FB
6FAF2001FB
6FFA0001FB
6FF20001FB
6FA00001FB
ENDCHAR
STARTCHAR uni040E
ENCODING 1038
SWIDTH 547 0
DWIDTH 11 0
BBX 10 19 1 0
BITMAP
0120002100
04F737F400
006DFD6000
0000000000
0000000000
DF10000EF1
8F60005FB0
2FC000AF50
0BF200EE10
06F704FA00
01ED09F400
009F3EE000
003FCF9000
000DFF3000
0007FD0000
0005F80000
000AF20000
05AFA00000
08EA100000
ENDCHAR
STARTCHAR uni040F
ENCODING 1039
SWIDTH 621 0
DWIDTH 12 0
BBX 10 18 1 -4
BITMAP
6F600000FC
6F600000FC
6F600000FC
6F600000FC
6F600000FC
6F600000FC
6F600000FC
6F600000FC
6F600000FC
6F600000FC
6F600000FC
6F600000FC
6FB88888FC
6FFFFFFFFC
0000AF2000
0000AF2000
0000AF2000
0000AF2000
ENDCHAR
STARTCHAR uni0410
ENCODING 1040
SWIDTH 576 0
DWIDTH 12 0
BBX 11 14 0 0
BITMAP
00002FA00000
00007FF10000
0000CEF50000
0002F7EA0000
0007F2AE1000
000CD05F5000
002F901FA000
007F400BE100
00CE0007F500
02FFFFFFFA00
07FA8888DE00
0BF100008F50
1FB000003FA0
6F6000000DE0
ENDCHAR
STARTCHAR uni0411
ENCODING 1041
SWIDTH 549 0
DWIDTH 11 0
BBX 10 14 1 0
BITMAP
8FFFFFFD00
8FA8888700
8F40000000
8F40000000
8F40000000
8F40000000
8FFFFFC600
8FA889EF70
8F40001EE0
8F40000AF3
8F40000AF3
8F40002EE0
8FA889EF70
8FFFFFC500
ENDCHAR
STARTCHAR uni0412
ENCODING 1042
SWIDTH 545 0
DWIDTH 11 0
BBX 9 14 1 0
BITMAP
7FFFFD9200
7FA88BFD00
7F50009F50
7F50005F70
7F50007F60
7F5004ED10
7FFFFFE200
7FA88AFC10
7F50006F70
7F50001FB0
7F50002FB0
7F50007F80
7FA88AFE20
7FFFFEA200
ENDCHAR
STARTCHAR uni0413
ENCODING 1043
SWIDTH 487 0
DWIDTH 10 0
BBX 8 14 1 0
BITMAP
6FFFFFFF
6FB88888
6F600000
6F600000
6F600000
6F600000
6F600000
6F600000
6F600000
6F600000
6F600000
6F600000
6F600000
6F600000
ENDCHAR
STARTCHAR uni0414
ENCODING 1044
SWIDTH 660 0
DWIDTH 13 0
BBX 13 18 0 -4
BITMAP
0007FFFFFFD000
0008FA888ED000
0009F3000ED000
000AF3000ED000
000AF2000ED000
000BF1000ED000
000CF0000ED000
000DE0000ED000
001FC0000ED000
003F90000ED000
008F50000ED000
00DE10000ED000
4AFC88888EE840
7FFFFFFFFFFF80
7F500000004F80
7F500000004F80
7F500000004F80
7F500000004F80
ENDCHAR
STARTCHAR uni0415
ENCODING 1045
SWIDTH 496 0
DWIDTH 10 0
BBX 9 14 1 0
BITMAP
7FFFFFFF10
7FA8888810
7F50000000
7F50000000
7F50000000
7F50000000
7FFFFFF500
7FA8888300
7F50000000
7F50000000
7F50000000
7F50000000
7FA8888810
7FFFFFFF30
ENDCHAR
STARTCHAR uni0416
ENCODING 1046
SWIDTH 791 0
DWIDTH 16 0
BBX 16 14 0 0
BITMAP
1EF2000DE0002FD1
06F9000DE0009F60
00DF200DE002FC00
005F900DE009F400
000BF10DE02FB000
0003F80DE09F3000
0000CFFFFFFB0000
0003FD8EF8DF2000
000AF50DE06FA000
003FD00DE00DF300
00BF500DE006FB00
04FD000DE000DF30
0CF6000DE0006FB0
5FD0000DE0000EF4
ENDCHAR
STARTCHAR uni0417
ENCODING 1047
SWIDTH 517 0
DWIDTH 10 0
BBX 10 14 0 0
BITMAP
003BEFC600
04FFA9DF90
0CF4001DF2
0BA00008F4
00000009F3
0000015FB0
0002FFFB10
000189CF80
0000000BF3
00000005F6
2FA00006F6
0EF3001CF3
05FE99DF90
004BEFC600
ENDCHAR
STARTCHAR uni0418
ENCODING 1048
SWIDTH 619 0
DWIDTH 12 0
BBX 10 14 1 0
BITMAP
6F600004FB
6F60000CFB
6F60004FFB
6F6000CAFB
6F6004F3FB
6F600C91FB
6F604F21FB
6F60CA01FB
6F64F201FB
6F6CA001FB
6FAF2001FB
6FFA0001FB
6FF20001FB
6FA00001FB
ENDCHAR
STARTCHAR uni0419
ENCODING 1049
SWIDTH 619 0
DWIDTH 12 0
BBX 10 19 1 0
BITMAP
0022001200
008E43BE00
0019EEC300
0000000000
0000000000
6F600004FB
6F60000CFB
6F60004FFB
6F6000CAFB
6F6004F3FB
6F600C91FB
6F604F21FB
6F60CA01FB
6F64F201FB
6F6CA001FB
6FAF2001FB
6FFA0001FB
6FF20001FB
6FA00001FB
ENDCHAR
STARTCHAR uni041A
ENCODING 1050
SWIDTH 560 0
DWIDTH 11 0
BBX 10 14 1 0
BITMAP
6F60000CF6
6F60008FB0
6F6003FE10
6F600CF500
6F608FA000
6F63FE1000
6FFFF60000
6FB9FC0000
6F60AF7000
6F601EE200
6F6006FB00
6F6000BF60
6F60002EE2
6F600007FB
ENDCHAR
STARTCHAR uni041B
ENCODING 1051
SWIDTH 615 0
DWIDTH 12 0
BBX 11 14 0 0
BITMAP
000CFFFFFFA0
000DE8889FA0
000DD0002FA0
000ED0002FA0
000EC0002FA0
000FB0002FA0
000FB0002FA0
001FA0002FA0
002F90002FA0
003F80002FA0
006F60002FA0
00BF20002FA0
3BFA00002FA0
6EA100002FA0
ENDCHAR
STARTCHAR uni041C
ENCODING 1052
SWIDTH 755 0
DWIDTH 15 0
BBX 13 14 1 0
BITMAP
7FE1000000DF80
7FF5000003FF80
7FFA000008FF80
7FDE00000DDF80
7F9F40003F8F80
7F4F90008F4F80
7F4AE000DC2F80
7F45F403F73F80
7F51E908F13F80
7F50AE0CB03F80
7F505F6F603F80
7F501EEF103F80
7F500AFB003F80
7F5005F6003F80
ENDCHAR
STARTCHAR uni041D
ENCODING 1053
SWIDTH 620 0
DWIDTH 12 0
BBX 10 14 1 0
BITMAP
7F500000ED
7F500000ED
7F500000ED
7F500000ED
7F500000ED
7F500000ED
7FFFFFFFFD
7FA88888FD
7F500000ED
7F500000ED
7F500000ED
7F500000ED
7F500000ED
7F500000ED
ENDCHAR
STARTCHAR uni041E
ENCODING 1054
SWIDTH 600 0
DWIDTH 12 0
BBX 10 14 1 0
BITMAP
005CEEC500
07FEAAEF70
2FD1001DF2
7F600005F7
AF200002FA
BF000000FB
CF000000FC
CF000000FC
CF000000FB
AF200001FA
7F600005F7
2FD1001DF2
07FEAAEF70
005CEEC500
ENDCHAR
STARTCHAR uni041F
ENCODING 1055
SWIDTH 620 0
DWIDTH 12 0
BBX 10 14 1 0
BITMAP
6FFFFFFFFC
6FB88888FC
6F600000FC
6F600000FC
6F600000FC
6F600000FC
6F600000FC
6F600000FC
6F600000FC
6F600000FC
6F600000FC
6F600000FC
6F600000FC
6F600000FC
ENDCHAR
STARTCHAR uni0420
ENCODING 1056
SWIDTH 554 0
DWIDTH 11 0
BBX 10 14 1 0
BITMAP
7FFFFFC500
7FA889EF60
7F50002EE1
7F500009F4
7F500008F4
7F50000AF3
7F50017FC0
7FFFFFFD30
7FA8885100
7F50000000
7F50000000
7F50000000
7F50000000
7F50000000
ENDCHAR
STARTCHAR uni0421
ENCODING 1057
SWIDTH 566 0
DWIDTH 11 0
BBX 10 14 1 0
BITMAP
004BEEC500
06FE99EF60
2FD1001EE1
7F600009F4
AF200005C5
BF10000000
CF00000000
CF00000000
BF10000000
AF200004B4
7F600008F4
2FC1001EE1
07FD99EF50
005CFEB400
ENDCHAR
STARTCHAR uni0422
ENCODING 1058
SWIDTH 520 0
DWIDTH 10 0
BBX 10 14 0 0
BITMAP
6FFFFFFFFD
3888DF9887
0000AF2000
0000AF2000
0000AF2000
0000AF2000
0000AF2000
0000AF2000
0000AF2000
0000AF2000
0000AF2000
0000AF2000
0000AF2000
0000AF2000
ENDCHAR
STARTCHAR uni0423
ENCODING 1059
SWIDTH 547 0
DWIDTH 11 0
BBX 10 14 1 0
BITMAP
DF10000EF1
8F60005FB0
2FC000AF50
0BF200EE10
06F704FA00
01ED09F400
009F3EE000
003FCF9000
000DFF3000
0007FD0000
0005F80000
000AF20000
05AFA00000
08EA100000
ENDCHAR
STARTCHAR uni0424
ENCODING 1060
SWIDTH 676 0
DWIDTH 14 0
BBX 13 16 0 -1
BITMAP
000001FA000000
000001FA000000
0005CEFFE92000
007FC8FD8EE300
03F901FA01EC00
0AF101FA007F40
0EC001FA002F90
1FA001FA001FA0
1FA001FA001FA0
0EC001FA002F90
0AF101FA007F40
03F901FA02EC00
007FC8FD9EE300
0005CEFFEA2000
000001FA000000
000001FA000000
ENDCHAR
STARTCHAR uni0425
ENCODING 1061
SWIDTH 550 0
DWIDTH 11 0
BBX 11 14 0 0
BITMAP
1EF10001EE10
07F80008F700
00DE101EE100
006F807F7000
000CE1ED0000
0005FCF60000
0000CFD00000
0000CFD00000
0006FBF70000
000DE1DE1000
007F706F8000
01EE100EE100
08F80007F900
1EE10001EF20
ENDCHAR
STARTCHAR uni0426
ENCODING 1062
SWIDTH 639 0
DWIDTH 13 0
BBX 11 17 1 -3
BITMAP
6F600000FC00
6F600000FC00
6F600000FC00
6F600000FC00
6F600000FC00
6F600000FC00
6F600000FC00
6F600000FC00
6F600000FC00
6F600000FC00
6F600000FC00
6F600000FC00
6FB88888FE90
6FFFFFFFFFF0
000000000BF0
000000000BE0
000000000BD0
ENDCHAR
STARTCHAR uni0427
ENCODING 1063
SWIDTH 600 0
DWIDTH 12 0
BBX 10 14 1 0
BITMAP
AF200006F6
AF200006F6
AF200006F6
AF200006F6
9F300006F6
8F500006F6
4FC3014AF6
09FFFFFFF6
00378757F6
00000006F6
00000006F6
00000006F6
00000006F6
00000006F6
ENDCHAR
STARTCHAR uni0428
ENCODING 1064
SWIDTH 814 0
DWIDTH 16 0
BBX 14 14 1 0
BITMAP
6F6000BF1002FA
6F6000BF1002FA
6F6000BF1002FA
6F6000BF1002FA
6F6000BF1002FA
6F6000BF1002FA
6F6000BF1002FA
6F6000BF1002FA
6F6000BF1002FA
6F6000BF1002FA
6F6000BF1002FA
6F6000BF1002FA
6FB888DF8889FA
6FFFFFFFFFFFFA
ENDCHAR
STARTCHAR uni0429
ENCODING 1065
SWIDTH 841 0
DWIDTH 17 0
BBX 15 17 1 -3
BITMAP
6F6000BF1002FA00
6F6000BF1002FA00
6F6000BF1002FA00
6F6000BF1002FA00
6F6000BF1002FA00
6F6000BF1002FA00
6F6000BF1002FA00
6F6000BF1002FA00
6F6000BF1002FA00
6F6000BF1002FA00
6F6000BF1002FA00
6F6000BF1002FA00
6FB888DF8889FC60
6FFFFFFFFFFFFFD0
0000000000000CC0
0000000000000CC0
0000000000000CB0
ENDCHAR
STARTCHAR uni042A
ENCODING 1066
SWIDTH 651 0
DWIDTH 13 0
BBX 13 14 0 0
BITMAP
9FFFF500000000
477BF500000000
0007F500000000
0007F500000000
0007F500000000
0007F500000000
0007FFFFFC6000
0007FA889DF800
0007F50001EF10
0007F500009F30
0007F500009F30
0007F50001EE10
0007FA889DF700
0007FFFFFC6000
ENDCHAR
STARTCHAR uni042B
ENCODING 1067
SWIDTH 755 0
DWIDTH 15 0
BBX 13 14 1 0
BITMAP
6F600000006F60
6F600000006F60
6F600000006F60
6F600000006F60
6F600000006F60
6F600000006F60
6FFFFFD7006F60
6FB889DF906F60
6F60000CF26F60
6F600007F56F60
6F600008F56F60
6F60001DF26F60
6FB889DF906F60
6FFFFFD7006F60
ENDCHAR
STARTCHAR uni042C
ENCODING 1068
SWIDTH 551 0
DWIDTH 11 0
BBX 10 14 1 0
BITMAP
8F40000000
8F40000000
8F40000000
8F40000000
8F40000000
8F40000000
8FFFFFC600
8FA889EF70
8F40001EE0
8F40000AF3
8F40000AF3
8F40002EE0
8FA889EF70
8FFFFFC500
ENDCHAR
STARTCHAR uni042D
ENCODING 1069
SWIDTH 589 0
DWIDTH 12 0
BBX 10 14 1 0
BITMAP
005CFEA200
07FD9AEE30
1FD1003ED0
6F700008F4
58200003F8
00000002FA
000AFFFFFB
00058889FB
00000002FA
48200004F8
6F600008F4
1FC1002ED0
07FD99EE40
005CEEA300
ENDCHAR
STARTCHAR uni042E
ENCODING 1070
SWIDTH 765 0
DWIDTH 15 0
BBX 14 14 1 0
BITMAP
6F60007CEEB300
6F600BFDABFF40
6F606FB0003ED0
6F60BF300008F4
6F60EE000005F7
6F60FC000004F8
6FFFFC000003F9
6FA7FC000003F9
6F60EC000003F8
6F60DE000005F7
6F609F300008F4
6F604FB0003EE0
6F6009FD9BFF40
6F60006CFEB300
ENDCHAR
STARTCHAR uni042F
ENCODING 1071
SWIDTH 562 0
DWIDTH 11 0
BBX 9 14 1 0
BITMAP
018DFFFF80
0CFC98AF80
5FA0004F80
9F40004F80
9F30004F80
7F70004F80
1EE5104F80
03DFFFFF80
008F98AF80
01ED004F80
07F6004F80
0DE0004F80
6F70004F80
DF10004F80
ENDCHAR
STARTCHAR uni0430
ENCODING 1072
SWIDTH 479 0
DWIDTH 10 0
BBX 8 11 1 0
BITMAP
04BEEA10
4FD89FB0
8D200AF1
000008F3
02ADFFF3
3FD74AF3
AF2008F3
DD0008F3
CE101CF3
7FC9DEF4
08DE96F7
ENDCHAR
STARTCHAR uni0431
ENCODING 1073
SWIDTH 484 0
DWIDTH 10 0
BBX 8 15 1 0
BITMAP
000003F5
00059EE1
01CFFB30
0BE61000
4F300000
9B7DFC30
CEE99FE1
EF4005F8
FD0000EC
FB0000CE
FC0000DE
DE0000EC
8F5006F7
1DE99FD1
02AEEA20
ENDCHAR
STARTCHAR uni0432
ENCODING 1074
SWIDTH 503 0
DWIDTH 10 0
BBX 8 11 1 0
BITMAP
8FFFEC60
8F878CF6
8F3001FA
8F3016F7
8FFFFFA0
8F877BF5
8F3000DD
8F3000BF
8F3000DD
8F877BF7
8FFFFD70
ENDCHAR
STARTCHAR uni0433
ENCODING 1075
SWIDTH 371 0
DWIDTH 7 0
BBX 7 11 1 0
BITMAP
9FFFFF10
9F988810
9F300000
9F300000
9F300000
9F300000
9F300000
9F300000
9F300000
9F300000
9F300000
ENDCHAR
STARTCHAR uni0434
ENCODING 1076
SWIDTH 536 0
DWIDTH 11 0
BBX 10 14 0 -3
BITMAP
002FFFFFC0
002FDAAFC0
003F800EC0
003F800EC0
004F700EC0
005F600EC0
007F400EC0
00AF100EC0
02FA000EC0
3CFA777ED7
7FFFFFFFFF
7F400000BF
7F400000BF
7F400000BF
ENDCHAR
STARTCHAR uni0435
ENCODING 1077
SWIDTH 468 0
DWIDTH 9 0
BBX 8 11 1 0
BITMAP
03BEEA20
2ED89FD0
9F2007F5
DC0003F8
FFFFFFF9
FD777774
FB000000
ED000000
AF400060
3FF98CF4
04BEEC50
ENDCHAR
STARTCHAR uni0436
ENCODING 1078
SWIDTH 662 0
DWIDTH 13 0
BBX 13 11 0 0
BITMAP
2EE104F700BF40
07F704F704FB00
00DE14F70CF200
005F74F75F8000
000BFFFFFE1000
001EDBFCCF3000
007F64F73FA000
01EE04F70BF200
07F804F705FA00
0DF204F700EF20
6FB004F7008F90
ENDCHAR
STARTCHAR uni0437
ENCODING 1079
SWIDTH 446 0
DWIDTH 9 0
BBX 7 11 1 0
BITMAP
06DED700
7FC8CF70
DD001FB0
22004F90
00FFFC10
0088CF50
00001EC0
53000CE0
EC001EC0
8FB7CF50
07DEC500
ENDCHAR
STARTCHAR uni0438
ENCODING 1080
SWIDTH 509 0
DWIDTH 10 0
BBX 8 11 1 0
BITMAP
8F3004FB
8F300BFB
8F303FFB
8F30ABFB
8F32F4FB
8F39C0FB
8F4F50FB
8FBD00FB
8FF500FB
8FD000FB
8F6000FB
ENDCHAR
STARTCHAR uni0439
ENCODING 1081
SWIDTH 509 0
DWIDTH 10 0
BBX 8 16 1 0
BITMAP
02200120
0AD43CD0
01AEEB20
00000000
00000000
8F3004FB
8F300BFB
8F303FFB
8F30ABFB
8F32F4FB
8F39C0FB
8F4F50FB
8FBD00FB
8FF500FB
8FD000FB
8F6000FB
ENDCHAR
STARTCHAR uni043A
ENCODING 1082
SWIDTH 479 0
DWIDTH 10 0
BBX 9 11 1 0
BITMAP
8F3007F900
8F303FC000
8F31DE2000
8F39F40000
8FFF900000
8FADE10000
8F35F90000
8F30CF3000
8F304FB000
8F300BF500
8F3003FD10
ENDCHAR
STARTCHAR uni043B
ENCODING 1083
SWIDTH 509 0
DWIDTH 10 0
BBX 9 11 0 0
BITMAP
007FFFFFB0
007F988FB0
008F300FB0
008F200FB0
009F100FB0
00AF100FB0
00BF000FB0
00CD000FB0
02FA000FB0
4DF5000FB0
7E80000FB0
ENDCHAR
STARTCHAR uni043C
ENCODING 1084
SWIDTH 645 0
DWIDTH 13 0
BBX 11 11 1 0
BITMAP
8FD00000DF70
8FF20003FF70
8FF70008FF70
8FDC000DEF70
8F8F203F9F70
8F4F708E5F70
8F3AC0DA4F70
8F35F5F54F70
8F31EEE04F70
8F30AF904F70
8F304F404F70
ENDCHAR
STARTCHAR uni043D
ENCODING 1085
SWIDTH 508 0
DWIDTH 10 0
BBX 8 11 1 0
BITMAP
8F3000FB
8F3000FB
8F3000FB
8F3000FB
8FFFFFFB
8F9777FB
8F3000FB
8F3000FB
8F3000FB
8F3000FB
8F3000FB
ENDCHAR
STARTCHAR uni043E
ENCODING 1086
SWIDTH 501 0
DWIDTH 10 0
BBX 10 11 0 0
BITMAP
002AEEB200
02EF99FE20
09F5005FA0
0ED0000DE0
1FB0000AF1
1FA00009F2
1FB0000AF1
0ED0000CE0
09F5003FA0
02EF99EE20
002BEEB300
ENDCHAR
STARTCHAR uni043F
ENCODING 1087
SWIDTH 509 0
DWIDTH 10 0
BBX 8 11 1 0
BITMAP
8FFFFFFB
8F9888FB
8F3000FB
8F3000FB
8F3000FB
8F3000FB
8F3000FB
8F3000FB
8F3000FB
8F3000FB
8F3000FB
ENDCHAR
STARTCHAR uni0440
ENCODING 1088
SWIDTH 493 0
DWIDTH 10 0
BBX 8 15 1 -4
BITMAP
BD4DFD50
BFE9AFF3
BF3005F9
BF0000EC
BF0000DD
BF0000CE
BF0000DD
BF0000EC
BF3005F9
BFE89EF3
BF5DFC40
BF000000
BF000000
BF000000
BF000000
ENDCHAR
STARTCHAR uni0441
ENCODING 1089
SWIDTH 461 0
DWIDTH 9 0
BBX 9 11 0 0
BITMAP
004BEEA200
03FE99FC00
0AF2007F40
0EC0002C60
1FB0000000
1FA0000000
1FA0000000
0EC0001840
0AF2006F50
03FE89EC00
004BEE9100
ENDCHAR
STARTCHAR uni0442
ENCODING 1090
SWIDTH 424 0
DWIDTH 9 0
BBX 8 11 0 0
BITMAP
7FFFFFFF
377CF877
0009F100
0009F100
0009F100
0009F100
0009F100
0009F100
0009F100
0009F100
0009F100
ENDCHAR
STARTCHAR uni0443
ENCODING 1091
SWIDTH 416 0
DWIDTH 8 0
BBX 8 15 0 -4
BITMAP
8F5001FC
3F9004F8
0ED008F3
09F20BE0
05F50FA0
01F94F60
00BD7F10
007FDC00
002FF800
000DF400
0009E000
000CA000
003F5000
19ED1000
2EC30000
ENDCHAR
STARTCHAR uni0444
ENCODING 1092
SWIDTH 628 0
DWIDTH 13 0
BBX 11 19 1 -4
BITMAP
0000AF100000
0000AF100000
0000AF100000
0000AF100000
05DEEFDEA100
2FE8DF9BFA00
8F40AF10BF20
CE00AF106F60
EC00AF103F80
FB00AF102F90
FB00AF103F80
DD00AF105F70
AF30AF10AF30
3FD8DF8AFC00
05DEEFDFB200
0000AF100000
0000AF100000
0000AF100000
0000AF100000
ENDCHAR
STARTCHAR uni0445
ENCODING 1093
SWIDTH 438 0
DWIDTH 9 0
BBX 9 11 0 0
BITMAP
2FC001FD00
09F308F500
02FA1EC000
009F8F5000
001EFC0000
000AF60000
002FFC0000
00AF7F6000
03FA0DD000
0AF307F600
3FB001EE10
ENDCHAR
STARTCHAR uni0446
ENCODING 1094
SWIDTH 524 0
DWIDTH 10 0
BBX 9 14 1 -3
BITMAP
8F3000FB00
8F3000FB00
8F3000FB00
8F3000FB00
8F3000FB00
8F3000FB00
8F3000FB00
8F3000FB00
8F3000FB00
8F9777FD60
8FFFFFFFC0
0000000DB0
0000000DB0
0000000DA0
ENDCHAR
STARTCHAR uni0447
ENCODING 1095
SWIDTH 479 0
DWIDTH 10 0
BBX 8 11 1 0
BITMAP
FB0009F2
FB0009F2
FB0009F2
EB0009F2
CD0009F2
8F602BF2
1DFFFFF2
01576AF2
000009F2
000009F2
000009F2
ENDCHAR
STARTCHAR uni0448
ENCODING 1096
SWIDTH 703 0
DWIDTH 14 0
BBX 12 11 1 0
BITMAP
8F300DD002F9
8F300DD002F9
8F300DD002F9
8F300DD002F9
8F300DD002F9
8F300DD002F9
8F300DD002F9
8F300DD002F9
8F300DD002F9
8F977EE778F9
8FFFFFFFFFF9
ENDCHAR
STARTCHAR uni0449
ENCODING 1097
SWIDTH 722 0
DWIDTH 14 0
BBX 13 14 1 -3
BITMAP
AF100EC004F700
AF100EC004F700
AF100EC004F700
AF100EC004F700
AF100EC004F700
AF100EC004F700
AF100EC004F700
AF100EC004F700
AF100EC004F700
AF877FD779FB60
AFFFFFFFFFFFC0
00000000000EB0
00000000000EA0
00000000000EA0
ENDCHAR
STARTCHAR uni044A
ENCODING 1098
SWIDTH 538 0
DWIDTH 11 0
BBX 11 11 0 0
BITMAP
8FFFB0000000
477FB0000000
000FB0000000
000FB0000000
000FFFFD9100
000FD77AFA00
000FB000BF10
000FB0009F20
000FB000BF10
000FD77AF900
000FFFFD8100
ENDCHAR
STARTCHAR uni044B
ENCODING 1099
SWIDTH 679 0
DWIDTH 14 0
BBX 11 11 1 0
BITMAP
8F3000000DD0
8F3000000DD0
8F3000000DD0
8F3000000DD0
8FFFEC400DD0
8F878EE20DD0
8F3004F80DD0
8F3002F90DD0
8F3004F70DD0
8F878EE20DD0
8FFFEB300DD0
ENDCHAR
STARTCHAR uni044C
ENCODING 1100
SWIDTH 478 0
DWIDTH 10 0
BBX 8 11 1 0
BITMAP
8F300000
8F300000
8F300000
8F300000
8FFFEC40
8F878EE2
8F3004F8
8F3002F9
8F3004F7
8F878EE2
8FFFEB30
ENDCHAR
STARTCHAR uni044D
ENCODING 1101
SWIDTH 472 0
DWIDTH 9 0
BBX 8 11 1 0
BITMAP
06DFC500
7FC8CF40
EC000DD0
110007F2
007FFFF5
00377AF5
000007F5
C8000AF2
CE102FC0
4FC8DF40
05DFC400
ENDCHAR
STARTCHAR uni044E
ENCODING 1102
SWIDTH 706 0
DWIDTH 14 0
BBX 13 11 1 0
BITMAP
8F3001AEEB3000
8F300DFA8EE200
8F307F8003FA00
8F30BF2000BF10
8FFFFE00008F30
8F97ED00007F40
8F30BE00009F30
8F308F2000BF10
8F302F8003FA00
8F3009FA8EE200
8F30008EEB3000
ENDCHAR
STARTCHAR uni044F
ENCODING 1103
SWIDTH 482 0
DWIDTH 10 0
BBX 9 11 0 0
BITMAP
007DFFFF30
08FB77BF30
0ED0008F30
0FB0008F30
0CF4008F30
04EFFFFF30
007FA7BF30
00DE008F30
06F7008F30
0DE1008F30
5F80008F30
ENDCHAR
STARTCHAR uni0450
ENCODING 1104
SWIDTH 468 0
DWIDTH 9 0
BBX 8 15 1 0
BITMAP
0BF50000
01DE2000
002D7000
00000000
03BEEA20
2ED89FD0
9F2007F5
DC0003F8
FFFFFFF9
FD777774
FB000000
ED000000
AF400060
3FF98CF4
04BEEC50
ENDCHAR
STARTCHAR uni0451
ENCODING 1105
SWIDTH 468 0
DWIDTH 9 0
BBX 8 15 1 0
BITMAP
3F901EC0
2E901DC0
00000000
00000000
03BEEA20
2ED89FD0
9F2007F5
DC0003F8
FFFFFFF9
FD777774
FB000000
ED000000
AF400060
3FF98CF4
04BEEC50
ENDCHAR
STARTCHAR uni0452
ENCODING 1106
SWIDTH 482 0
DWIDTH 10 0
BBX 9 20 0 -4
BITMAP
0BF0000000
0BF0000000
FFFFF40000
7DF7720000
0BF0000000
0BF4CEC300
0BFEAAFD00
0BF6009F30
0BF0006F50
0BF0005F60
0BF0005F60
0BF0005F60
0BF0005F60
0BF0005F60
0BF0005F60
0BF0005F60
0000005F50
0000007F40
000018EE10
00003ED400
ENDCHAR
STARTCHAR uni0453
ENCODING 1107
SWIDTH 371 0
DWIDTH 7 0
BBX 7 15 1 0
BITMAP
000BF600
008F8000
01B90000
00000000
9FFFFF10
9F988810
9F300000
9F300000
9F300000
9F300000
9F300000
9F300000
9F300000
9F300000
9F300000
ENDCHAR
STARTCHAR uni0454
ENCODING 1108
SWIDTH 472 0
DWIDTH 9 0
BBX 8 11 1 0
BITMAP
02AEEA20
1DE99FC0
7F3007F5
CD0001D7
EFFFC000
ED776000
ED000000
CF100185
7F7006F6
1DF99FC0
02AEE910
ENDCHAR
STARTCHAR uni0455
ENCODING 1109
SWIDTH 455 0
DWIDTH 9 0
BBX 8 11 1 0
BITMAP
04CED700
4FD8CF80
9F200DE0
AF300230
4FE81000
04CFF810
0004CFA0
54000CF1
EE000AF1
7FC8AFA0
05CED910
ENDCHAR
STARTCHAR uni0456
ENCODING 1110
SWIDTH 229 0
DWIDTH 5 0
BBX 3 15 1 0
BITMAP
7F20
7E20
0000
0000
9F20
9F20
9F20
9F20
9F20
9F20
9F20
9F20
9F20
9F20
9F20
ENDCHAR
STARTCHAR uni0457
ENCODING 1111
SWIDTH 234 0
DWIDTH 5 0
BBX 7 15 -1 0
BITMAP
9F306F50
9E306E50
00000000
00000000
009F2000
009F2000
009F2000
009F2000
009F2000
009F2000
009F2000
009F2000
009F2000
009F2000
009F2000
ENDCHAR
STARTCHAR uni0458
ENCODING 1112
SWIDTH 223 0
DWIDTH 4 0
BBX 5 19 -1 -4
BITMAP
00AE00
009D00
000000
000000
00AF10
00AF10
00AF10
00AF10
00AF10
00AF10
00AF10
00AF10
00AF10
00AF10
00AF10
00AF10
00BF00
29FC00
3ED300
ENDCHAR
STARTCHAR uni0459
ENCODING 1113
SWIDTH 729 0
DWIDTH 15 0
BBX 14 11 0 0
BITMAP
007FFFFF600000
008F98AF600000
008F205F600000
009F105F600000
009F105FFFFD60
00AF005FA78CF5
00BE005F6001FB
00DC005F6000DD
02F9005F6001FB
4DF4005FA77CF4
7E80005FFFFC50
ENDCHAR
STARTCHAR uni045A
ENCODING 1114
SWIDTH 743 0
DWIDTH 15 0
BBX 14 11 1 0
BITMAP
8F3000FB000000
8F3000FB000000
8F3000FB000000
8F3000FB000000
8FFFFFFFEED810
8F9777FD88BF90
8F3000FB000BF1
8F3000FB0008F2
8F3000FB000BF1
8F3000FD77AF90
8F3000FFFFD910
ENDCHAR
STARTCHAR uni045B
ENCODING 1115
SWIDTH 499 0
DWIDTH 10 0
BBX 9 16 0 0
BITMAP
0BF0000000
0BF0000000
CFFFF80000
5DF7740000
0BF0000000
0BF4CEC300
0BFEAAFD00
0BF6009F30
0BF0006F50
0BF0005F60
0BF0005F60
0BF0005F60
0BF0005F60
0BF0005F60
0BF0005F60
0BF0005F60
ENDCHAR
STARTCHAR uni045C
ENCODING 1116
SWIDTH 479 0
DWIDTH 10 0
BBX 9 15 1 0
BITMAP
0000CF4000
0009F60000
002C800000
0000000000
8F3007F900
8F303FC000
8F31DE2000
8F39F40000
8FFF900000
8FADE10000
8F35F90000
8F30CF3000
8F304FB000
8F300BF500
8F3003FD10
ENDCHAR
STARTCHAR uni045D
ENCODING 1117
SWIDTH 509 0
DWIDTH 10 0
BBX 8 15 1 0
BITMAP
08F90000
00AF6000
001CA000
00000000
8F3004FB
8F300BFB
8F303FFB
8F30ABFB
8F32F4FB
8F39C0FB
8F4F50FB
8FBD00FB
8FF500FB
8FD000FB
8F6000FB
ENDCHAR
STARTCHAR uni045E
ENCODING 1118
SWIDTH 416 0
DWIDTH 8 0
BBX 8 20 0 -4
BITMAP
01200021
06F539F2
008DFC50
00000000
00000000
8F5001FC
3F9004F8
0ED008F3
09F20BE0
05F50FA0
01F94F60
00BD7F10
007FDC00
002FF800
000DF400
0009E000
000CA000
003F5000
19ED1000
2EC30000
ENDCHAR
STARTCHAR uni045F
ENCODING 1119
SWIDTH 509 0
DWIDTH 10 0
BBX 8 14 1 -3
BITMAP
8F3000FB
8F3000FB
8F3000FB
8F3000FB
8F3000FB
8F3000FB
8F3000FB
8F3000FB
8F3000FB
8F9777FB
8FFFFFFB
000BF000
000BF000
000BF000
ENDCHAR
STARTCHAR uni0460
ENCODING 1120
SWIDTH 754 0
DWIDTH 15 0
BBX 13 14 1 0
BITMAP
9F4005F8000FC0
9F4005F8000FC0
9F4005F8000FC0
9F4005F8000FC0
9F4005F8000FC0
9F4005F8000FC0
9F4005F8000FC0
9F4005F8000FC0
9F4005F8000FC0
9F4005F8000FC0
8F4006F9001FB0
5F800AFD005F80
1DF9BFBFC9EE20
03BFE806DFC400
ENDCHAR
STARTCHAR uni0461
ENCODING 1121
SWIDTH 650 0
DWIDTH 13 0
BBX 11 11 1 0
BITMAP
DD005F600CE0
DD005F600CE0
DD005F600CE0
DD005F600CE0
DD005F600CE0
DD005F600CE0
DD005F600CE0
CE005F700CE0
AF108F901EC0
5FB9FEF9BF60
07DEA19ED700
ENDCHAR
STARTCHAR uni0462
ENCODING 1122
SWIDTH 551 0
DWIDTH 11 0
BBX 12 14 -1 0
BITMAP
008F40000000
008F40000000
4FFFFF000000
27BF97000000
008F40000000
008F40000000
008FFFFFC600
008FA889EF70
008F40001EE0
008F40000AF3
008F40000AF3
008F40002EE0
008FA889EF70
008FFFFFC500
ENDCHAR
STARTCHAR uni0463
ENCODING 1123
SWIDTH 477 0
DWIDTH 10 0
BBX 10 15 -1 0
BITMAP
009F200000
009F200000
009F200000
2FFFFFC000
17CF875000
009F200000
009F200000
009F200000
009FFFEC30
009F878EE2
009F2005F7
009F2002F9
009F2004F7
009F878EE1
009FFFEB30
ENDCHAR
STARTCHAR uni0464
ENCODING 1124
SWIDTH 772 0
DWIDTH 15 0
BBX 14 14 1 0
BITMAP
6F60006CEEA200
6F6009FD9AFE10
6F604FB0005F90
6F60AF20000DE0
6F60ED00000681
6F61FA00000000
6FFFFFFFFF2000
6FA8FC77771000
6F62FB00000000
6F60FD00000581
6F60BF20000DE0
6F605FA0004FA0
6F6009FC8AFE20
6F60007DFEA200
ENDCHAR
STARTCHAR uni0465
ENCODING 1125
SWIDTH 646 0
DWIDTH 13 0
BBX 11 11 1 0
BITMAP
9F2007DFD500
9F208FB8CF50
9F22FB001DC0
9F25F50008D0
9FFFFFFFB000
9F8BF9775000
9F25F5000000
9F22F8000580
9F20CD100DD0
9F204FC8CF50
9F2004CEC500
ENDCHAR
STARTCHAR uni0466
ENCODING 1126
SWIDTH 526 0
DWIDTH 11 0
BBX 11 14 0 0
BITMAP
00005F800000
0000AFC00000
0000EFF20000
0004FAF60000
0009F2EB0000
000DC0AF1000
003F806F5000
007F301F9000
00CFFFFFE000
01FCBFBCF300
06F55F64F800
0BF15F60EC00
1FC05F60AF20
5F705F606F60
ENDCHAR
STARTCHAR uni0467
ENCODING 1127
SWIDTH 470 0
DWIDTH 9 0
BBX 9 11 0 0
BITMAP
0004F80000
0009FD0000
000EEF3000
004F7F8000
009E0CD000
00E906F200
04FFFFF700
09E9FBCC00
0DB3F87F20
3F73F83F70
8F33F80EC0
ENDCHAR
STARTCHAR uni0468
ENCODING 1128
SWIDTH 759 0
DWIDTH 15 0
BBX 14 14 1 0
BITMAP
4F800001ED0000
4F800005FF2000
4F800009FF7000
4F80000ECEB000
4F80004F79F100
4F80009F25F500
4F8000DD01FA00
4F8003F800BE00
4FFFFFFFFFFF40
4FC99EE9FDAF80
4F802FA0FB0DD0
4F806F60FB09F2
4F80AF20FB05F7
4F80ED00FB01FB
ENDCHAR
STARTCHAR uni0469
ENCODING 1129
SWIDTH 654 0
DWIDTH 13 0
BBX 12 11 1 0
BITMAP
4F60009F3000
4F6000EF8000
4F6005FED000
4F600AE7F300
4F601FA2F800
4F606F50BD00
4FFFFFFFFF20
4FB9FCCF9F70
4F65F68F3CC0
4F69F28F38F2
4F6ED08F34F7
ENDCHAR
STARTCHAR uni046A
ENCODING 1130
SWIDTH 747 0
DWIDTH 15 0
BBX 13 14 1 0
BITMAP
03FFFFFFFFF500
00AFB888AFC000
002FC000BF4000
0009F503FB0000
0002EC0BF30000
00008F9F900000
02AEFFFFFD9100
1DFB8BFB8BFD00
6F8006F6009F50
9F4006F6004F80
9F2006F6003F90
9F2006F6003F90
9F2006F6003F90
9F2006F6003F90
ENDCHAR
STARTCHAR uni046B
ENCODING 1131
SWIDTH 645 0
DWIDTH 13 0
BBX 11 11 1 0
BITMAP
04FFFFFFF400
00CF979FC000
005F808F5000
000DE1ED0000
0006FBF60000
02AEFFFEA100
1EF9AFA9FC00
6F606F508F40
8F306F504F60
9F206F503F80
9F206F503F80
ENDCHAR
STARTCHAR uni046C
ENCODING 1132
SWIDTH 980 0
DWIDTH 20 0
BBX 18 14 1 0
BITMAP
6F60008FFFFFFFFE10
6F60001EF9888DF700
6F600007F7001ED000
6F600001EE108F6000
6F6000006F81ED0000
6F6000000DEAF50000
6FFFFFFFFFFFFEC700
6FA77AFEA8DF99DF80
6F600BF400BF101DE1
6F600DE000BF1009F3
6F600EC000BF1008F4
6F600FC000BF1008F4
6F600FC000BF1008F4
6F600FC000BF1008F4
ENDCHAR
STARTCHAR uni046D
ENCODING 1133
SWIDTH 856 0
DWIDTH 17 0
BBX 15 11 1 0
BITMAP
9F2001EFFFFFF700
9F20009FB78FE100
9F20002FB05F8000
9F20000AF3BF2000
9F200003FBF90000
9FFFFFFFFFFEB300
9F877EFA9FC9EE10
9F202FA03F805F70
9F205F603F801FA0
9F206F503F800FB0
9F206F503F800FB0
ENDCHAR
STARTCHAR uni046E
ENCODING 1134
SWIDTH 454 0
DWIDTH 9 0
BBX 8 23 0 -4
BITMAP
00BB09D1
002E9F30
0005F600
00000000
00000000
0CFFE910
0677AFD1
000007F6
000003F8
000004F7
00003CE1
00AFFE20
0057AFB1
000005F7
000000FB
000001FB
000005F8
00479FE2
0BFFEA20
3F900000
2F700000
0BE40000
01B40000
ENDCHAR
STARTCHAR uni046F
ENCODING 1135
SWIDTH 423 0
DWIDTH 8 0
BBX 8 20 0 -4
BITMAP
05F32F50
009CC900
001CD100
00000000
00000000
0CFFDA20
06889FD1
000008F4
00002BF2
00AFFE40
0057AFB0
000007F5
000004F7
000007F4
00479FC0
0BFFEA20
2F900000
2F800000
0BE40000
01B40000
ENDCHAR
STARTCHAR uni0470
ENCODING 1136
SWIDTH 600 0
DWIDTH 12 0
BBX 11 14 0 0
BITMAP
3F901FB00CF0
3F901FB00CF0
3F901FB00CF0
3F901FB00CF0
3F901FB00CF0
2FA01FB00CF0
1FC01FB00ED0
0CF31FB05F90
05FD4FB5EF20
007FFFFFE400
00028FD61000
00001FB00000
00001FB00000
00001FB00000
ENDCHAR
STARTCHAR uni0471
ENCODING 1137
SWIDTH 612 0
DWIDTH 12 0
BBX 12 16 0 -5
BITMAP
2F900DD02F90
2F900DD00DE0
2F900DD00AF3
2F900DD007F4
2F900DD006F5
1FA00DD005F6
0FC00DD007F5
0CF10DD00CF2
06FA0DD07FB0
00BFCEEBFD20
0007DFFD9100
00000DD00000
00000DD00000
00000DD00000
00000DD00000
00000DD00000
ENDCHAR
STARTCHAR uni0472
ENCODING 1138
SWIDTH 593 0
DWIDTH 12 0
BBX 10 14 1 0
BITMAP
004BEEA200
06FEABFE30
1EC1003EC0
8F400009F3
CE000004F7
ED000002F9
FFFFFFFFFB
FE777778FB
EE000002F9
CF100005F8
8F600009F4
2ED2004FC0
06FEAAFE30
004BEEA200
ENDCHAR
STARTCHAR uni0473
ENCODING 1139
SWIDTH 497 0
DWIDTH 10 0
BBX 10 11 0 0
BITMAP
001AEEA200
01DE99ED10
07F4004F80
0CC0000CD0
0FFFFFFFF0
1FD7777DF1
0FC0000CF1
0CF1001FD0
07F7007F80
01DF99FD10
002AEEA200
ENDCHAR
STARTCHAR uni0474
ENCODING 1140
SWIDTH 553 0
DWIDTH 11 0
BBX 11 14 0 0
BITMAP
7F6000004D70
3FA00000EE50
0DE00005F700
09F30009F200
04F7000DD000
01EB002F9000
00AF105F4000
006F409E0000
002F80DB0000
000CC2F60000
0008F7F20000
0003FED00000
0000EF800000
00009F400000
ENDCHAR
STARTCHAR uni0475
ENCODING 1141
SWIDTH 443 0
DWIDTH 9 0
BBX 9 11 0 0
BITMAP
4F70004E90
0EA000EE60
0BE005F700
06F308F200
02F60BD000
00DA0E9000
009D3F4000
004F8F1000
001FEB0000
000BF60000
0007F20000
ENDCHAR
STARTCHAR uni0476
ENCODING 1142
SWIDTH 553 0
DWIDTH 11 0
BBX 11 18 0 0
BITMAP
09F6CE100000
00BF6F900000
001C97B10000
000000000000
7F6000004D70
3FA00000EE50
0DE00005F700
09F30009F200
04F7000DD000
01EB002F9000
00AF105F4000
006F409E0000
002F80DB0000
000CC2F60000
0008F7F20000
0003FED00000
0000EF800000
00009F400000
ENDCHAR
STARTCHAR uni0477
ENCODING 1143
SWIDTH 443 0
DWIDTH 9 0
BBX 9 15 0 0
BITMAP
7F9AF30000
0AF7EC0000
00BA5C2000
0000000000
4F70004E90
0EA000EE60
0BE005F700
06F308F200
02F60BD000
00DA0E9000
009D3F4000
004F8F1000
001FEB0000
000BF60000
0007F20000
ENDCHAR
STARTCHAR uni0478
ENCODING 1144
SWIDTH 1017 0
DWIDTH 20 0
BBX 19 18 1 -4
BITMAP
005CEEC5000000000000
07FEAAEF700000000000
2FD1001DF20000000000
7F600005F707F6000FC0
AF200002FA03F9004F80
BF000000FB00ED007F40
CF000000FC009F20BE00
CF000000FC005F60EA00
CF000000FB001F94F600
AF200001FA000BD7F200
7F600005F70007FDC000
2FD1001DF20002FF8000
07FEAAEF700000DF4000
005CEEC50000009E0000
00000000000000CA0000
00000000000003F60000
0000000000019ED10000
000000000002EC300000
ENDCHAR
STARTCHAR uni0479
ENCODING 1145
SWIDTH 918 0
DWIDTH 18 0
BBX 18 15 0 -4
BITMAP
002AEEB2007F6000ED
02EF99FE203FA003F8
09F5005FA00DE007F4
0ED0000DE009F20BE0
1FB0000AF104F60EB0
1FA00009F201EA3F60
1FB0000AF100BE7F20
0ED0000CE0006FDD00
09F5003FA0002FF900
02EF99EE20000CF400
002BEEB3000009F100
0000000000000BB000
0000000000002F6000
000000000019EE1000
00000000001EC30000
ENDCHAR
STARTCHAR uni047A
ENCODING 1146
SWIDTH 593 0
DWIDTH 12 0
BBX 10 18 1 -2
BITMAP
0000220000
0000EC0000
005DFFB300
07FEFEFE30
2FD1974FC0
8F500009F4
CF100004F8
ED000002FA
FC000001FB
FC000001FB
ED000002FA
CF100004F8
8F500009F4
2FD1873FD0
07FEFEFF40
006DFFC300
0000EC0000
0000430000
ENDCHAR
STARTCHAR uni047B
ENCODING 1147
SWIDTH 498 0
DWIDTH 10 0
BBX 9 15 1 -2
BITMAP
0001100000
000DD00000
02BFFB2000
1DEEEEE100
7F5665F700
CE0000ED00
EB0000BF00
FA0000AF10
EB0000BF00
CE0000DD00
7F5774F700
1DEEEEE100
02BFFC3000
000DD00000
0001100000
ENDCHAR
STARTCHAR uni047C
ENCODING 1148
SWIDTH 752 0
DWIDTH 15 0
BBX 13 19 1 0
BITMAP
00000320000000
0000BFFC741000
0001F438CE3000
000000D9000000
000000E7000000
02BB03B109C300
0DF8000006FE10
5F900000007F70
7F500000002F90
9F400000001FB0
9F400000001FB0
9F4005F7001FB0
9F4005F7001FB0
9F4005F7001FB0
9F4005F7001FB0
7F5006F8002F90
5F900AFC006F70
0DFABFCFC9EE10
02BFE807DFC300
ENDCHAR
STARTCHAR uni047D
ENCODING 1149
SWIDTH 654 0
DWIDTH 13 0
BBX 11 16 1 0
BITMAP
000023000000
0007FFD84200
000C816BE700
000009D00000
00000AB00000
06E20C30E800
3FC10000BF50
9F2000001EB0
BE0000000CE0
CE0000000CF0
CE004F700CF0
CE004F700CF0
BE005F700CE0
9F208FA00EC0
3FC9FDF9BF60
06EEA19EE800
ENDCHAR
STARTCHAR uni047E
ENCODING 1150
SWIDTH 754 0
DWIDTH 15 0
BBX 13 18 1 0
BITMAP
00011111110000
000CFFFFFF1000
000003F5000000
00000000000000
9F4005F8000FC0
9F4005F8000FC0
9F4005F8000FC0
9F4005F8000FC0
9F4005F8000FC0
9F4005F8000FC0
9F4005F8000FC0
9F4005F8000FC0
9F4005F8000FC0
9F4005F8000FC0
8F4006F9001FB0
5F800AFD005F80
1DF9BFBFC9EE20
03BFE807DFC400
ENDCHAR
STARTCHAR uni047F
ENCODING 1151
SWIDTH 650 0
DWIDTH 13 0
BBX 11 15 1 0
BITMAP
001111111000
00CFFFFFF100
00004F500000
000000000000
DD005F600CE0
DD005F600CE0
DD005F600CE0
DD005F600CE0
DD005F600CE0
DD005F600CE0
DD005F600CE0
CE005F700CE0
AF108F901EC0
5FB9FEF9BF60
07DEA19ED700
ENDCHAR
STARTCHAR uni0480
ENCODING 1152
SWIDTH 570 0
DWIDTH 11 0
BBX 10 18 1 -4
BITMAP
005CEEA200
06FD9BFE30
2FD1005FB0
8F60000CF1
BF100008C2
DE00000000
DE00000000
DE00000000
DE00000000
CF10000000
8F50000000
2FC1000000
08FD850000
006DFC0000
0000FC0000
0000FC0000
0000FC0000
0000FC0000
ENDCHAR
STARTCHAR uni0481
ENCODING 1153
SWIDTH 472 0
DWIDTH 9 0
BBX 8 15 1 -4
BITMAP
02AEE900
1DE9AF90
7F6009F2
CE0004D4
EC000000
FB000000
EC000000
CE000000
7F500000
1EE75000
03CFC000
000EC000
000EC000
000EC000
000EC000
ENDCHAR
STARTCHAR uni0482
ENCODING 1154
SWIDTH 547 0
DWIDTH 11 0
BBX 9 13 1 0
BITMAP
0000006F20
001200D900
007E65F200
0019FEA000
00007FE500
0000CB9F80
5304F30550
AF7BB00000
07FF600000
00BFE60000
03F58F5000
0AC0031000
2F50000000
ENDCHAR
STARTCHAR uni0483
ENCODING 1155
SWIDTH 0 0
DWIDTH 0 0
BBX 7 5 -8 11
BITMAP
00000210
01111F80
8FFFFF80
8F000000
23000000
ENDCHAR
STARTCHAR uni0484
ENCODING 1156
SWIDTH 0 0
DWIDTH 0 0
BBX 7 3 -8 13
BITMAP
00003300
147DFF90
5EC726E0
ENDCHAR
STARTCHAR uni0485
ENCODING 1157
SWIDTH 0 0
DWIDTH 0 0
BBX 3 3 -6 13
BITMAP
5F40
2E60
0580
ENDCHAR
STARTCHAR uni0486
ENCODING 1158
SWIDTH 0 0
DWIDTH 0 0
BBX 3 3 -5 13
BITMAP
5F50
6E20
8500
ENDCHAR
STARTCHAR uni0488
ENCODING 1160
SWIDTH 0 0
DWIDTH 0 0
BBX 20 17 -15 -3
BITMAP
000000009EC200000000
00000005D19900000000
005DE500000001BEA000
00D53E00000008A1C500
00000000000000000000
00000000000000000000
00000000000000000000
2CE9000000000003DE80
991D40000000000B71E3
00000000000000000000
00000000000000000000
00000000000000000000
006ED400000002CE9000
00E35D0000000A81D400
00000000000000000000
000000009EC200000000
00000004E19900000000
ENDCHAR
STARTCHAR uni0489
ENCODING 1161
SWIDTH 0 0
DWIDTH 0 0
BBX 19 18 -15 -4
BITMAP
00000000087000000000
000000000E4000000000
000820004F1000000000
0007C0003600004C5000
0001E70000001CF70000
00007300000005200000
00000000000000000000
00000000000000000000
8C9500000000000B8300
15BC000000000007BE70
00010000000000000010
00000000000000000000
00003500000004700000
0007FC10000007E10000
006B4000063000C60000
000000001F4000380000
000000004E0000000000
00000000780000000000
ENDCHAR
STARTCHAR uni048A
ENCODING 1162
SWIDTH 666 0
DWIDTH 13 0
BBX 12 23 1 -4
BITMAP
000210021000
001F935F6000
0004CED80000
000000000000
000000000000
6F600004FB00
6F60000CFB00
6F60004FFB00
6F6000CAFB00
6F6004F3FB00
6F600C91FB00
6F604F21FB00
6F60CA01FB00
6F64F201FB00
6F6CA001FB00
6FAF2001FB00
6FFA0001FB00
6FF20001FB21
6FA00001FEF9
0000000003F8
0000000005F6
000000000BE1
000000000B50
ENDCHAR
STARTCHAR uni048B
ENCODING 1163
SWIDTH 550 0
DWIDTH 11 0
BBX 10 20 1 -4
BITMAP
0120002100
03F836F500
006DFD7000
0000000000
0000000000
8F3004FB00
8F300BFB00
8F303FFB00
8F30ABFB00
8F32F4FB00
8F39C0FB00
8F4F50FB00
8FBD00FB00
8FF500FB00
8FD000FB21
8F6000FEF9
00000003F8
00000006F6
0000000BE1
0000000B50
ENDCHAR
STARTCHAR uni048C
ENCODING 1164
SWIDTH 551 0
DWIDTH 11 0
BBX 12 14 -1 0
BITMAP
008F40000000
008F40000000
4FFFFF000000
27BF97000000
008F40000000
008F40000000
008FFFFFC600
008FA889EF70
008F40001EE0
008F40000AF3
008F40000AF3
008F40002EE0
008FA889EF70
008FFFFFC500
ENDCHAR
STARTCHAR uni048D
ENCODING 1165
SWIDTH 477 0
DWIDTH 10 0
BBX 10 16 -1 0
BITMAP
008D200000
009F200000
2FFFFFC000
17CF876000
009F200000
009F200000
009F200000
009F200000
009F200000
009FFFEC30
009F878EE2
009F2005F7
009F2002F9
009F2004F7
009F878EE1
009FFFEB30
ENDCHAR
STARTCHAR uni048E
ENCODING 1166
SWIDTH 557 0
DWIDTH 11 0
BBX 10 14 1 0
BITMAP
7FFFFFC500
7FA889EF60
7F50002EE1
7F500009F4
7F500028F4
7F5004FDF2
7F5001DFC0
7FFFFFFFC0
7FA88754F5
7F50000030
7F50000000
7F50000000
7F50000000
7F50000000
ENDCHAR
STARTCHAR uni048F
ENCODING 1167
SWIDTH 496 0
DWIDTH 10 0
BBX 8 15 1 -4
BITMAP
BD5DFC30
BFE9AFE1
BF4008F7
BF0001FB
BF0000DD
BF0000CE
BF0000DD
BF0059FB
BF306FF6
BFE89FF3
BF6DFCDC
BF000023
BF000000
BF000000
BF000000
ENDCHAR
STARTCHAR uni0490
ENCODING 1168
SWIDTH 479 0
DWIDTH 10 0
BBX 8 18 1 0
BITMAP
00000034
000000CD
000000CD
000000CD
8FFFFFFD
8FA88887
8F400000
8F400000
8F400000
8F400000
8F400000
8F400000
8F400000
8F400000
8F400000
8F400000
8F400000
8F400000
ENDCHAR
STARTCHAR uni0491
ENCODING 1169
SWIDTH 395 0
DWIDTH 8 0
BBX 7 15 1 0
BITMAP
00001100
0000AF10
0000AF10
0000AF10
AFFFFF10
AF888800
AF100000
AF100000
AF100000
AF100000
AF100000
AF100000
AF100000
AF100000
AF100000
ENDCHAR
STARTCHAR uni0492
ENCODING 1170
SWIDTH 487 0
DWIDTH 10 0
BBX 9 14 0 0
BITMAP
06FFFFFFF0
06FB888880
06F6000000
06F6000000
06F6000000
06F6000000
EFFFF60000
6AFA730000
06F6000000
06F6000000
06F6000000
06F6000000
06F6000000
06F6000000
ENDCHAR
STARTCHAR uni0493
ENCODING 1171
SWIDTH 371 0
DWIDTH 7 0
BBX 8 11 0 0
BITMAP
09FFFFF1
09F98881
09F30000
09F30000
09F30000
DFFFF700
6CF87300
09F30000
09F30000
09F30000
09F30000
ENDCHAR
STARTCHAR uni0494
ENCODING 1172
SWIDTH 539 0
DWIDTH 11 0
BBX 9 17 1 -3
BITMAP
6FFFFFFF00
6FB8888800
6F60000000
6F60000000
6F60000000
6F60000000
6FFFEB4000
6FB9AEF600
6F6001DF20
6F60005F70
6F60001FA0
6F60000FB0
6F60000FB0
6F60002F90
0000007F50
000019FB00
00002E9100
ENDCHAR
STARTCHAR uni0495
ENCODING 1173
SWIDTH 443 0
DWIDTH 9 0
BBX 8 14 1 -3
BITMAP
AFFFFF00
AF888800
AF100000
AF100000
AFFEA200
AF9BFE10
AF106F90
AF100DE0
AF100AF1
AF100AF1
AF100CE0
00004F90
0004EE10
0003C200
ENDCHAR
STARTCHAR uni0496
ENCODING 1174
SWIDTH 833 0
DWIDTH 17 0
BBX 17 17 0 -3
BITMAP
1EF2000DE0002FD100
06F9000DE0009F6000
00DF200DE002FC0000
005F900DE009F40000
000BF10DE02FB00000
0003F80DE09F300000
0000CFFFFFFB000000
0003FD8EF8DF200000
000AF50DE06FA00000
003FD00DE00DF30000
00BF500DE006FB0000
04FD000DE000DF3000
0CF6000DE0006FFF40
5FD0000DE0000EFF40
000000000000007F40
000000000000007F40
000000000000007F40
ENDCHAR
STARTCHAR uni0497
ENCODING 1175
SWIDTH 696 0
DWIDTH 14 0
BBX 14 14 0 -3
BITMAP
2EE104F700BF40
07F704F704FB00
00DE14F70CF200
005F74F75F8000
000BFFFFFE1000
001EDBFCCF3000
007F64F73FA000
01EE04F70BF200
07F804F705FA00
0DF204F700EFF6
6FB004F7008FF6
000000000005F6
000000000005F6
000000000005F6
ENDCHAR
STARTCHAR uni0498
ENCODING 1176
SWIDTH 517 0
DWIDTH 10 0
BBX 10 18 0 -4
BITMAP
003BEFC600
04FFA9DF90
0CF4001DF2
0BA00008F4
00000009F3
0000015FB0
0002FFFB10
000189CF80
0000000BF3
00000005F6
2FA00006F6
0EF3001CF3
05FE99DF90
004BFFC600
0000BF0000
0000BF0000
0000BF0000
0000BF0000
ENDCHAR
STARTCHAR uni0499
ENCODING 1177
SWIDTH 446 0
DWIDTH 9 0
BBX 7 15 1 -4
BITMAP
06DED700
7FC8CF70
DD001FB0
22004F90
00FFFC10
0088CF50
00001EC0
53000CE0
EC001EC0
8FB7CF50
07FFF500
006F5000
006F5000
006F5000
006F5000
ENDCHAR
STARTCHAR uni049A
ENCODING 1178
SWIDTH 617 0
DWIDTH 12 0
BBX 11 17 1 -3
BITMAP
6F60000CF600
6F60008FB000
6F6003FE1000
6F600CF50000
6F608FA00000
6F63FE100000
6FFFF6000000
6FB9FC000000
6F60AF700000
6F601EE20000
6F6006FB0000
6F6000BF6000
6F60002EFF60
6F600007FF60
000000004F60
000000004F60
000000004F60
ENDCHAR
STARTCHAR uni049B
ENCODING 1179
SWIDTH 524 0
DWIDTH 11 0
BBX 9 14 1 -3
BITMAP
8F3007F900
8F303FC000
8F31DE2000
8F39F40000
8FFF900000
8FADE10000
8F35F90000
8F30CF3000
8F304FB000
8F300BFFD0
8F3003FFE0
0000000CD0
0000000CD0
0000000CD0
ENDCHAR
STARTCHAR uni049C
ENCODING 1180
SWIDTH 553 0
DWIDTH 11 0
BBX 10 14 1 0
BITMAP
8F40000CF4
8F40003FB0
8F40009F40
8F4831EB00
8F4F67F300
8F4F6DB000
8FFFFF6000
8FAFBFB000
8F4F6AF300
8F4F54FA00
8F4000DF30
8F40007FA0
8F40001FF2
8F400009F9
ENDCHAR
STARTCHAR uni049D
ENCODING 1181
SWIDTH 498 0
DWIDTH 10 0
BBX 9 11 1 0
BITMAP
8F3000BF40
8F3104FA00
8F4F4BE100
8F4F8F6000
8FFFFE0000
8FBFDF4000
8F4F6FB000
8F372BF300
8F3005FA00
8F3000EF20
8F30008F90
ENDCHAR
STARTCHAR uni049E
ENCODING 1182
SWIDTH 570 0
DWIDTH 11 0
BBX 12 14 0 0
BITMAP
03F900009F90
03F90004FD10
DFFFF71DF300
69FC739F8000
03F904FC0000
03F91DF30000
03FFFF900000
03FC8EE10000
03F907FA0000
03F900CF5000
03F9003FE100
03F90008F900
03F90000DF40
03F900004FD1
ENDCHAR
STARTCHAR uni049F
ENCODING 1183
SWIDTH 462 0
DWIDTH 9 0
BBX 10 15 -1 0
BITMAP
007F400000
8FFFFC0000
47BF950000
007F400000
007F400AF5
007F404FA0
007F40CE10
007F46F600
007FFFC000
007FACF200
007F43FA00
007F40AF30
007F403FB0
007F400AF4
007F4003FC
ENDCHAR
STARTCHAR uni04A0
ENCODING 1184
SWIDTH 710 0
DWIDTH 14 0
BBX 14 14 0 0
BITMAP
4FFFFF60000DF5
2777BF60008FA0
00006F6003FE10
00006F600DF400
00006F608F9000
00006F63FD1000
00006FFFF50000
00006FB9FB0000
00006F60AF6000
00006F602EE200
00006F6006FB00
00006F6000CF60
00006F60002FE1
00006F600007FA
ENDCHAR
STARTCHAR uni04A1
ENCODING 1185
SWIDTH 607 0
DWIDTH 12 0
BBX 12 11 0 0
BITMAP
4FFFFD000BF5
2888ED007F80
0000DD03FB00
0000DD1DD100
0000DFFF5000
0000DE9FB000
0000DD0AF400
0000DD02FD00
0000DD009F70
0000DD001EE2
0000DD0007FA
ENDCHAR
STARTCHAR uni04A2
ENCODING 1186
SWIDTH 662 0
DWIDTH 13 0
BBX 12 17 1 -3
BITMAP
7F500000ED00
7F500000ED00
7F500000ED00
7F500000ED00
7F500000ED00
7F500000ED00
7FFFFFFFFD00
7FA88888FD00
7F500000ED00
7F500000ED00
7F500000ED00
7F500000ED00
7F500000EFF5
7F500000EFF5
0000000006F5
0000000006F5
0000000006F5
ENDCHAR
STARTCHAR uni04A3
ENCODING 1187
SWIDTH 541 0
DWIDTH 11 0
BBX 10 14 1 -3
BITMAP
8F3000FB00
8F3000FB00
8F3000FB00
8F3000FB00
8FFFFFFB00
8F9777FB00
8F3000FB00
8F3000FB00
8F3000FB00
8F3000FFF3
8F3000FFF3
00000008F3
00000008F3
00000008F3
ENDCHAR
STARTCHAR uni04A4
ENCODING 1188
SWIDTH 829 0
DWIDTH 17 0
BBX 15 14 1 0
BITMAP
7F500000EFFFFFC0
7F500000EE777760
7F500000ED000000
7F500000ED000000
7F500000ED000000
7F500000ED000000
7FFFFFFFFD000000
7FA88888FD000000
7F500000ED000000
7F500000ED000000
7F500000ED000000
7F500000ED000000
7F500000ED000000
7F500000ED000000
ENDCHAR
STARTCHAR uni04A5
ENCODING 1189
SWIDTH 614 0
DWIDTH 12 0
BBX 11 11 1 0
BITMAP
AF1002FFFF70
AF1002FC8840
AF1002F90000
AF1002F90000
AFFFFFF90000
AF8778F90000
AF1002F90000
AF1002F90000
AF1002F90000
AF1002F90000
AF1002F90000
ENDCHAR
STARTCHAR uni04A6
ENCODING 1190
SWIDTH 880 0
DWIDTH 18 0
BBX 16 17 1 -3
BITMAP
6FFFFFFFFC000000
6FB88888FC000000
6F600000FC000000
6F600000FC000000
6F600000FC000000
6F600000FC000000
6F600000FFFEA300
6F600000FE9AFF40
6F600000FC002ED0
6F600000FC0008F4
6F600000FC0004F7
6F600000FC0003F8
6F600000FC0003F8
6F600000FC0005F6
0000000000000AF2
000000000003AF90
000000000005D800
ENDCHAR
STARTCHAR uni04A7
ENCODING 1191
SWIDTH 755 0
DWIDTH 15 0
BBX 14 14 1 -3
BITMAP
AFFFFFF9000000
AF8888F9000000
AF1002F9000000
AF1002F9000000
AF1002FFFEB300
AF1002FD9AFF40
AF1002F9003FC0
AF1002F9000AF2
AF1002F90007F5
AF1002F90006F5
AF1002F90008F2
00000000001EC0
0000000002DF40
0000000000C500
ENDCHAR
STARTCHAR uni04A8
ENCODING 1192
SWIDTH 641 0
DWIDTH 13 0
BBX 12 14 1 0
BITMAP
019C02BEC300
0AF91DFBEE10
4F906F705F70
9F30BF100FB0
CF00CE000DD0
DE00DE000CE0
EE00DE000CE0
DE00DE000DE0
CF00BF100ED0
AF308F704FA0
5F902FE4CF40
0DF407FFFA00
03EFBAFFFC90
0029EEB35BE1
ENDCHAR
STARTCHAR uni04A9
ENCODING 1193
SWIDTH 528 0
DWIDTH 11 0
BBX 9 11 1 0
BITMAP
06D07ED300
3FC3FCDD00
9F28F26F40
CD0AF03F70
EC0BF03F80
EC0BF03F80
CE09F35F70
9F25FBBF40
4F90CFFD00
0AFAAFFD90
008DE83AD0
ENDCHAR
STARTCHAR uni04AA
ENCODING 1194
SWIDTH 566 0
DWIDTH 11 0
BBX 10 18 1 -4
BITMAP
004BEEC500
06FE99EF60
2FD1001EE1
7F600009F4
AF200005C5
BF10000000
CF00000000
CF00000000
BF10000000
AF200004B4
7F600008F4
2FC1001EE1
07FD99EF50
005DFFB400
0001FA0000
0001FA0000
0001FA0000
0001FA0000
ENDCHAR
STARTCHAR uni04AB
ENCODING 1195
SWIDTH 461 0
DWIDTH 9 0
BBX 9 15 0 -4
BITMAP
004BEEA200
03FE99FC00
0AF2007F40
0EC0002D60
1FB0000000
1FA0000000
1FA0000000
0EC0001840
0AF2006F50
03FE89EC00
004FFF9100
0005F60000
0005F60000
0005F60000
0005F60000
ENDCHAR
STARTCHAR uni04AC
ENCODING 1196
SWIDTH 520 0
DWIDTH 10 0
BBX 10 17 0 -3
BITMAP
6FFFFFFFFD
3888DF9887
0000AF2000
0000AF2000
0000AF2000
0000AF2000
0000AF2000
0000AF2000
0000AF2000
0000AF2000
0000AF2000
0000AF2000
0000AFF800
0000AFF800
000003F800
000003F800
000003F800
ENDCHAR
STARTCHAR uni04AD
ENCODING 1197
SWIDTH 424 0
DWIDTH 9 0
BBX 8 14 0 -3
BITMAP
7FFFFFFF
377CF877
0009F100
0009F100
0009F100
0009F100
0009F100
0009F100
0009F100
0009FF90
0009FF90
00002F90
00002F90
00002F90
ENDCHAR
STARTCHAR uni04AE
ENCODING 1198
SWIDTH 524 0
DWIDTH 10 0
BBX 10 14 0 0
BITMAP
7F800001FE
1EE00007F7
08F5000DE1
02FC005F80
00AF30BF20
003F92FA00
000BE9F300
0004FFB000
0000CF4000
0000AF2000
0000AF2000
0000AF2000
0000AF2000
0000AF2000
ENDCHAR
STARTCHAR uni04AF
ENCODING 1199
SWIDTH 444 0
DWIDTH 9 0
BBX 9 15 0 -4
BITMAP
4F70007F40
0EB000BE00
0AF101FA00
05F505F500
01F909F100
00BD0DB000
007F5F7000
002FDF2000
000DFD0000
0008F80000
0005F50000
0005F50000
0005F50000
0005F50000
0005F50000
ENDCHAR
STARTCHAR uni04B0
ENCODING 1200
SWIDTH 524 0
DWIDTH 10 0
BBX 10 14 0 0
BITMAP
7F800001FE
1FE00007F8
09F5000DF2
03FC005FA0
00BF30BF30
005F92FC00
000DE9F500
0007FFD000
006FFFFE00
0037CF8600
0000AF2000
0000AF2000
0000AF2000
0000AF2000
ENDCHAR
STARTCHAR uni04B1
ENCODING 1201
SWIDTH 444 0
DWIDTH 9 0
BBX 9 15 0 -4
BITMAP
4F70007F40
0EB000BE00
0AF101FA00
06F505F600
01F909F100
00CD0DC000
007F4F7000
003FDF3000
000DFD0000
017CFC7100
01FFFFF300
0005F50000
0005F50000
0005F50000
0005F50000
ENDCHAR
STARTCHAR uni04B2
ENCODING 1202
SWIDTH 559 0
DWIDTH 11 0
BBX 11 17 0 -3
BITMAP
1EF10001EE10
07F80008F700
00DE101EE100
006F807F7000
000CE1ED0000
0005FCF60000
0000CFD00000
0000CFD00000
0006FBF70000
000DE1DE1000
007F706F8000
01EE100EE100
08F80007FFC0
1EE10001EFE0
000000000EC0
000000000EC0
000000000EC0
ENDCHAR
STARTCHAR uni04B3
ENCODING 1203
SWIDTH 465 0
DWIDTH 9 0
BBX 9 14 0 -3
BITMAP
2FC001FD00
09F308F500
02FA1EC000
009F8F5000
001EFC0000
000AF60000
002FFC0000
00AF7F6000
03FA0DD000
0AF307FFC0
3FB001EFC0
0000000EC0
0000000EC0
0000000EC0
ENDCHAR
STARTCHAR uni04B4
ENCODING 1204
SWIDTH 781 0
DWIDTH 16 0
BBX 15 17 0 -3
BITMAP
5FFFFFFF800FD000
277AFB77400FD000
0005F700000FD000
0005F700000FD000
0005F700000FD000
0005F700000FD000
0005F700000FD000
0005F700000FD000
0005F700000FD000
0005F700000FD000
0005F700000FD000
0005F700000FD000
0005FB88888FE910
0005FFFFFFFFFF10
000000000000AF00
000000000000AF00
000000000000AE00
ENDCHAR
STARTCHAR uni04B5
ENCODING 1205
SWIDTH 587 0
DWIDTH 12 0
BBX 11 14 0 -3
BITMAP
8FFFFF40CD00
47AFA720CD00
006F5000CD00
006F5000CD00
006F5000CD00
006F5000CD00
006F5000CD00
006F5000CD00
006F5000CD00
006FA777EE70
006FFFFFFFE0
000000000BE0
000000000BD0
000000000BD0
ENDCHAR
STARTCHAR uni04B6
ENCODING 1206
SWIDTH 638 0
DWIDTH 13 0
BBX 11 17 1 -3
BITMAP
AF200006F600
AF200006F600
AF200006F600
AF200006F600
9F300006F600
8F500006F600
4FC3014AF600
09FFFFFFF600
00378757F600
00000006F600
00000006F600
00000006F600
00000006FFD0
00000006FFD0
000000000DD0
000000000DD0
000000000DD0
ENDCHAR
STARTCHAR uni04B7
ENCODING 1207
SWIDTH 512 0
DWIDTH 10 0
BBX 9 14 1 -3
BITMAP
FB0009F200
FB0009F200
FB0009F200
EB0009F200
CD0009F200
8F602BF200
1DFFFFF200
01576AF200
000009F200
000009FFA0
000009FFA0
0000001FA0
0000001FA0
0000001FA0
ENDCHAR
STARTCHAR uni04B8
ENCODING 1208
SWIDTH 595 0
DWIDTH 12 0
BBX 10 14 1 0
BITMAP
AF200006F6
AF200006F6
AF200006F6
AF200006F6
9F308B06F6
8F508C06F6
4FC18C29F6
0AFFFFFFF6
0058DE68F6
00008C06F6
00008B06F6
00000006F6
00000006F6
00000006F6
ENDCHAR
STARTCHAR uni04B9
ENCODING 1209
SWIDTH 483 0
DWIDTH 10 0
BBX 8 11 1 0
BITMAP
CE0006F5
CE0006F5
CE0006F5
CE0956F5
AF1D86F5
6F8D87F5
0BFFFFF5
005EB9F5
000B66F5
000006F5
000006F5
ENDCHAR
STARTCHAR uni04BA
ENCODING 1210
SWIDTH 595 0
DWIDTH 12 0
BBX 10 14 1 0
BITMAP
CF00000000
CF00000000
CF00000000
CF00000000
CF00000000
CF9DFFD700
CFEB99DF80
CF00001EE0
CF00000AF3
CF000008F4
CF000008F4
CF000008F4
CF000008F4
CF000008F4
ENDCHAR
STARTCHAR uni04BB
ENCODING 1211
SWIDTH 482 0
DWIDTH 10 0
BBX 8 15 1 0
BITMAP
BF000000
BF000000
BF000000
BF000000
BF4CEC30
BFEAAFD0
BF6009F3
BF0006F5
BF0005F6
BF0005F6
BF0005F6
BF0005F6
BF0005F6
BF0005F6
BF0005F6
ENDCHAR
STARTCHAR uni04BC
ENCODING 1212
SWIDTH 674 0
DWIDTH 14 0
BBX 13 14 0 0
BITMAP
000002AEEA2000
00002EEAAEE200
0000BF3003FA00
1612FA0000AF10
1F56F600007F40
0CC9F400006F50
03EFFFFFFFFF60
001AF866666620
0008F400000000
0006F600000000
0003FB00000000
0000CF50001100
00002EFB9AE800
0000029DFEA300
ENDCHAR
STARTCHAR uni04BD
ENCODING 1213
SWIDTH 518 0
DWIDTH 10 0
BBX 11 11 -1 0
BITMAP
00003BFE9100
0202EE8AFA00
1F4AF200AF20
0DBEB0005F50
04EFFFFFFF70
003FC7777730
001FA0000000
000DD0000000
0008F5001A10
0001DF98ED10
00002AEEA200
ENDCHAR
STARTCHAR uni04BE
ENCODING 1214
SWIDTH 674 0
DWIDTH 14 0
BBX 13 18 0 -4
BITMAP
000002AEEA2000
00002EEAAEE200
0000BF3003FA00
1612FA0000AF10
1F56F600007F40
0CC9F400006F50
03EFFFFFFFFF60
001AF866666620
0008F400000000
0006F600000000
0003FB00000000
0000CF50001100
00002EFB9AE800
0000029FFFA300
00000009F20000
00000009F20000
00000009F20000
00000009F20000
ENDCHAR
STARTCHAR uni04BF
ENCODING 1215
SWIDTH 518 0
DWIDTH 10 0
BBX 11 15 -1 -4
BITMAP
00003BFE9100
0202EE8AFA00
1F4AF200AF20
0DBEB0005F50
04EFFFFFFF70
003FC7777730
001FA0000000
000DD0000000
0008F5001A10
0001DF98ED10
00002AFFA200
000000CE0000
000000CE0000
000000CE0000
000000CE0000
ENDCHAR
STARTCHAR uni04C0
ENCODING 1216
SWIDTH 250 0
DWIDTH 5 0
BBX 3 14 1 0
BITMAP
6F60
6F60
6F60
6F60
6F60
6F60
6F60
6F60
6F60
6F60
6F60
6F60
6F60
6F60
ENDCHAR
STARTCHAR uni04C1
ENCODING 1217
SWIDTH 791 0
DWIDTH 16 0
BBX 16 19 0 0
BITMAP
0000021001200000
00000CC34DA00000
000002BEEA100000
0000000000000000
0000000000000000
1EF2000DE0002FD1
06F9000DE0009F60
00DF200DE002FC00
005F900DE009F400
000BF10DE02FB000
0003F80DE09F3000
0000CFFFFFFB0000
0003FD8EF8DF2000
000AF50DE06FA000
003FD00DE00DF300
00BF500DE006FB00
04FD000DE000DF30
0CF6000DE0006FB0
5FD0000DE0000EF4
ENDCHAR
STARTCHAR uni04C2
ENCODING 1218
SWIDTH 662 0
DWIDTH 13 0
BBX 13 16 0 0
BITMAP
00012000210000
0002F836F50000
00005DFD700000
00000000000000
00000000000000
2EE104F700BF40
07F704F704FB00
00DE14F70CF200
005F74F75F8000
000BFFFFFE1000
001EDBFCCF3000
007F64F73FA000
01EE04F70BF200
07F804F705FA00
0DF204F700EF20
6FB004F7008F90
ENDCHAR
STARTCHAR uni04C3
ENCODING 1219
SWIDTH 553 0
DWIDTH 11 0
BBX 10 17 1 -3
BITMAP
8F40001EE2
8F4000AF60
8F4006FA00
8F402ED100
8F40BF4000
8F46F80000
8FFFFD8100
8FBAADFD10
8F40007FA0
8F40000DF1
8F400009F4
8F400007F5
8F400008F4
8F40000AF2
0000001ED0
000006DF50
00000AC500
ENDCHAR
STARTCHAR uni04C4
ENCODING 1220
SWIDTH 481 0
DWIDTH 10 0
BBX 8 14 1 -3
BITMAP
8F3007F8
8F304FB0
8F32ED10
8F3CE200
8FFFE700
8FA9CFB0
8F3009F5
8F3001FA
8F3000EC
8F3000DC
8F3001FA
000007F4
00007FB0
00007A10
ENDCHAR
STARTCHAR uni04C5
ENCODING 1221
SWIDTH 662 0
DWIDTH 13 0
BBX 13 18 0 -4
BITMAP
000CFFFFFFA000
000DE8889FA000
000DD0002FA000
000ED0002FA000
000EC0002FA000
000FB0002FA000
000FB0002FA000
001FA0002FA000
002F90002FA000
003F80002FA000
006F60002FA000
00BF20002FA000
3BFA00002FB210
6EA100002FEF80
00000000004F70
00000000007F50
0000000000CE10
0000000001B400
ENDCHAR
STARTCHAR uni04C6
ENCODING 1222
SWIDTH 551 0
DWIDTH 11 0
BBX 11 15 0 -4
BITMAP
007FFFFFB000
007F988FB000
008F300FB000
008F200FB000
009F100FB000
00AF100FB000
00BF000FB000
00CD000FB000
02FA000FB000
4DF5000FB210
7E80000FEF90
000000003F80
000000005F60
00000000BE10
00000000B500
ENDCHAR
STARTCHAR uni04C7
ENCODING 1223
SWIDTH 620 0
DWIDTH 12 0
BBX 10 18 1 -4
BITMAP
6F600001FB
6F600001FB
6F600001FB
6F600001FB
6F600001FB
6F600001FB
6FFFFFFFFB
6FB88888FB
6F600001FB
6F600001FB
6F600001FB
6F600001FB
6F600001FB
6F600001FB
00000001FB
00000003FA
0000008CF5
000000DE80
ENDCHAR
STARTCHAR uni04C8
ENCODING 1224
SWIDTH 498 0
DWIDTH 10 0
BBX 8 15 1 -4
BITMAP
AF1002F9
AF1002F9
AF1002F9
AF1002F9
AFFFFFF9
AF8778F9
AF1002F9
AF1002F9
AF1002F9
AF1002F9
AF1002F9
000002F9
000004F7
00007CF3
0000ED60
ENDCHAR
STARTCHAR uni04C9
ENCODING 1225
SWIDTH 671 0
DWIDTH 13 0
BBX 12 18 1 -4
BITMAP
7F500000ED00
7F500000ED00
7F500000ED00
7F500000ED00
7F500000ED00
7F500000ED00
7FFFFFFFFD00
7FA88888FD00
7F500000ED00
7F500000ED00
7F500000ED00
7F500000ED00
7F500000ED21
7F500000EEFA
0000000002FA
0000000004F7
000000000AF2
000000000A70
ENDCHAR
STARTCHAR uni04CA
ENCODING 1226
SWIDTH 550 0
DWIDTH 11 0
BBX 10 15 1 -4
BITMAP
8F3000FB00
8F3000FB00
8F3000FB00
8F3000FB00
8FFFFFFB00
8F9777FB00
8F3000FB00
8F3000FB00
8F3000FB00
8F3000FB21
8F3000FEF8
00000004F8
00000006F6
0000000CE1
0000001B50
ENDCHAR
STARTCHAR uni04CB
ENCODING 1227
SWIDTH 600 0
DWIDTH 12 0
BBX 10 17 1 -3
BITMAP
AF200006F6
AF200006F6
AF200006F6
AF200006F6
9F300006F6
8F500006F6
4FC3014AF6
09FFFFFFF6
00378757F6
00000006F6
00000006F6
00000006F6
000000EFF6
000000EFF6
000000EC00
000000EC00
000000EC00
ENDCHAR
STARTCHAR uni04CC
ENCODING 1228
SWIDTH 479 0
DWIDTH 10 0
BBX 8 14 1 -3
BITMAP
FB0009F2
FB0009F2
FB0009F2
EB0009F2
CD0009F2
8F602BF2
1DFFFFF2
01576AF2
000009F2
0002FFF2
0002FFF2
0002F900
0002F900
0002F900
ENDCHAR
STARTCHAR uni04CD
ENCODING 1229
SWIDTH 801 0
DWIDTH 16 0
BBX 15 18 1 -4
BITMAP
7FE1000000DF8000
7FF5000003FF8000
7FFA000008FF8000
7FDE00000DDF8000
7F9F40003F8F8000
7F4F90008F4F8000
7F4AE000DC2F8000
7F45F403F73F8000
7F51E908F13F8000
7F50AE0CB03F8000
7F505F6F603F8000
7F501EEF103F8000
7F500AFB003F9210
7F5005F6003FFF40
0000000000008F40
000000000000AF20
000000000001EB00
000000000002C200
ENDCHAR
STARTCHAR uni04CE
ENCODING 1230
SWIDTH 687 0
DWIDTH 14 0
BBX 13 15 1 -4
BITMAP
8FD00000DF7000
8FF20003FF7000
8FF70008FF7000
8FDC000DEF7000
8F8F203F9F7000
8F4F708E5F7000
8F3AC0DA4F7000
8F35F5F54F7000
8F31EEE04F7000
8F30AF904F8210
8F304F404FEF50
00000000007F40
0000000000AF20
0000000001EB00
0000000002C200
ENDCHAR
STARTCHAR uni04CF
ENCODING 1231
SWIDTH 250 0
DWIDTH 5 0
BBX 3 14 1 0
BITMAP
6F60
6F60
6F60
6F60
6F60
6F60
6F60
6F60
6F60
6F60
6F60
6F60
6F60
6F60
ENDCHAR
STARTCHAR uni04D0
ENCODING 1232
SWIDTH 576 0
DWIDTH 12 0
BBX 11 19 0 0
BITMAP
000210022000
000EB34E8000
0003CEE91000
000000000000
000000000000
00002FA00000
00007FF10000
0000CEF50000
0002F7EA0000
0007F2AE1000
000CD05F5000
002F901FA000
007F400BE100
00CE0007F500
02FFFFFFFA00
07FA8888DE00
0BF100008F50
1FB000003FA0
6F6000000DE0
ENDCHAR
STARTCHAR uni04D1
ENCODING 1233
SWIDTH 479 0
DWIDTH 10 0
BBX 8 16 1 0
BITMAP
02100120
0BC34DB0
02BEEA20
00000000
00000000
04BEEA10
4FD89FB0
8D200AF1
000008F3
02ADFFF3
3FD74AF3
AF2008F3
DD0008F3
CE101CF3
7FC9DEF4
08DE96F7
ENDCHAR
STARTCHAR uni04D2
ENCODING 1234
SWIDTH 576 0
DWIDTH 12 0
BBX 11 17 0 0
BITMAP
003F901EC000
003E901DC000
000000000000
00002FA00000
00007FF10000
0000CEF50000
0002F7EA0000
0007F2AE1000
000CD05F5000
002F901FA000
007F400BE100
00CE0007F500
02FFFFFFFA00
07FA8888DE00
0BF100008F50
1FB000003FA0
6F6000000DE0
ENDCHAR
STARTCHAR uni04D3
ENCODING 1235
SWIDTH 479 0
DWIDTH 10 0
BBX 8 15 1 0
BITMAP
1EC00CE1
1DB00BD1
00000000
00000000
04BEEA10
4FD89FB0
8D200AF1
000008F3
02ADFFF3
3FD74AF3
AF2008F3
DD0008F3
CE101CF3
7FC9DEF4
08DE96F7
ENDCHAR
STARTCHAR uni04D4
ENCODING 1236
SWIDTH 812 0
DWIDTH 16 0
BBX 16 14 0 0
BITMAP
0000001EFFFFFFF4
0000009FFC777772
000002FBFA000000
000009F3FA000000
00002FB0FB000000
0000AF30FB000000
0002FB00EFFFFF90
000AF400EE777740
003FC000DD000000
00AFFFFFFE000000
03FEBBBBEE000000
0BF50000CF000000
4FC00000BF777775
BF500000AFFFFFFC
ENDCHAR
STARTCHAR uni04D5
ENCODING 1237
SWIDTH 728 0
DWIDTH 15 0
BBX 14 11 0 0
BITMAP
007DFD708EFB30
08FC8CFCFA8EE1
0BC000EF8003F8
000000CF1000EA
007CEEFFFFFFFC
09FB66DF666665
0FC000CF100000
2F9000CF400000
1FB002EFB00022
0BF99EEAFB8AF8
02BEEA207DFD91
ENDCHAR
STARTCHAR uni04D6
ENCODING 1238
SWIDTH 496 0
DWIDTH 10 0
BBX 9 19 1 0
BITMAP
0120012000
07F53AF100
008EEC4000
0000000000
0000000000
7FFFFFFF10
7FA8888810
7F50000000
7F50000000
7F50000000
7F50000000
7FFFFFF500
7FA8888300
7F50000000
7F50000000
7F50000000
7F50000000
7FA8888810
7FFFFFFF30
ENDCHAR
STARTCHAR uni04D7
ENCODING 1239
SWIDTH 468 0
DWIDTH 9 0
BBX 8 16 1 0
BITMAP
02100220
0EB34E90
03BEE910
00000000
00000000
03BEEA20
2ED89FD0
9F2007F5
DC0003F8
FFFFFFF9
FD777774
FB000000
ED000000
AF400060
3FF98CF4
04BEEC50
ENDCHAR
STARTCHAR uni04D8
ENCODING 1240
SWIDTH 597 0
DWIDTH 12 0
BBX 11 14 0 0
BITMAP
005BEFD81000
00CEA9CFD200
00200006FC00
00000000AF40
000000005F80
000000002FB0
000000000FC0
2FFFFFFFFFC0
2FC777777FB0
1FB000003F80
0CE000008F30
07F80003FB00
00BFC9AFD200
0007DFD91000
ENDCHAR
STARTCHAR uni04D9
ENCODING 1241
SWIDTH 465 0
DWIDTH 9 0
BBX 8 11 1 0
BITMAP
19EFC500
8E98DF60
22001DE0
000007F4
000005F6
FFFFFFF7
FD777AF6
DD0008F4
AF201DD0
3FD8CF50
04CFD500
ENDCHAR
STARTCHAR uni04DA
ENCODING 1242
SWIDTH 597 0
DWIDTH 12 0
BBX 11 17 0 0
BITMAP
00AE207F5000
009E207E5000
000000000000
005BEFD81000
00CEA9CFD200
00200006FC00
00000000AF40
000000005F80
000000002FB0
000000000FC0
2FFFFFFFFFC0
2FC777777FB0
1FB000003F80
0CE000008F30
07F80003FB00
00BFC9AFD200
0007DFD91000
ENDCHAR
STARTCHAR uni04DB
ENCODING 1243
SWIDTH 465 0
DWIDTH 9 0
BBX 8 15 1 0
BITMAP
4F901EB0
3E801DB0
00000000
00000000
19EFC500
8E98DF60
22001DE0
000007F4
000005F6
FFFFFFF7
FD777AF6
DD0008F4
AF201DD0
3FD8CF50
04CFD500
ENDCHAR
STARTCHAR uni04DC
ENCODING 1244
SWIDTH 791 0
DWIDTH 16 0
BBX 16 17 0 0
BITMAP
00001EB00CE10000
00001DB00CD10000
0000000000000000
1EF2000DE0002FD1
06F9000DE0009F60
00DF200DE002FC00
005F900DE009F400
000BF10DE02FB000
0003F80DE09F3000
0000CFFFFFFB0000
0003FD8EF8DF2000
000AF50DE06FA000
003FD00DE00DF300
00BF500DE006FB00
04FD000DE000DF30
0CF6000DE0006FB0
5FD0000DE0000EF4
ENDCHAR
STARTCHAR uni04DD
ENCODING 1245
SWIDTH 662 0
DWIDTH 13 0
BBX 13 15 0 0
BITMAP
0006F603F90000
0005E603E90000
00000000000000
00000000000000
2EE104F700BF40
07F704F704FB00
00DE14F70CF200
005F74F75F8000
000BFFFFFE1000
001EDBFCCF3000
007F64F73FA000
01EE04F70BF200
07F804F705FA00
0DF204F700EF20
6FB004F7008F90
ENDCHAR
STARTCHAR uni04DE
ENCODING 1246
SWIDTH 517 0
DWIDTH 10 0
BBX 10 17 0 0
BITMAP
00DE109E30
00CD009E20
0000000000
003BEFC600
04FFA9DF90
0CF4001DF2
0BA00008F4
00000009F3
0000015FB0
0002FFFB10
000189CF80
0000000BF3
00000005F6
2FA00006F6
0EF3001CF3
05FE99DF90
004BEFC600
ENDCHAR
STARTCHAR uni04DF
ENCODING 1247
SWIDTH 446 0
DWIDTH 9 0
BBX 7 15 1 0
BITMAP
8F405F70
7E404E70
00000000
00000000
06DED700
7FC8CF70
DD001FB0
22004F90
00FFFC10
0088CF50
00001EC0
53000CE0
EC001EC0
8FB7CF50
07DEC500
ENDCHAR
STARTCHAR uni04E0
ENCODING 1248
SWIDTH 510 0
DWIDTH 10 0
BBX 8 14 1 0
BITMAP
9FFFFFF9
58888DF6
00003FB0
0000CE10
0008F500
003F9000
008FEB30
00479EF3
000003FB
000000DE
ED0000CF
BF4003FC
3FF99EF4
03BEEB40
ENDCHAR
STARTCHAR uni04E1
ENCODING 1249
SWIDTH 510 0
DWIDTH 10 0
BBX 8 15 1 -4
BITMAP
9FFFFFF8
48888EF5
00005FA0
0001DE10
0009F500
004FA000
008FD920
00479EE2
000004F9
000000DD
440000BF
DD0000CE
AF4004FA
2EE99EE2
03BEEB30
ENDCHAR
STARTCHAR uni04E2
ENCODING 1250
SWIDTH 619 0
DWIDTH 12 0
BBX 10 18 1 0
BITMAP
0036666600
009FFFFF10
0000000000
0000000000
6F600004FB
6F60000CFB
6F60004FFB
6F6000CAFB
6F6004F3FB
6F600C91FB
6F604F21FB
6F60CA01FB
6F64F201FB
6F6CA001FB
6FAF2001FB
6FFA0001FB
6FF20001FB
6FA00001FB
ENDCHAR
STARTCHAR uni04E3
ENCODING 1251
SWIDTH 509 0
DWIDTH 10 0
BBX 8 15 1 0
BITMAP
04666660
0BFFFFF0
00000000
00000000
8F3004FB
8F300BFB
8F303FFB
8F30ABFB
8F32F4FB
8F39C0FB
8F4F50FB
8FBD00FB
8FF500FB
8FD000FB
8F6000FB
ENDCHAR
STARTCHAR uni04E4
ENCODING 1252
SWIDTH 619 0
DWIDTH 12 0
BBX 10 17 1 0
BITMAP
00BE108F40
00BD108E30
0000000000
6F600004FB
6F60000CFB
6F60004FFB
6F6000CAFB
6F6004F3FB
6F600C91FB
6F604F21FB
6F60CA01FB
6F64F201FB
6F6CA001FB
6FAF2001FB
6FFA0001FB
6FF20001FB
6FA00001FB
ENDCHAR
STARTCHAR uni04E5
ENCODING 1253
SWIDTH 509 0
DWIDTH 10 0
BBX 8 15 1 0
BITMAP
0DD00AE2
0CC00AE2
00000000
00000000
8F3004FB
8F300BFB
8F303FFB
8F30ABFB
8F32F4FB
8F39C0FB
8F4F50FB
8FBD00FB
8FF500FB
8FD000FB
8F6000FB
ENDCHAR
STARTCHAR uni04E6
ENCODING 1254
SWIDTH 600 0
DWIDTH 12 0
BBX 10 17 1 0
BITMAP
01ED00BE20
00DC00AE10
0000000000
005CEEC500
07FEAAEF70
2FD1001DF2
7F600005F7
AF200002FA
BF000000FB
CF000000FC
CF000000FC
CF000000FB
AF200001FA
7F600005F7
2FD1001DF2
07FEAAEF70
005CEEC500
ENDCHAR
STARTCHAR uni04E7
ENCODING 1255
SWIDTH 501 0
DWIDTH 10 0
BBX 10 15 0 0
BITMAP
01EB00CD10
01EA00CD10
0000000000
0000000000
002AEEB200
02EF99FE20
09F5005FA0
0ED0000DE0
1FB0000AF1
1FA00009F2
1FB0000AF1
0ED0000CE0
09F5003FA0
02EF99EE20
002BEEB300
ENDCHAR
STARTCHAR uni04E8
ENCODING 1256
SWIDTH 593 0
DWIDTH 12 0
BBX 10 14 1 0
BITMAP
004BEEA200
06FEABFE30
1EC1003EC0
8F400009F3
CE000004F7
ED000002F9
FFFFFFFFFB
FE777778FB
EE000002F9
CF100005F8
8F600009F4
2ED2004FC0
06FEAAFE30
004BEEA200
ENDCHAR
STARTCHAR uni04E9
ENCODING 1257
SWIDTH 497 0
DWIDTH 10 0
BBX 10 11 0 0
BITMAP
001AEEA200
01DE99ED10
07F4004F80
0CC0000CD0
0FFFFFFFF0
1FD7777DF1
0FC0000CF1
0CF1001FD0
07F7007F80
01DF99FD10
002AEEA200
ENDCHAR
STARTCHAR uni04EA
ENCODING 1258
SWIDTH 593 0
DWIDTH 12 0
BBX 10 17 1 0
BITMAP
00DD00AE20
00CD009E20
0000000000
004BEEA200
06FEABFE30
1EC1003EC0
8F400009F3
CE000004F7
ED000002F9
FFFFFFFFFB
FE777778FB
EE000002F9
CF100005F8
8F600009F4
2ED2004FC0
06FEAAFE30
004BEEA200
ENDCHAR
STARTCHAR uni04EB
ENCODING 1259
SWIDTH 497 0
DWIDTH 10 0
BBX 10 15 0 0
BITMAP
03F901EC00
03E801DB00
0000000000
0000000000
001AEEA200
01DE99ED10
07F4004F80
0CC0000CD0
0FFFFFFFF0
1FD7777DF1
0FC0000CF1
0CF1001FD0
07F7007F80
01DF99FD10
002AEEA200
ENDCHAR
STARTCHAR uni04EC
ENCODING 1260
SWIDTH 589 0
DWIDTH 12 0
BBX 10 17 1 0
BITMAP
02EA00DD00
02E900DC00
0000000000
005CFEA200
07FD9AEE30
1FD1003ED0
6F700008F4
58200003F8
00000002FA
000AFFFFFB
00058889FB
00000002FA
48200004F8
6F600008F4
1FC1002ED0
07FD99EE40
005CEEA300
ENDCHAR
STARTCHAR uni04ED
ENCODING 1261
SWIDTH 472 0
DWIDTH 9 0
BBX 8 15 1 0
BITMAP
5F702EA0
4E702EA0
00000000
00000000
06DFC500
7FC8CF40
EC000DD0
110007F2
007FFFF5
00377AF5
000007F5
C8000AF2
CE102FC0
4FC8DF40
05DFC400
ENDCHAR
STARTCHAR uni04EE
ENCODING 1262
SWIDTH 547 0
DWIDTH 11 0
BBX 10 18 1 0
BITMAP
0266666200
04FFFFF600
0000000000
0000000000
DF10000EF1
8F60005FB0
2FC000AF50
0BF200EE10
06F704FA00
01ED09F400
009F3EE000
003FCF9000
000DFF3000
0007FD0000
0005F80000
000AF20000
05AFA00000
08EA100000
ENDCHAR
STARTCHAR uni04EF
ENCODING 1263
SWIDTH 416 0
DWIDTH 8 0
BBX 8 19 0 -4
BITMAP
03666661
07FFFFF3
00000000
00000000
8F5001FC
3F9004F8
0ED008F3
09F20BE0
05F50FA0
01F94F60
00BD7F10
007FDC00
002FF800
000DF400
0009E000
000CA000
003F5000
19ED1000
2EC30000
ENDCHAR
STARTCHAR uni04F0
ENCODING 1264
SWIDTH 547 0
DWIDTH 11 0
BBX 10 17 1 0
BITMAP
07F504F800
06E404E700
0000000000
DF10000EF1
8F60005FB0
2FC000AF50
0BF200EE10
06F704FA00
01ED09F400
009F3EE000
003FCF9000
000DFF3000
0007FD0000
0005F80000
000AF20000
05AFA00000
08EA100000
ENDCHAR
STARTCHAR uni04F1
ENCODING 1265
SWIDTH 416 0
DWIDTH 8 0
BBX 8 19 0 -4
BITMAP
09F306F5
09E306E5
00000000
00000000
8F5001FC
3F9004F8
0ED008F3
09F20BE0
05F50FA0
01F94F60
00BD7F10
007FDC00
002FF800
000DF400
0009E000
000CA000
003F5000
19ED1000
2EC30000
ENDCHAR
STARTCHAR uni04F2
ENCODING 1266
SWIDTH 547 0
DWIDTH 11 0
BBX 10 18 1 0
BITMAP
0009F3CE20
002F98F500
005D2B9000
0000000000
DF10000EF1
8F60005FB0
2FC000AF50
0BF200EE10
06F704FA00
01ED09F400
009F3EE000
003FCF9000
000DFF3000
0007FD0000
0005F80000
000AF20000
05AFA00000
08EA100000
ENDCHAR
STARTCHAR uni04F3
ENCODING 1267
SWIDTH 416 0
DWIDTH 8 0
BBX 9 19 0 -4
BITMAP
000BE3ED10
004F7BF300
007C3C7000
0000000000
8F5001FC00
3F9004F800
0ED008F300
09F20BE000
05F50FA000
01F94F6000
00BD7F1000
007FDC0000
002FF80000
000DF40000
0009E00000
000CA00000
003F500000
19ED100000
2EC3000000
ENDCHAR
STARTCHAR uni04F4
ENCODING 1268
SWIDTH 600 0
DWIDTH 12 0
BBX 10 17 1 0
BITMAP
03FA00DD00
02E900DC00
0000000000
AF200006F6
AF200006F6
AF200006F6
AF200006F6
9F300006F6
8F500006F6
4FC3014AF6
09FFFFFFF6
00378757F6
00000006F6
00000006F6
00000006F6
00000006F6
00000006F6
ENDCHAR
STARTCHAR uni04F5
ENCODING 1269
SWIDTH 479 0
DWIDTH 10 0
BBX 8 15 1 0
BITMAP
7F504F80
6E504E80
00000000
00000000
FB0009F2
FB0009F2
FB0009F2
EB0009F2
CD0009F2
8F602BF2
1DFFFFF2
01576AF2
000009F2
000009F2
000009F2
ENDCHAR
STARTCHAR uni04F6
ENCODING 1270
SWIDTH 487 0
DWIDTH 10 0
BBX 8 17 1 -3
BITMAP
6FFFFFFF
6FB88888
6F600000
6F600000
6F600000
6F600000
6F600000
6F600000
6F600000
6F600000
6F600000
6F600000
6FFD0000
6FFD0000
00DD0000
00DD0000
00DD0000
ENDCHAR
STARTCHAR uni04F7
ENCODING 1271
SWIDTH 371 0
DWIDTH 7 0
BBX 7 14 1 -3
BITMAP
9FFFFF10
9F988810
9F300000
9F300000
9F300000
9F300000
9F300000
9F300000
9F300000
9FFA0000
9FFA0000
01FA0000
01FA0000
01FA0000
ENDCHAR
STARTCHAR uni04F8
ENCODING 1272
SWIDTH 755 0
DWIDTH 15 0
BBX 13 17 1 0
BITMAP
0007F504F80000
0006E504E80000
00000000000000
6F600000006F60
6F600000006F60
6F600000006F60
6F600000006F60
6F600000006F60
6F600000006F60
6FFFFFD7006F60
6FB889DF906F60
6F60000DF26F60
6F600008F56F60
6F600008F56F60
6F60001DF26F60
6FB889DF906F60
6FFFFFD7006F60
ENDCHAR
STARTCHAR uni04F9
ENCODING 1273
SWIDTH 679 0
DWIDTH 14 0
BBX 11 15 1 0
BITMAP
005F702EA000
005E602E9000
000000000000
000000000000
8F3000000DD0
8F3000000DD0
8F3000000DD0
8F3000000DD0
8FFFEC400DD0
8F878EE20DD0
8F3004F80DD0
8F3002F90DD0
8F3004F70DD0
8F878EE20DD0
8FFFEB300DD0
ENDCHAR
STARTCHAR uni04FA
ENCODING 1274
SWIDTH 520 0
DWIDTH 10 0
BBX 10 18 0 -4
BITMAP
00BFFFFFFA
00BF988886
00BF100000
00BF100000
00BF100000
3FFFFF1000
27FF871000
00BF100000
00BF100000
00BF100000
00BF100000
00BF100000
00BF940000
00BFF90000
0002F90000
0004F80000
009DF30000
00ED700000
ENDCHAR
STARTCHAR uni04FB
ENCODING 1275
SWIDTH 410 0
DWIDTH 8 0
BBX 8 15 0 -4
BITMAP
00CFFFFD
00CF8886
00CE0000
00CE0000
4FFFFF10
27FF7700
00CE0000
00CE0000
00CE0000
00CF7300
00CFF700
0004F700
0005F600
019DF200
01ED5000
ENDCHAR
STARTCHAR uni04FC
ENCODING 1276
SWIDTH 570 0
DWIDTH 11 0
BBX 11 18 0 -4
BITMAP
1EF10001EE10
07F80008F700
00DE101EE100
006F807F7000
000CE1ED0000
0005FCF60000
0000CFD00000
0000CFD00000
0006FBF70000
000DE1DE1000
007F706F8000
01EE100EE100
08F80007FE70
1EE10001EFF0
000000000BF0
000000000CE0
00000005AFA0
00000008EA10
ENDCHAR
STARTCHAR uni04FD
ENCODING 1277
SWIDTH 476 0
DWIDTH 10 0
BBX 9 15 0 -4
BITMAP
2FC001FD00
09F308F500
02FA1EC000
009F8F5000
001EFC0000
000AF60000
002FFC0000
00AF7F6000
03FA0DD000
0AF307FC70
3FB001EFF0
0000000BF0
0000000CE0
000005AFA0
000008EA10
ENDCHAR
STARTCHAR uni04FE
ENCODING 1278
SWIDTH 550 0
DWIDTH 11 0
BBX 11 14 0 0
BITMAP
1EF20001EE10
07F90008F700
00DF201EE100
005F908F6000
000CF3ED0000
0004FEF50000
001FFFFF3000
0017FFF81000
0006FDF70000
001EE2EE1000
007F807F8000
01EE101EE100
08F80007F900
2EE10001EF20
ENDCHAR
STARTCHAR uni04FF
ENCODING 1279
SWIDTH 438 0
DWIDTH 9 0
BBX 9 11 0 0
BITMAP
3FC001FD00
0AF308F600
03FA1EE100
00BF8F7000
004FFE1000
04FFFFF100
028FFD7000
007F7F3000
02EA0DC000
0AF307F500
3FB001ED10
ENDCHAR
STARTCHAR uni0500
ENCODING 1280
SWIDTH 555 0
DWIDTH 11 0
BBX 9 14 1 0
BITMAP
0000002FA0
0000002FA0
0000002FA0
0000002FA0
0000002FA0
0000002FA0
04BEFFFFA0
4FEA889FA0
CF30002FA0
FC00002FA0
FC00002FA0
CF30002FA0
4FE9889FA0
04BEFFFFA0
ENDCHAR
STARTCHAR uni0501
ENCODING 1281
SWIDTH 496 0
DWIDTH 10 0
BBX 9 15 0 0
BITMAP
0000003F80
0000003F80
0000003F80
0000003F80
005DFC6F80
04FE9AEF80
0BF3006F80
0EC0003F80
1FA0003F80
1FA0003F80
1FA0003F80
0EC0003F80
0BF3006F80
04FE9AEF80
005DFC4F80
ENDCHAR
STARTCHAR uni0502
ENCODING 1282
SWIDTH 723 0
DWIDTH 14 0
BBX 13 14 1 0
BITMAP
0000001FB00000
0000001FB00000
0000001FB00000
0000001FB00000
0000001FB00000
0000001FB00000
04BEFFFFB02620
4FFA889FB03F80
CF40001FB00FB0
FD00001FB00ED0
FD00001FB00FC0
CF40001FB04F90
4FE9889FD9EF20
04BEFFFFFFC400
ENDCHAR
STARTCHAR uni0503
ENCODING 1283
SWIDTH 743 0
DWIDTH 15 0
BBX 13 15 1 0
BITMAP
000004F7000000
000004F7000000
000004F7000000
000004F7000000
03CFC7F7000000
1EF9AFF7002510
8F6007F7004F60
CE0004F7001F90
EC0004F7000FA0
FB0004F7000EB0
FB0004F7000FB0
DD0004F7003F80
9F5007F900AF30
2FE9ADDF8BF900
04CFC32CFD8000
ENDCHAR
STARTCHAR uni0504
ENCODING 1284
SWIDTH 685 0
DWIDTH 14 0
BBX 13 14 0 0
BITMAP
5FFFDA20000000
3888BFE2000000
000007F7000000
000003F9000000
000004F8004400
00003CF300AF10
00BFFE40007F40
0068BFB0006F60
000009F6005F70
000003F9006F60
000002FA009F40
000000FC01DE00
000000BFACF600
0000002BED6000
ENDCHAR
STARTCHAR uni0505
ENCODING 1285
SWIDTH 562 0
DWIDTH 11 0
BBX 11 11 0 0
BITMAP
6FFDA2000000
2779FD000000
00008F400000
00006F504700
0002CE107F30
0BFFF4004F60
0578EE103F80
00007F505F60
00005F609F30
00003FC9FA00
000008EE9100
ENDCHAR
STARTCHAR uni0506
ENCODING 1286
SWIDTH 470 0
DWIDTH 9 0
BBX 9 17 0 -3
BITMAP
3FFEC50000
1778DF7000
00001DE000
00000AF100
00000BF000
00016F8000
07FFF90000
0378DF4000
00002FC000
00000BF000
00000AF100
00000AF210
000009FF90
000006FF90
0000004F60
0000008F20
0000008700
ENDCHAR
STARTCHAR uni0507
ENCODING 1287
SWIDTH 443 0
DWIDTH 9 0
BBX 8 14 1 -3
BITMAP
CFFD7000
577BF800
0000DE00
0000BF00
0004EA00
4FFFC100
277BF800
0000DE00
0000AF00
0000AFE6
00007FF7
000005F5
00000AE1
00000A50
ENDCHAR
STARTCHAR uni0508
ENCODING 1288
SWIDTH 834 0
DWIDTH 17 0
BBX 16 14 0 0
BITMAP
000AFFFFFF900000
000BF988AF900000
000BF0003F900000
000CF0003F900000
000CE0003F900252
000DE0003F9003F8
000DD0003F9001FB
000ED0003F9000EC
000FC0003F9000ED
001FA0003F9000FC
003F80003F9002FA
009F40001FC009F5
2AFC00000CFAAFB0
4EB2000002BEE910
ENDCHAR
STARTCHAR uni0509
ENCODING 1289
SWIDTH 698 0
DWIDTH 14 0
BBX 14 11 0 0
BITMAP
004FFFFF800000
004FB89F800000
005F603F800890
005F503F8009F1
006F403F8007F4
006F403F8006F5
007F203F8006F5
009F102F9008F3
00DD001FB00CD0
2CF8000AF9BF60
4FA10001AEE700
ENDCHAR
STARTCHAR uni050A
ENCODING 1290
SWIDTH 864 0
DWIDTH 17 0
BBX 15 14 1 0
BITMAP
7F500001FB000000
7F500001FB000000
7F500001FB000000
7F500001FB000000
7F500001FB001520
7F500001FB002FA0
7FFFFFFFFB000ED0
7FA88889FB000CE0
7F500001FB000CF0
7F500001FB000DE0
7F500001FB001FC0
7F500000ED007F70
7F5000009FBAFD10
7F5000001AEEA100
ENDCHAR
STARTCHAR uni050B
ENCODING 1291
SWIDTH 716 0
DWIDTH 14 0
BBX 13 11 1 0
BITMAP
AF1000FB000000
AF1000FB000000
AF1000FB006A10
AF1000FB006F40
AFFFFFFB004F70
AF8777FB003F80
AF1000FB003F80
AF1000EB005F60
AF1000CD00AF20
AF10006FBAF900
AF100009EE9000
ENDCHAR
STARTCHAR uni050C
ENCODING 1292
SWIDTH 541 0
DWIDTH 11 0
BBX 9 14 1 0
BITMAP
004BEEB500
06FE99D900
2ED1000100
8F60000000
BF10000000
DE00000000
DE00002D70
DE00000FB0
DE00000ED0
CF10000DE0
8F60000ED0
2ED1006F90
06FE9AFE20
004BEEA200
ENDCHAR
STARTCHAR uni050D
ENCODING 1293
SWIDTH 452 0
DWIDTH 9 0
BBX 8 11 1 0
BITMAP
02AEEB10
1DE98D00
7F500000
CE000000
FC000000
FB000560
EC000AF0
CE0009F2
7F600BF0
1CF99FA0
01AEEA10
ENDCHAR
STARTCHAR uni050E
ENCODING 1294
SWIDTH 616 0
DWIDTH 12 0
BBX 12 14 0 0
BITMAP
8FFFFFFFFE00
4888DF988800
0000BF100000
0000BF100000
0000BF100440
0000BF100BF0
0000BF1008F3
0000BF1007F4
0000BF1006F5
0000BF1007F4
0000BF100AF2
00009F402FC0
00004FD9EF40
000006DEC400
ENDCHAR
STARTCHAR uni050F
ENCODING 1295
SWIDTH 558 0
DWIDTH 11 0
BBX 11 11 0 0
BITMAP
3FFFFFFF3000
277AFA772000
0006F5000000
0006F5008600
0006F500CD00
0006F5009F10
0006F5009F20
0005F600AF10
0003F801ED00
0000DF8CF500
00003CED6000
ENDCHAR
STARTCHAR uni0510
ENCODING 1296
SWIDTH 589 0
DWIDTH 12 0
BBX 10 14 1 0
BITMAP
006CEFC700
09FEA9DFB0
2FD1000BF5
5F800003C6
4F90000000
0CF6100000
01BFFF9000
08FD985000
4FB0000000
7F50000000
7F500002FA
4FC10009F7
09FE99CFC1
006CEFD810
ENDCHAR
STARTCHAR uni0511
ENCODING 1297
SWIDTH 470 0
DWIDTH 9 0
BBX 8 11 1 0
BITMAP
07DED920
8FC89FD1
CE0006B3
AF400000
1BFFF500
6FB77200
DD000000
FB000252
DE1008F5
6FD8AFD1
05CED910
ENDCHAR
STARTCHAR uni0512
ENCODING 1298
SWIDTH 664 0
DWIDTH 13 0
BBX 13 18 0 -4
BITMAP
000CFFFFFFA000
000DE8889FA000
000DD0002FA000
000ED0002FA000
000EC0002FA000
000FB0002FA000
000FB0002FA000
001FA0002FA000
002F90002FA000
003F80002FA000
006F60002FA000
00BF20002FA000
3BFA00002FD730
6EA100002FFF50
00000000005F50
00000000007F40
0000000029EE10
000000003ED400
ENDCHAR
STARTCHAR uni0513
ENCODING 1299
SWIDTH 553 0
DWIDTH 11 0
BBX 11 15 0 -4
BITMAP
007FFFFFB000
007F988FB000
008F300FB000
008F200FB000
009F100FB000
00AF100FB000
00BF000FB000
00CD000FB000
02FA000FB000
4DF5000FD730
7E80000FFF70
000000004F70
000000006F50
00000019DF20
0000002ED500
ENDCHAR
STARTCHAR uni1E00
ENCODING 7680
SWIDTH 576 0
DWIDTH 12 0
BBX 11 18 0 -4
BITMAP
00002FA00000
00007FF10000
0000CEF50000
0002F7EA0000
0007F2AE1000
000CD05F5000
002F901FA000
007F400BE100
00CE0007F500
02FFFFFFFA00
07FA8888DE00
0BF100008F50
1FB000003FA0
6F6000000DE0
000000000000
00003EC10000
000085A40000
00003EC10000
ENDCHAR
STARTCHAR uni1E01
ENCODING 7681
SWIDTH 479 0
DWIDTH 10 0
BBX 8 15 1 -4
BITMAP
04BEEA10
4FD89FB0
8D200AF1
000008F3
02ADFFF3
3FD74AF3
AF2008F3
DD0008F3
CE101CF3
7FC9DEF4
08DE96F7
00000000
00BE4000
02B4A000
00BE5000
ENDCHAR
STARTCHAR uni1E3E
ENCODING 7742
SWIDTH 755 0
DWIDTH 15 0
BBX 13 18 1 0
BITMAP
0000001EE30000
000000BF400000
000003D6000000
00000000000000
7FE1000000DF80
7FF5000003FF80
7FFA000008FF80
7FDE00000DDF80
7F9F40003F8F80
7F4F90008F4F80
7F4AE000DC2F80
7F45F403F73F80
7F51E908F13F80
7F50AE0CB03F80
7F505F6F603F80
7F501EEF103F80
7F500AFB003F80
7F5005F6003F80
ENDCHAR
STARTCHAR uni1E3F
ENCODING 7743
SWIDTH 752 0
DWIDTH 15 0
BBX 13 15 1 0
BITMAP
0000000CF50000
0000009F600000
000001C8000000
00000000000000
BE5CFC32BED600
BFE9AFDDB9EF30
BF4009FC004F90
BF0006F7000FB0
BF0005F6000FB0
BF0005F6000FB0
BF0005F6000FB0
BF0005F6000FB0
BF0005F6000FB0
BF0005F6000FB0
BF0005F6000FB0
ENDCHAR
STARTCHAR Wgrave
ENCODING 7808
SWIDTH 761 0
DWIDTH 15 0
BBX 15 18 0 0
BITMAP
00001CF500000000
000002DE20000000
0000003D60000000
0000000000000000
3F90002F90003F90
0FB0005FC0005F60
0CE0009FF1008F30
09F200CCF400BF00
06F501F6E700DC00
03F704F3BB01F900
00FA08E07E04F600
00CD0BB04F37F300
009F1E701F69F000
006F7F300C9CC000
003FCE0008DE9000
000FFB0005FF6000
000CF80001FF3000
0009F40000DE0000
ENDCHAR
STARTCHAR wgrave
ENCODING 7809
SWIDTH 649 0
DWIDTH 13 0
BBX 13 15 0 0
BITMAP
0003ED10000000
00005FB0000000
000007C3000000
00000000000000
6F4005F4005F50
2F8009F8008F20
0EB00DFC00BD00
0AE02FCF10EA00
07F25F4F52F600
03F59D0E95F300
00F9D90AC8E000
00BEF506FDB000
008FF102FF7000
004FC000DF4000
001F80009F0000
ENDCHAR
STARTCHAR Wacute
ENCODING 7810
SWIDTH 761 0
DWIDTH 15 0
BBX 15 18 0 0
BITMAP
00000000BF600000
00000007F8000000
0000001BA0000000
0000000000000000
3F90002F90003F90
0FB0005FC0005F60
0CE0009FF1008F30
09F200CCF400BF00
06F501F6E700DC00
03F704F3BB01F900
00FA08E07E04F600
00CD0BB04F37F300
009F1E701F69F000
006F7F300C9CC000
003FCE0008DE9000
000FFB0005FF6000
000CF80001FF3000
0009F40000DE0000
ENDCHAR
STARTCHAR wacute
ENCODING 7811
SWIDTH 649 0
DWIDTH 13 0
BBX 13 15 0 0
BITMAP
0000002EE20000
000000CF400000
000003D5000000
00000000000000
6F4005F4005F50
2F8009F8008F20
0EB00DFC00BD00
0AE02FCF10EA00
07F25F4F52F600
03F59D0E95F300
00F9D90AC8E000
00BEF506FDB000
008FF102FF7000
004FC000DF4000
001F80009F0000
ENDCHAR
STARTCHAR Wdieresis
ENCODING 7812
SWIDTH 761 0
DWIDTH 15 0
BBX 15 17 0 0
BITMAP
00003F901EC00000
00003E801DB00000
0000000000000000
3F90002F90003F90
0FB0005FC0005F60
0CE0009FF1008F30
09F200CCF400BF00
06F501F6E700DC00
03F704F3BB01F900
00FA08E07E04F600
00CD0BB04F37F300
009F1E701F69F000
006F7F300C9CC000
003FCE0008DE9000
000FFB0005FF6000
000CF80001FF3000
0009F40000DE0000
ENDCHAR
STARTCHAR wdieresis
ENCODING 7813
SWIDTH 649 0
DWIDTH 13 0
BBX 13 15 0 0
BITMAP
0008F405F70000
0007E405E60000
00000000000000
00000000000000
6F4005F4005F50
2F8009F8008F20
0EB00DFC00BD00
0AE02FCF10EA00
07F25F4F52F600
03F59D0E95F300
00F9D90AC8E000
00BEF506FDB000
008FF102FF7000
004FC000DF4000
001F80009F0000
ENDCHAR
STARTCHAR uni1EA0
ENCODING 7840
SWIDTH 576 0
DWIDTH 12 0
BBX 11 17 0 -3
BITMAP
00002FA00000
00007FF10000
0000CEF50000
0002F7EA0000
0007F2AE1000
000CD05F5000
002F901FA000
007F400BE100
00CE0007F500
02FFFFFFFA00
07FA8888DE00
0BF100008F50
1FB000003FA0
6F6000000DE0
000000000000
00001EA00000
00002EB00000
ENDCHAR
STARTCHAR uni1EA1
ENCODING 7841
SWIDTH 479 0
DWIDTH 10 0
BBX 8 14 1 -3
BITMAP
04BEEA10
4FD89FB0
8D200AF1
000008F3
02ADFFF3
3FD74AF3
AF2008F3
DD0008F3
CE101CF3
7FC9DEF4
08DE96F7
00000000
009E2000
00AF3000
ENDCHAR
STARTCHAR uni1EA2
ENCODING 7842
SWIDTH 576 0
DWIDTH 12 0
BBX 11 19 0 0
BITMAP
00000DB20000
000001C90000
000006E70000
00000C900000
000000000000
00002FA00000
00007FF10000
0000CEF50000
0002F7EA0000
0007F2AE1000
000CD05F5000
002F901FA000
007F400BE100
00CE0007F500
02FFFFFFFA00
07FA8888DE00
0BF100008F50
1FB000003FA0
6F6000000DE0
ENDCHAR
STARTCHAR uni1EA3
ENCODING 7843
SWIDTH 479 0
DWIDTH 10 0
BBX 8 17 1 0
BITMAP
000AC300
0001AB00
0005DA00
0009B000
00000000
00000000
04BEEA10
4FD89FB0
8D200AF1
000008F3
02ADFFF3
3FD74AF3
AF2008F3
DD0008F3
CE101CF3
7FC9DEF4
08DE96F7
ENDCHAR
STARTCHAR uni1EA4
ENCODING 7844
SWIDTH 576 0
DWIDTH 12 0
BBX 12 20 0 0
BITMAP
000000000BE1
000000003F70
00005FD26C00
0005FADD2000
001BC03D7000
000000000000
00002FA00000
00007FF10000
0000CEF50000
0002F7EA0000
0007F2AE1000
000CD05F5000
002F901FA000
007F400BE100
00CE0007F500
02FFFFFFFA00
07FA8888DE00
0BF100008F50
1FB000003FA0
6F6000000DE0
ENDCHAR
STARTCHAR uni1EA5
ENCODING 7845
SWIDTH 479 0
DWIDTH 10 0
BBX 10 17 1 0
BITMAP
00000009F3
0000001F90
004EE34D10
03EBCE3000
09D12D9000
0000000000
04BEEA1000
4FD89FB000
8D200AF100
000008F300
02ADFFF300
3FD74AF300
AF2008F300
DD0008F300
CE101CF300
7FC9DEF400
08DE96F700
ENDCHAR
STARTCHAR uni1EA6
ENCODING 7846
SWIDTH 576 0
DWIDTH 12 0
BBX 11 20 0 0
BITMAP
6F6000000000
0CD000000000
04C26FD20000
0005F9DD1000
001BC04D7000
000000000000
00002FA00000
00007FF10000
0000CEF50000
0002F7EA0000
0007F2AE1000
000CD05F5000
002F901FA000
007F400BE100
00CE0007F500
02FFFFFFFA00
07FA8888DE00
0BF100008F50
1FB000003FA0
6F6000000DE0
ENDCHAR
STARTCHAR uni1EA7
ENCODING 7847
SWIDTH 479 0
DWIDTH 10 0
BBX 10 17 -1 0
BITMAP
3F80000000
0AE1000000
02D34EE300
0003EBCE30
0009D12D90
0000000000
0004BEEA10
004FD89FB0
008D200AF1
00000008F3
0002ADFFF3
003FD74AF3
00AF2008F3
00DD0008F3
00CE101CF3
007FC9DEF4
0008DE96F7
ENDCHAR
STARTCHAR uni1EA8
ENCODING 7848
SWIDTH 576 0
DWIDTH 12 0
BBX 11 19 0 0
BITMAP
00000000DA00
00008FE32F30
0006F5BDF600
001C801D7000
000000000000
00002FA00000
00007FF10000
0000CEF50000
0002F7EA0000
0007F2AE1000
000CD05F5000
002F901FA000
007F400BE100
00CE0007F500
02FFFFFFFA00
07FA8888DE00
0BF100008F50
1FB000003FA0
6F6000000DE0
ENDCHAR
STARTCHAR uni1EA9
ENCODING 7849
SWIDTH 479 0
DWIDTH 10 0
BBX 9 16 1 0
BITMAP
000000BB10
005FF41D50
04F78EE800
0AB00B9000
0000000000
04BEEA1000
4FD89FB000
8D200AF100
000008F300
02ADFFF300
3FD74AF300
AF2008F300
DD0008F300
CE101CF300
7FC9DEF400
08DE96F700
ENDCHAR
STARTCHAR uni1EAA
ENCODING 7850
SWIDTH 576 0
DWIDTH 12 0
BBX 11 20 0 0
BITMAP
0001DB2B0000
000565E60000
000000000000
00019DD50000
001AB14D6000
000000000000
00002FA00000
00007FF10000
0000CEF50000
0002F7EA0000
0007F2AE1000
000CD05F5000
002F901FA000
007F400BE100
00CE0007F500
02FFFFFFFA00
07FA8888DE00
0BF100008F50
1FB000003FA0
6F6000000DE0
ENDCHAR
STARTCHAR uni1EAB
ENCODING 7851
SWIDTH 479 0
DWIDTH 10 0
BBX 8 17 1 0
BITMAP
00BC2B10
0393D900
00000000
007DD700
09C23D80
00000000
04BEEA10
4FD89FB0
8D200AF1
000008F3
02ADFFF3
3FD74AF3
AF2008F3
DD0008F3
CE101CF3
7FC9DEF4
08DE96F7
ENDCHAR
STARTCHAR uni1EAC
ENCODING 7852
SWIDTH 576 0
DWIDTH 12 0
BBX 11 21 0 -3
BITMAP
00003EB00000
0002DAE90000
0006C15C2000
000000000000
00002FA00000
00007FF10000
0000CEF50000
0002F7EA0000
0007F2AE1000
000CD05F5000
002F901FA000
007F400BE100
00CE0007F500
02FFFFFFFA00
07FA8888DE00
0BF100008F50
1FB000003FA0
6F6000000DE0
000000000000
00001EA00000
00002EB00000
ENDCHAR
STARTCHAR uni1EAD
ENCODING 7853
SWIDTH 479 0
DWIDTH 10 0
BBX 8 19 1 -3
BITMAP
001DD100
01CCCB00
04D23D40
00000000
00000000
04BEEA10
4FD89FB0
8D200AF1
000008F3
02ADFFF3
3FD74AF3
AF2008F3
DD0008F3
CE101CF3
7FC9DEF4
08DE96F7
00000000
009E2000
00AF3000
ENDCHAR
STARTCHAR uni1EAE
ENCODING 7854
SWIDTH 576 0
DWIDTH 12 0
BBX 11 19 0 0
BITMAP
000002F30000
000006800000
000AC16F2000
0002BED70000
000000000000
00002FA00000
00007FF10000
0000CEF50000
0002F7EA0000
0007F2AE1000
000CD05F5000
002F901FA000
007F400BE100
00CE0007F500
02FFFFFFFA00
07FA8888DE00
0BF100008F50
1FB000003FA0
6F6000000DE0
ENDCHAR
STARTCHAR uni1EAF
ENCODING 7855
SWIDTH 479 0
DWIDTH 10 0
BBX 8 16 1 0
BITMAP
0001E600
0004A000
07E23F50
01AEE900
00000000
04BEEA10
4FD89FB0
8D200AF1
000008F3
02ADFFF3
3FD74AF3
AF2008F3
DD0008F3
CE101CF3
7FC9DEF4
08DE96F7
ENDCHAR
STARTCHAR uni1EB0
ENCODING 7856
SWIDTH 576 0
DWIDTH 12 0
BBX 11 19 0 0
BITMAP
00008C000000
00000B200000
000AC16F2000
0002BED70000
000000000000
00002FA00000
00007FF10000
0000CEF50000
0002F7EA0000
0007F2AE1000
000CD05F5000
002F901FA000
007F400BE100
00CE0007F500
02FFFFFFFA00
07FA8888DE00
0BF100008F50
1FB000003FA0
6F6000000DE0
ENDCHAR
STARTCHAR uni1EB1
ENCODING 7857
SWIDTH 479 0
DWIDTH 10 0
BBX 8 16 1 0
BITMAP
006E1000
000A4000
07E23F50
01AEE900
00000000
04BEEA10
4FD89FB0
8D200AF1
000008F3
02ADFFF3
3FD74AF3
AF2008F3
DD0008F3
CE101CF3
7FC9DEF4
08DE96F7
ENDCHAR
STARTCHAR uni1EB2
ENCODING 7858
SWIDTH 576 0
DWIDTH 12 0
BBX 11 20 0 0
BITMAP
00000BC20000
000002D70000
00000C800000
0009C17F1000
0002BED50000
000000000000
00002FA00000
00007FF10000
0000CEF50000
0002F7EA0000
0007F2AE1000
000CD05F5000
002F901FA000
007F400BE100
00CE0007F500
02FFFFFFFA00
07FA8888DE00
0BF100008F50
1FB000003FA0
6F6000000DE0
ENDCHAR
STARTCHAR uni1EB3
ENCODING 7859
SWIDTH 479 0
DWIDTH 10 0
BBX 8 17 1 0
BITMAP
0009C400
0002B900
000AB100
07E24F30
01AEE700
00000000
04BEEA10
4FD89FB0
8D200AF1
000008F3
02ADFFF3
3FD74AF3
AF2008F3
DD0008F3
CE101CF3
7FC9DEF4
08DE96F7
ENDCHAR
STARTCHAR uni1EB4
ENCODING 7860
SWIDTH 576 0
DWIDTH 12 0
BBX 11 21 0 0
BITMAP
000000010000
0002EC3C1000
000575E90000
000000000000
0009C16F1000
0002BED60000
000000000000
00002FA00000
00007FF10000
0000CEF50000
0002F7EA0000
0007F2AE1000
000CD05F5000
002F901FA000
007F400BE100
00CE0007F500
02FFFFFFFA00
07FA8888DE00
0BF100008F50
1FB000003FA0
6F6000000DE0
ENDCHAR
STARTCHAR uni1EB5
ENCODING 7861
SWIDTH 479 0
DWIDTH 10 0
BBX 8 18 1 0
BITMAP
00000100
00CE4A30
0393DB00
00000000
07E23F40
01AEE800
00000000
04BEEA10
4FD89FB0
8D200AF1
000008F3
02ADFFF3
3FD74AF3
AF2008F3
DD0008F3
CE101CF3
7FC9DEF4
08DE96F7
ENDCHAR
STARTCHAR uni1EB6
ENCODING 7862
SWIDTH 576 0
DWIDTH 12 0
BBX 11 22 0 -3
BITMAP
000210022000
000EB34E8000
0003CEE91000
000000000000
000000000000
00002FA00000
00007FF10000
0000CEF50000
0002F7EA0000
0007F2AE1000
000CD05F5000
002F901FA000
007F400BE100
00CE0007F500
02FFFFFFFA00
07FA8888DE00
0BF100008F50
1FB000003FA0
6F6000000DE0
000000000000
00001EA00000
00002EB00000
ENDCHAR
STARTCHAR uni1EB7
ENCODING 7863
SWIDTH 479 0
DWIDTH 10 0
BBX 8 19 1 -3
BITMAP
02100120
0BC34DB0
02BEEA20
00000000
00000000
04BEEA10
4FD89FB0
8D200AF1
000008F3
02ADFFF3
3FD74AF3
AF2008F3
DD0008F3
CE101CF3
7FC9DEF4
08DE96F7
00000000
009E2000
00AF3000
ENDCHAR
STARTCHAR uni1EB8
ENCODING 7864
SWIDTH 496 0
DWIDTH 10 0
BBX 9 17 1 -3
BITMAP
7FFFFFFF10
7FA8888810
7F50000000
7F50000000
7F50000000
7F50000000
7FFFFFF500
7FA8888300
7F50000000
7F50000000
7F50000000
7F50000000
7FA8888810
7FFFFFFF30
0000000000
0009E20000
000AF20000
ENDCHAR
STARTCHAR uni1EB9
ENCODING 7865
SWIDTH 468 0
DWIDTH 9 0
BBX 8 14 1 -3
BITMAP
03BEEA20
2ED89FD0
9F2007F5
DC0003F8
FFFFFFF9
FD777774
FB000000
ED000000
AF400060
3FF98CF4
04BEEC50
00000000
002EA000
002EB000
ENDCHAR
STARTCHAR uni1EBA
ENCODING 7866
SWIDTH 496 0
DWIDTH 10 0
BBX 9 19 1 0
BITMAP
0006D60000
00006F1000
0002BE0000
0005E20000
0000000000
7FFFFFFF10
7FA8888810
7F50000000
7F50000000
7F50000000
7F50000000
7FFFFFF500
7FA8888300
7F50000000
7F50000000
7F50000000
7F50000000
7FA8888810
7FFFFFFF30
ENDCHAR
STARTCHAR uni1EBB
ENCODING 7867
SWIDTH 468 0
DWIDTH 9 0
BBX 8 17 1 0
BITMAP
000CB200
0001C900
0006E800
000B9000
00000000
00000000
03BEEA20
2ED89FD0
9F2007F5
DC0003F8
FFFFFFF9
FD777774
FB000000
ED000000
AF400060
3FF98CF4
04BEEC50
ENDCHAR
STARTCHAR uni1EBC
ENCODING 7868
SWIDTH 496 0
DWIDTH 10 0
BBX 9 18 1 0
BITMAP
0034007100
04FFB8F100
09A1AE7000
0000000000
7FFFFFFF10
7FA8888810
7F50000000
7F50000000
7F50000000
7F50000000
7FFFFFF500
7FA8888300
7F50000000
7F50000000
7F50000000
7F50000000
7FA8888810
7FFFFFFF30
ENDCHAR
STARTCHAR uni1EBD
ENCODING 7869
SWIDTH 468 0
DWIDTH 9 0
BBX 8 16 1 0
BITMAP
01520450
0BFE7C90
1F35DD20
00000000
00000000
03BEEA20
2ED89FD0
9F2007F5
DC0003F8
FFFFFFF9
FD777774
FB000000
ED000000
AF400060
3FF98CF4
04BEEC50
ENDCHAR
STARTCHAR uni1EBE
ENCODING 7870
SWIDTH 496 0
DWIDTH 10 0
BBX 10 20 1 0
BITMAP
00000004F7
0000000BD0
001CF71C50
01CE9F7000
06D50BB200
0000000000
7FFFFFFF10
7FA8888810
7F50000000
7F50000000
7F50000000
7F50000000
7FFFFFF500
7FA8888300
7F50000000
7F50000000
7F50000000
7F50000000
7FA8888810
7FFFFFFF30
ENDCHAR
STARTCHAR uni1EBF
ENCODING 7871
SWIDTH 468 0
DWIDTH 9 0
BBX 10 17 1 0
BITMAP
0000000BE1
0000003F70
005FD26C00
05FADD2000
1BC13D7000
0000000000
03BEEA2000
2ED89FD000
9F2007F500
DC0003F800
FFFFFFF900
FD77777400
FB00000000
ED00000000
AF40006000
3FF98CF400
04BEEC5000
ENDCHAR
STARTCHAR uni1EC0
ENCODING 7872
SWIDTH 496 0
DWIDTH 10 0
BBX 11 20 -1 0
BITMAP
1DD000000000
05F500000000
00B71CF60000
0001CE9F6000
0006D40BB200
000000000000
007FFFFFFF10
007FA8888810
007F50000000
007F50000000
007F50000000
007F50000000
007FFFFFF500
007FA8888300
007F50000000
007F50000000
007F50000000
007F50000000
007FA8888810
007FFFFFFF30
ENDCHAR
STARTCHAR uni1EC1
ENCODING 7873
SWIDTH 468 0
DWIDTH 9 0
BBX 10 17 -1 0
BITMAP
6F60000000
0CD0000000
04C26FD200
0005F9DD20
001BC03D70
0000000000
0003BEEA20
002ED89FD0
009F2007F5
00DC0003F8
00FFFFFFF9
00FD777774
00FB000000
00ED000000
00AF400060
003FF98CF4
0004BEEC50
ENDCHAR
STARTCHAR uni1EC2
ENCODING 7874
SWIDTH 496 0
DWIDTH 10 0
BBX 9 19 1 0
BITMAP
0000007D40
002EF909A0
01DC4FEC10
07D208C200
0000000000
7FFFFFFF10
7FA8888810
7F50000000
7F50000000
7F50000000
7F50000000
7FFFFFF500
7FA8888300
7F50000000
7F50000000
7F50000000
7F50000000
7FA8888810
7FFFFFFF30
ENDCHAR
STARTCHAR uni1EC3
ENCODING 7875
SWIDTH 468 0
DWIDTH 9 0
BBX 9 16 1 0
BITMAP
000000DA00
008FE32F30
06F5BEF600
1B901D8000
0000000000
03BEEA2000
2ED89FD000
9F2007F500
DC0003F800
FFFFFFF900
FD77777400
FB00000000
ED00000000
AF40006000
3FF98CF400
04BEEC5000
ENDCHAR
STARTCHAR uni1EC4
ENCODING 7876
SWIDTH 496 0
DWIDTH 10 0
BBX 9 20 1 0
BITMAP
007E585000
00B2BC1000
0000000000
005DD91000
05D51AB100
0000000000
7FFFFFFF10
7FA8888810
7F50000000
7F50000000
7F50000000
7F50000000
7FFFFFF500
7FA8888300
7F50000000
7F50000000
7F50000000
7F50000000
7FA8888810
7FFFFFFF30
ENDCHAR
STARTCHAR uni1EC5
ENCODING 7877
SWIDTH 468 0
DWIDTH 9 0
BBX 8 17 1 0
BITMAP
01DB2B00
0565E700
00000000
019DD500
1AB14D60
00000000
03BEEA20
2ED89FD0
9F2007F5
DC0003F8
FFFFFFF9
FD777774
FB000000
ED000000
AF400060
3FF98CF4
04BEEC50
ENDCHAR
STARTCHAR uni1EC6
ENCODING 7878
SWIDTH 496 0
DWIDTH 10 0
BBX 9 21 1 -3
BITMAP
000AF40000
008E9E2000
01C60C7000
0000000000
7FFFFFFF10
7FA8888810
7F50000000
7F50000000
7F50000000
7F50000000
7FFFFFF500
7FA8888300
7F50000000
7F50000000
7F50000000
7F50000000
7FA8888810
7FFFFFFF30
0000000000
0009E20000
000AF20000
ENDCHAR
STARTCHAR uni1EC7
ENCODING 7879
SWIDTH 468 0
DWIDTH 9 0
BBX 8 19 1 -3
BITMAP
003EB000
01DAE900
06D15C20
00000000
00000000
03BEEA20
2ED89FD0
9F2007F5
DC0003F8
FFFFFFF9
FD777774
FB000000
ED000000
AF400060
3FF98CF4
04BEEC50
00000000
002EA000
002EB000
ENDCHAR
STARTCHAR uni1EC8
ENCODING 7880
SWIDTH 250 0
DWIDTH 5 0
BBX 4 19 1 0
BITMAP
3E90
03F4
19F3
1F40
0000
6F60
6F60
6F60
6F60
6F60
6F60
6F60
6F60
6F60
6F60
6F60
6F60
6F60
6F60
ENDCHAR
STARTCHAR uni1EC9
ENCODING 7881
SWIDTH 234 0
DWIDTH 5 0
BBX 4 17 1 0
BITMAP
5D70
05F2
2BE1
4F20
0000
0000
9F20
9F20
9F20
9F20
9F20
9F20
9F20
9F20
9F20
9F20
9F20
ENDCHAR
STARTCHAR uni1ECA
ENCODING 7882
SWIDTH 250 0
DWIDTH 5 0
BBX 3 18 1 -4
BITMAP
6F60
6F60
6F60
6F60
6F60
6F60
6F60
6F60
6F60
6F60
6F60
6F60
6F60
6F60
0000
6E40
7F50
0100
ENDCHAR
STARTCHAR uni1ECB
ENCODING 7883
SWIDTH 229 0
DWIDTH 5 0
BBX 3 18 1 -3
BITMAP
7F20
7E20
0000
0000
9F20
9F20
9F20
9F20
9F20
9F20
9F20
9F20
9F20
9F20
9F20
0000
9E20
AF20
ENDCHAR
STARTCHAR uni1ECC
ENCODING 7884
SWIDTH 600 0
DWIDTH 12 0
BBX 10 17 1 -3
BITMAP
005CEEC500
07FEAAEF70
2FD1001DF2
7F600005F7
AF200002FA
BF000000FB
CF000000FC
CF000000FC
CF000000FB
AF200001FA
7F600005F7
2FD1001DF2
07FEAAEF70
005CEEC500
0000000000
0000DC0000
0000ED0000
ENDCHAR
STARTCHAR uni1ECD
ENCODING 7885
SWIDTH 501 0
DWIDTH 10 0
BBX 10 14 0 -3
BITMAP
002AEEB200
02EF99FE20
09F5005FA0
0ED0000DE0
1FB0000AF1
1FA00009F2
1FB0000AF1
0ED0000CE0
09F5003FA0
02EF99EE20
002BEEB300
0000000000
0000DC0000
0001ED0000
ENDCHAR
STARTCHAR uni1ECE
ENCODING 7886
SWIDTH 600 0
DWIDTH 12 0
BBX 10 19 1 0
BITMAP
00009C4000
000019C000
00004DB000
00008B1000
0000000000
005CEEC500
07FEAAEF70
2FD1001DF2
7F600005F7
AF200002FA
BF000000FB
CF000000FC
CF000000FC
CF000000FB
AF200001FA
7F600005F7
2FD1001DF2
07FEAAEF70
005CEEC500
ENDCHAR
STARTCHAR uni1ECF
ENCODING 7887
SWIDTH 501 0
DWIDTH 10 0
BBX 10 17 0 0
BITMAP
0000BC3000
00001AB000
00005D9000
0000AA0000
0000000000
0000000000
002AEEB200
02EF99FE20
09F5005FA0
0ED0000DE0
1FB0000AF1
1FA00009F2
1FB0000AF1
0ED0000CE0
09F5003FA0
02EF99EE20
002BEEB300
ENDCHAR
STARTCHAR uni1ED0
ENCODING 7888
SWIDTH 600 0
DWIDTH 12 0
BBX 11 20 1 0
BITMAP
000000008F40
00000001EA00
0003EF43D200
003ECBE40000
009D21DA0000
000000000000
005CEEC50000
07FEAAEF7000
2FD1001DF200
7F600005F700
AF200002FA00
BF000000FB00
CF000000FC00
CF000000FC00
CF000000FB00
AF200001FA00
7F600005F700
2FD1001DF200
07FEAAEF7000
005CEEC50000
ENDCHAR
STARTCHAR uni1ED1
ENCODING 7889
SWIDTH 501 0
DWIDTH 10 0
BBX 11 17 0 0
BITMAP
00000000AF20
00000002F800
0004FE34C100
004EBCE30000
00AD12D80000
000000000000
002AEEB20000
02EF99FE2000
09F5005FA000
0ED0000DE000
1FB0000AF100
1FA00009F200
1FB0000AF100
0ED0000CE000
09F5003FA000
02EF99EE2000
002BEEB30000
ENDCHAR
STARTCHAR uni1ED2
ENCODING 7890
SWIDTH 600 0
DWIDTH 12 0
BBX 11 20 0 0
BITMAP
3F9000000000
09F200000000
01D43EE40000
0003ECBE3000
0009D21DA000
000000000000
0005CEEC5000
007FEAAEF700
02FD1001DF20
07F600005F70
0AF200002FA0
0BF000000FB0
0CF000000FC0
0CF000000FC0
0CF000000FB0
0AF200001FA0
07F600005F70
02FD1001DF20
007FEAAEF700
0005CEEC5000
ENDCHAR
STARTCHAR uni1ED3
ENCODING 7891
SWIDTH 501 0
DWIDTH 10 0
BBX 11 17 -1 0
BITMAP
4F8000000000
0AE100000000
02D34FE30000
0004FACE2000
000AD12D8000
000000000000
0002AEEB2000
002EF99FE200
009F5005FA00
00ED0000DE00
01FB0000AF10
01FA00009F20
01FB0000AF10
00ED0000CE00
009F5003FA00
002EF99EE200
0002BEEB3000
ENDCHAR
STARTCHAR uni1ED4
ENCODING 7892
SWIDTH 600 0
DWIDTH 12 0
BBX 10 19 1 0
BITMAP
0000000AC2
0004FF51C6
003E88FE91
009B00BA00
0000000000
005CEEC500
07FEAAEF70
2FD1001DF2
7F600005F7
AF200002FA
BF000000FB
CF000000FC
CF000000FC
CF000000FB
AF200001FA
7F600005F7
2FD1001DF2
07FEAAEF70
005CEEC500
ENDCHAR
STARTCHAR uni1ED5
ENCODING 7893
SWIDTH 501 0
DWIDTH 10 0
BBX 10 16 0 0
BITMAP
0000000CB1
0006FF41E4
005F79EE80
00BA01C900
0000000000
002AEEB200
02EF99FE20
09F5005FA0
0ED0000DE0
1FB0000AF1
1FA00009F2
1FB0000AF1
0ED0000CE0
09F5003FA0
02EF99EE20
002BEEB300
ENDCHAR
STARTCHAR uni1ED6
ENCODING 7894
SWIDTH 600 0
DWIDTH 12 0
BBX 10 20 1 0
BITMAP
000BD3B100
00293DA000
0000000000
0007DD7000
008D32C900
0000000000
005CEEC500
07FEAAEF70
2FD1001DF2
7F600005F7
AF200002FA
BF000000FB
CF000000FC
CF000000FC
CF000000FB
AF200001FA
7F600005F7
2FD1001DF2
07FEAAEF70
005CEEC500
ENDCHAR
STARTCHAR uni1ED7
ENCODING 7895
SWIDTH 501 0
DWIDTH 10 0
BBX 10 17 0 0
BITMAP
000CC2C000
00384E8000
0000000000
0018DD6000
009C23D800
0000000000
002AEEB200
02EF99FE20
09F5005FA0
0ED0000DE0
1FB0000AF1
1FA00009F2
1FB0000AF1
0ED0000CE0
09F5003FA0
02EF99EE20
002BEEB300
ENDCHAR
STARTCHAR uni1ED8
ENCODING 7896
SWIDTH 600 0
DWIDTH 12 0
BBX 10 21 1 -3
BITMAP
0001DD1000
000BCCC000
004D32D400
0000000000
005CEEC500
07FEAAEF70
2FD1001DF2
7F600005F7
AF200002FA
BF000000FB
CF000000FC
CF000000FC
CF000000FB
AF200001FA
7F600005F7
2FD1001DF2
07FEAAEF70
005CEEC500
0000000000
0000DC0000
0000ED0000
ENDCHAR
STARTCHAR uni1ED9
ENCODING 7897
SWIDTH 501 0
DWIDTH 10 0
BBX 10 19 0 -3
BITMAP
0002EC1000
001CBDA000
005D24D300
0000000000
0000000000
002AEEB200
02EF99FE20
09F5005FA0
0ED0000DE0
1FB0000AF1
1FA00009F2
1FB0000AF1
0ED0000CE0
09F5003FA0
02EF99EE20
002BEEB300
0000000000
0000DC0000
0001ED0000
ENDCHAR
STARTCHAR uni1EDA
ENCODING 7898
SWIDTH 592 0
DWIDTH 12 0
BBX 12 18 0 0
BITMAP
0000009F8000
000005FA0000
00000AB10068
0000000000BD
0005CEEB44F8
006FEABFFFC1
02FC1004FE00
09F50000AF40
0DE000005F70
0FC000003F90
1FB000002FA0
1FB000002F90
0FC000003F80
0DE000005F60
09F50000AF20
02FC1004FB00
007FEABFE200
0005CEEA2000
ENDCHAR
STARTCHAR uni1EDB
ENCODING 7899
SWIDTH 502 0
DWIDTH 10 0
BBX 11 15 0 0
BITMAP
000008F90000
00004FB00000
00009C101410
000000003F20
001AEEB38E00
01DF99FFE500
07F6006F9000
0CE0000EE000
0FC0000BF000
1FA0000AF100
0FB0000BF000
0CE0000EC000
07F5005F7000
01DF98ED1000
002AEEA10000
ENDCHAR
STARTCHAR uni1EDC
ENCODING 7900
SWIDTH 592 0
DWIDTH 12 0
BBX 12 18 0 0
BITMAP
000AF7000000
0001CF300000
00002D800068
0000000000BD
0005CEEB44F8
006FEABFFFC1
02FC1004FE00
09F50000AF40
0DE000005F70
0FC000003F90
1FB000002FA0
1FB000002F90
0FC000003F80
0DE000005F60
09F50000AF20
02FC1004FB00
007FEABFE200
0005CEEA2000
ENDCHAR
STARTCHAR uni1EDD
ENCODING 7901
SWIDTH 502 0
DWIDTH 10 0
BBX 11 15 0 0
BITMAP
00AF70000000
000CF4000000
0001C9001410
000000003F20
001AEEB38E00
01DF99FFE500
07F6006F9000
0CE0000EE000
0FC0000BF000
1FA0000AF100
0FB0000BF000
0CE0000EC000
07F5005F7000
01DF98ED1000
002AEEA10000
ENDCHAR
STARTCHAR uni1EDE
ENCODING 7902
SWIDTH 592 0
DWIDTH 12 0
BBX 12 19 0 0
BITMAP
00000BC30000
000001AB0000
000005D90000
00000AA00068
0000000000BD
0005CEEB44F8
006FEABFFFC1
02FC1004FE00
09F50000AF40
0DE000005F70
0FC000003F90
1FB000002FA0
1FB000002F90
0FC000003F80
0DE000005F60
09F50000AF20
02FC1004FB00
007FEABFE200
0005CEEA2000
ENDCHAR
STARTCHAR uni1EDF
ENCODING 7903
SWIDTH 502 0
DWIDTH 10 0
BBX 11 17 0 0
BITMAP
0000AC300000
00001AB00000
00005DA00000
00009B000000
000000001410
000000003F20
001AEEB38E00
01DF99FFE500
07F6006F9000
0CE0000EE000
0FC0000BF000
1FA0000AF100
0FB0000BF000
0CE0000EC000
07F5005F7000
01DF98ED1000
002AEEA10000
ENDCHAR
STARTCHAR uni1EE0
ENCODING 7904
SWIDTH 592 0
DWIDTH 12 0
BBX 12 18 0 0
BITMAP
000052036000
0009FF8BA000
000E44DD3068
0000000000BD
0005CEEB44F8
006FEABFFFC1
02FC1004FE00
09F50000AF40
0DE000005F70
0FC000003F90
1FB000002FA0
1FB000002F90
0FC000003F80
0DE000005F60
09F50000AF20
02FC1004FB00
007FEABFE200
0005CEEA2000
ENDCHAR
STARTCHAR uni1EE1
ENCODING 7905
SWIDTH 502 0
DWIDTH 10 0
BBX 11 16 0 0
BITMAP
000520270000
008FF8AB0000
00D53CD30000
000000001410
000000003F20
001AEEB38E00
01DF99FFE500
07F6006F9000
0CE0000EE000
0FC0000BF000
1FA0000AF100
0FB0000BF000
0CE0000EC000
07F5005F7000
01DF98ED1000
002AEEA10000
ENDCHAR
STARTCHAR uni1EE2
ENCODING 7906
SWIDTH 592 0
DWIDTH 12 0
BBX 12 19 0 -3
BITMAP
000000000068
0000000000BD
0005CEEB44F8
006FEABFFFC1
02FC1004FE00
09F50000AF40
0DE000005F70
0FC000003F90
1FB000002FA0
1FB000002F90
0FC000003F80
0DE000005F60
09F50000AF20
02FC1004FB00
007FEABFE200
0005CEEA2000
000000000000
00002EA00000
00002EB00000
ENDCHAR
STARTCHAR uni1EE3
ENCODING 7907
SWIDTH 502 0
DWIDTH 10 0
BBX 11 16 0 -3
BITMAP
000000001410
000000003F20
001AEEB38E00
01DF99FFE500
07F6006F9000
0CE0000EE000
0FC0000BF000
1FA0000AF100
0FB0000BF000
0CE0000EC000
07F5005F7000
01DF98ED1000
002AEEA10000
000000000000
0001DB000000
0001EC000000
ENDCHAR
STARTCHAR uni1EE4
ENCODING 7908
SWIDTH 561 0
DWIDTH 11 0
BBX 9 18 1 -4
BITMAP
BF10000CF0
BF10000CF0
BF10000CF0
BF10000CF0
BF10000CF0
BF10000CF0
BF10000CF0
BF10000CF0
BF10000CF0
BF10000CF0
AF20000DE0
7F80004FA0
1DFB9AFE30
019DFEA300
0000000000
0004E60000
0005F70000
0000100000
ENDCHAR
STARTCHAR uni1EE5
ENCODING 7909
SWIDTH 483 0
DWIDTH 10 0
BBX 8 15 1 -4
BITMAP
BF0006F5
BF0006F5
BF0006F5
BF0006F5
BF0006F5
BF0006F5
BF0006F5
AF0006F5
8F400AF5
3FD9CFF5
07EFB7F5
00000000
008E3000
009F3000
00010000
ENDCHAR
STARTCHAR uni1EE6
ENCODING 7910
SWIDTH 561 0
DWIDTH 11 0
BBX 9 19 1 0
BITMAP
0001EA1000
00002E6000
00008F4000
0000E60000
0000000000
BF10000CF0
BF10000CF0
BF10000CF0
BF10000CF0
BF10000CF0
BF10000CF0
BF10000CF0
BF10000CF0
BF10000CF0
BF10000CF0
AF20000DE0
7F80004FA0
1DFB9AFE30
019DFEA300
ENDCHAR
STARTCHAR uni1EE7
ENCODING 7911
SWIDTH 483 0
DWIDTH 10 0
BBX 8 17 1 0
BITMAP
000CB200
0001C900
0006E800
000B9000
00000000
00000000
BF0006F5
BF0006F5
BF0006F5
BF0006F5
BF0006F5
BF0006F5
BF0006F5
AF0006F5
8F400AF5
3FD9CFF5
07EFB7F5
ENDCHAR
STARTCHAR uni1EE8
ENCODING 7912
SWIDTH 608 0
DWIDTH 12 0
BBX 13 18 1 0
BITMAP
000008F9000000
00005FA0000000
00009B10000000
00000000004D20
BF10000CF07F10
BF10000CF3DC00
BF10000CFFD200
BF10000CF30000
BF10000CF00000
BF10000CF00000
BF10000CF00000
BF10000CF00000
BF10000CF00000
BF10000CF00000
9F30000ED00000
5FA0007F900000
0BFC9BFD100000
008DFE91000000
ENDCHAR
STARTCHAR uni1EE9
ENCODING 7913
SWIDTH 549 0
DWIDTH 11 0
BBX 10 15 1 0
BITMAP
00008F9000
0004FB0000
0009C10012
000000005E
BF0006F69B
BF0006FFD3
BF0006F600
BF0006F500
BF0006F500
BF0006F500
BF0006F500
AF0006F500
8F400AF500
3FD9CFF500
07EFB7F500
ENDCHAR
STARTCHAR uni1EEA
ENCODING 7914
SWIDTH 608 0
DWIDTH 12 0
BBX 13 18 1 0
BITMAP
00AF7000000000
001CF300000000
0002D800000000
00000000004D20
BF10000CF07F10
BF10000CF3DC00
BF10000CFFD200
BF10000CF30000
BF10000CF00000
BF10000CF00000
BF10000CF00000
BF10000CF00000
BF10000CF00000
BF10000CF00000
9F30000ED00000
5FA0007F900000
0BFC9BFD100000
008DFE91000000
ENDCHAR
STARTCHAR uni1EEB
ENCODING 7915
SWIDTH 549 0
DWIDTH 11 0
BBX 10 15 1 0
BITMAP
0AF7000000
00CF400000
001D800012
000000005E
BF0006F69B
BF0006FFD3
BF0006F600
BF0006F500
BF0006F500
BF0006F500
BF0006F500
AF0006F500
8F400AF500
3FD9CFF500
07EFB7F500
ENDCHAR
STARTCHAR uni1EEC
ENCODING 7916
SWIDTH 608 0
DWIDTH 12 0
BBX 13 19 1 0
BITMAP
0000BC30000000
00001AB0000000
00005D90000000
0000AA00000000
00000000004D20
BF10000CF07F10
BF10000CF3DC00
BF10000CFFD200
BF10000CF30000
BF10000CF00000
BF10000CF00000
BF10000CF00000
BF10000CF00000
BF10000CF00000
BF10000CF00000
9F30000ED00000
5FA0007F900000
0BFC9BFD100000
008DFE91000000
ENDCHAR
STARTCHAR uni1EED
ENCODING 7917
SWIDTH 549 0
DWIDTH 11 0
BBX 10 17 1 0
BITMAP
000AC30000
0001AB0000
0005D90000
0009B00000
0000000012
000000005E
BF0006F69B
BF0006FFD3
BF0006F600
BF0006F500
BF0006F500
BF0006F500
BF0006F500
AF0006F500
8F400AF500
3FD9CFF500
07EFB7F500
ENDCHAR
STARTCHAR uni1EEE
ENCODING 7918
SWIDTH 608 0
DWIDTH 12 0
BBX 13 18 1 0
BITMAP
00052036000000
009FF8BB000000
00E54DD3000000
00000000004D20
BF10000CF07F10
BF10000CF3DC00
BF10000CFFD200
BF10000CF30000
BF10000CF00000
BF10000CF00000
BF10000CF00000
BF10000CF00000
BF10000CF00000
BF10000CF00000
9F30000ED00000
5FA0007F900000
0BFC9BFD100000
008DFE91000000
ENDCHAR
STARTCHAR uni1EEF
ENCODING 7919
SWIDTH 549 0
DWIDTH 11 0
BBX 10 16 1 0
BITMAP
0052026000
09FF8BB000
0D53CD3000
0000000012
000000005E
BF0006F69B
BF0006FFD3
BF0006F600
BF0006F500
BF0006F500
BF0006F500
BF0006F500
AF0006F500
8F400AF500
3FD9CFF500
07EFB7F500
ENDCHAR
STARTCHAR uni1EF0
ENCODING 7920
SWIDTH 608 0
DWIDTH 12 0
BBX 13 18 1 -3
BITMAP
00000000004D20
BF10000CF07F10
BF10000CF3DC00
BF10000CFFD200
BF10000CF30000
BF10000CF00000
BF10000CF00000
BF10000CF00000
BF10000CF00000
BF10000CF00000
BF10000CF00000
9F30000ED00000
5FA0007F900000
0BFC9BFD100000
008DFE91000000
00000000000000
0001DB00000000
0001EC00000000
ENDCHAR
STARTCHAR uni1EF1
ENCODING 7921
SWIDTH 549 0
DWIDTH 11 0
BBX 10 16 1 -3
BITMAP
0000000012
000000005E
BF0006F69B
BF0006FFD3
BF0006F600
BF0006F500
BF0006F500
BF0006F500
BF0006F500
AF0006F500
8F400AF500
3FD9CFF500
07EFB7F500
0000000000
002E900000
003FA00000
ENDCHAR
STARTCHAR Ygrave
ENCODING 7922
SWIDTH 524 0
DWIDTH 10 0
BBX 10 18 0 0
BITMAP
005FC00000
0007F80000
0000AB1000
0000000000
7F800001FE
1EE00007F7
08F5000DE1
02FC005F80
00AF30BF20
003F92FA00
000BE9F300
0004FFB000
0000CF4000
0000AF2000
0000AF2000
0000AF2000
0000AF2000
0000AF2000
ENDCHAR
STARTCHAR ygrave
ENCODING 7923
SWIDTH 416 0
DWIDTH 8 0
BBX 8 19 0 -4
BITMAP
04FC1000
006F9000
0009C200
00000000
8F5001FC
3F9004F8
0ED008F3
09F20BE0
05F50FA0
01F94F60
00BD7F10
007FDC00
002FF800
000DF400
0009E000
000CA000
003F5000
19ED1000
2EC30000
ENDCHAR
STARTCHAR uni1EF4
ENCODING 7924
SWIDTH 524 0
DWIDTH 10 0
BBX 10 17 0 -3
BITMAP
7F800001FE
1EE00007F7
08F5000DE1
02FC005F80
00AF30BF20
003F92FA00
000BE9F300
0004FFB000
0000CF4000
0000AF2000
0000AF2000
0000AF2000
0000AF2000
0000AF2000
0000000000
0000AE1000
0000BE2000
ENDCHAR
STARTCHAR uni1EF5
ENCODING 7925
SWIDTH 416 0
DWIDTH 8 0
BBX 8 16 0 -5
BITMAP
8F5001FC
3F9004F8
0ED008F3
09F20BE0
05F50FA0
01F94F60
00BD7F10
007FDC00
002FF800
000DF400
0009E000
000CA000
003F5000
19ED1000
2EC30DC0
00001ED0
ENDCHAR
STARTCHAR uni1EF6
ENCODING 7926
SWIDTH 524 0
DWIDTH 10 0
BBX 10 19 0 0
BITMAP
00006D6000
000006F100
00002BE000
00005E2000
0000000000
7F800001FE
1EE00007F7
08F5000DE1
02FC005F80
00AF30BF20
003F92FA00
000BE9F300
0004FFB000
0000CF4000
0000AF2000
0000AF2000
0000AF2000
0000AF2000
0000AF2000
ENDCHAR
STARTCHAR uni1EF7
ENCODING 7927
SWIDTH 416 0
DWIDTH 8 0
BBX 8 21 0 -4
BITMAP
0005E700
00005F20
0002AE10
0003F200
00000000
00000000
8F5001FC
3F9004F8
0ED008F3
09F20BE0
05F50FA0
01F94F60
00BD7F10
007FDC00
002FF800
000DF400
0009E000
000CA000
003F5000
19ED1000
2EC30000
ENDCHAR
STARTCHAR uni1EF8
ENCODING 7928
SWIDTH 524 0
DWIDTH 10 0
BBX 10 18 0 0
BITMAP
0003400710
004FFB8F10
009A1AE700
0000000000
7F800001FE
1EE00007F7
08F5000DE1
02FC005F80
00AF30BF20
003F92FA00
000BE9F300
0004FFB000
0000CF4000
0000AF2000
0000AF2000
0000AF2000
0000AF2000
0000AF2000
ENDCHAR
STARTCHAR uni1EF9
ENCODING 7929
SWIDTH 416 0
DWIDTH 8 0
BBX 8 20 0 -4
BITMAP
00340072
03FFB7F2
08B19E80
00000000
00000000
8F5001FC
3F9004F8
0ED008F3
09F20BE0
05F50FA0
01F94F60
00BD7F10
007FDC00
002FF800
000DF400
0009E000
000CA000
003F5000
19ED1000
2EC30000
ENDCHAR
STARTCHAR uni1F4D
ENCODING 8013
SWIDTH 634 0
DWIDTH 13 0
BBX 16 15 -4 0
BITMAP
DB09F30000000000
CB0DB0007DFEA200
8E3F300BFDABFE30
1B5A006FA0004FC0
000000CF20000AF3
000000FC000006F5
000001FB000005F7
000001FA000005F7
000001FA000005F7
000001FB000005F7
000000FC000006F6
000000CF20000AF3
0000006F90004FC0
0000000BFD9BFE30
000000018DFEA300
ENDCHAR
STARTCHAR uni2000
ENCODING 8192
SWIDTH 447 0
DWIDTH 9 0
BBX 1 1 0 0
BITMAP
00
ENDCHAR
ENDFONT
